<?xml version="1.0" encoding="UTF-8" standalone="no"?><svg xmlns="http://www.w3.org/2000/svg" xmlns:xlink="http://www.w3.org/1999/xlink" fill="#000000" height="141.1" preserveAspectRatio="xMidYMid meet" version="1" viewBox="-0.5 -0.1 180.6 141.1" width="180.6" zoomAndPan="magnify"><g><g id="change1_3"><path d="M37.6,95.6c0.6-0.3,1.1-0.5,1.6-0.6c2.4-0.7,4.8-1.3,7.1-2c1.8-0.6,3.5-1.3,5.2-2s3.5-1.4,5.1-2.3 c1.7-0.9,3.3-1.9,4.9-2.8c2.1-1.2,4.4-1.8,6.8-2.3c3.3-0.6,6.4-1.7,9.4-3.2c2-1,3.9-2.1,5.8-3.1c1.7-0.9,3.4-1.6,5.2-2 c2.6-0.6,4.5-2,6.1-4.1c0.8-1.1,1.7-2.1,2.5-3.2c0.7-0.9,1.1-1.9,1.3-3c0.2-1.2-0.3-2.1-1-3c-0.6-0.7-1.3-1.3-1.8-2.1 c-1.4-2-1.3-3.8,0.5-5.4c1.2-1.1,2.7-1.8,4.3-2.4c2.1-0.8,4.2-1.6,6.2-2.7c1.7-0.9,3.2-2,4.6-3.3c1.2-1.1,2.3-2.3,3.1-3.7 c0.1-0.1,0.2-0.3,0.3-0.2c0.2,0.1,0.1,0.3,0,0.4c-0.3,0.6-0.6,1.3-1,1.9c-1.7,2.7-3.9,4.9-6.6,6.6c-2,1.3-4.1,2.2-6.3,3.3 c-1,0.5-2,1.1-2.9,1.8c-0.8,0.7-0.8,1.2-0.2,2c0.5,0.6,1,1.2,1.6,1.8c0.8,0.8,1.3,1.8,1.6,2.9c0.4,1.5,0.2,3-0.4,4.4 c-0.5,1.5-1.2,2.9-1.9,4.3c0,0.1-0.1,0.2-0.1,0.2c0,0.1-0.1,0.2,0,0.3c0.1,0.1,0.3,0,0.4,0c0.9-0.5,1.8-1,2.7-1.5 c1.5-0.9,3.1-1.9,4.6-2.8c3.2-2,6.2-4.2,9.1-6.6c1.5-1.3,3.1-2.7,4.5-4.1c1.7-1.7,3.2-3.5,4.1-5.8c0.6-1.5,0.8-3.2,0.9-4.8 c0.3-3.8,1-7.5,2.7-11c1.5-3,3.4-5.6,6-7.7c1.3-1,2.5-2.1,3.9-3c0.2-0.1,0.3-0.2,0.5-0.2c0.4-0.1,0.7-0.1,0.9,0.3 c0.2,0.3,0.2,0.7-0.1,1c-0.5,0.7-1.2,1.3-1.8,1.9c-3,2.9-5.2,6.3-6.8,10.2c-0.9,2.4-1.4,4.9-1.6,7.5c-0.1,2-0.2,3.9-0.7,5.8 c-0.5,1.9-1.3,3.6-2.5,5.1c-2,2.6-4.4,4.7-6.8,6.9c-1.9,1.6-3.8,3.1-5.8,4.6c-0.1,0.1-0.3,0.2-0.3,0.4c0.1,0.2,0.3,0.2,0.4,0.1 c2.4-0.5,4.8-0.3,7.2-0.2c1.5,0.1,3,0.1,4.5,0.1c1.6,0,3.2-0.3,4.7-1c1.9-0.9,3.8-1.6,5.8-1.6c1.6,0,2.9-0.8,4-1.9 c1.8-1.9,4-3,6.6-3.2c1-0.1,2-0.4,3.1-0.6c2.5-0.5,4.3-2,5.8-3.9c1.2-1.5,2.1-3.1,3.3-4.6c1.1-1.5,2.6-2.5,4.3-3.2 c0.7-0.3,1.2-0.2,1.4,0.2c0.3,0.4,0.2,0.9-0.5,1.3c-1.7,1.2-2.7,2.9-3.7,4.7c-0.9,1.6-1.9,3.2-3.2,4.6c-1.5,1.7-3.3,2.9-5.4,3.6 c-1.5,0.5-3.1,0.7-4.8,0.9c-1.9,0.1-3.5,1-4.8,2.3c-0.9,0.9-1.9,1.8-3.2,2.2c-0.8,0.3-1.7,0.4-2.6,0.6c-1.6,0.2-3.1,0.6-4.5,1.3 c-2.4,1.2-5,1.5-7.6,1.3c-1.7-0.1-3.4-0.3-5.1-0.5c-0.8-0.1-1.5,0-2.2,0.1c-1.3,0.2-2.7,0-4,0.2c-1.9,0.2-3.8,0.8-5.6,1.4 c-2.1,0.7-3.8,1.9-5.7,2.9c-2.1,1.1-4.2,2.2-6.3,3.2c-2.7,1.3-5.4,2.5-8.2,3.6c-4,1.5-7.9,3.1-12,4.3c-0.6,0.2-1.3,0.4-1.9,0.6 c-0.1,0-0.3,0.1-0.3,0.3c0,0.2,0.1,0.2,0.3,0.2c3.1,0.8,5.7,2.5,8.5,4.1c1.1,0.6,2.3,1.2,3.6,1.5c1.8,0.5,3.5,0.2,5.3-0.1 c1.8-0.3,3.6-0.9,5.4-1.4c3.3-0.9,6.6-1.5,9.9-1.8c1.8-0.1,3.5-0.1,5.3-0.1c2.4,0,4.8,0.1,7.2-0.6c1.4-0.4,2.6-1,3.9-1.7 c0.6-0.3,1.3-0.6,2-0.9c1.9-0.8,3.9-1.4,5.9-1.7c1.4-0.2,2.7-0.5,4.1-0.7c0.6-0.1,1.3-0.1,2-0.1c0.4,0,0.8,0.1,0.8,0.5 c0.1,0.5-0.3,0.6-0.7,0.7c-1.5,0.4-2.9,0.8-4.4,1.1c-1.9,0.4-3.7,0.9-5.4,1.7c-1.6,0.7-3.3,1.5-4.9,2.3c-2.2,1.2-4.5,1.7-7,2 c-1.8,0.2-3.7,0.2-5.5,0.3c-1.6,0.1-3.2,0.3-4.8,0.5c-0.2,0-0.5,0-0.6,0.3s0.2,0.3,0.4,0.4c1.8,1.4,3,3.1,4.1,5 c0.8,1.5,1.4,3.2,2.2,4.8c0.6,1.4,1.2,2.7,2.3,3.9c1,1.2,2.3,1.8,3.8,1.9c1.7,0.1,3.4,0,5-0.2c3-0.4,5.9-0.4,8.9,0.2 c0.6,0.1,1.2,0.2,1.8,0.4c0.4,0.1,0.8,0.4,0.7,0.9c-0.1,0.4-0.4,0.6-1,0.6c-1.4-0.1-2.7-0.1-4.1-0.1c-1.5,0-3,0.2-4.5,0.3 c-2.3,0.2-4.6,0.6-7,0.4c-2.5-0.2-4.5-1.3-6-3.3c-1.4-1.9-2.3-4.1-3.3-6.3c-1-2.2-2-4.3-3.6-6.1c-0.6-0.8-1.4-1.4-2.2-2 c-0.3-0.2-0.5-0.3-0.9-0.2c-1.7,0.5-3.4,0.9-5,1.4c-1.8,0.5-3.7,1-5.5,1.3c-3.5,0.5-6.8-0.3-9.8-2.2c-1.6-1-3.2-2.1-4.8-3.1 c-1.4-0.9-2.8-1.1-4.3-1.2c-2.2-0.1-4.4,0.1-6.5,0.1c-1.9,0-3.4,0.9-5.1,1.5c-4,1.5-7.8,3.2-11.8,4.7c-1.9,0.7-3.8,1.3-5.7,2 c-2.8,1-5.5,2.2-7.9,3.9c-1.8,1.2-3.2,2.7-4.5,4.3c-0.8,1.1-1.6,2.2-2.5,3.2c-0.1,0.2-0.3,0.3-0.2,0.5c0.1,0.3,0.4,0.1,0.6,0.1 c2.7-0.7,5.4-0.6,8.2-0.2c3.6,0.4,7,1.4,10.4,2.7c1.9,0.7,3.8,1.4,5.8,2c3.2,0.8,6.1,0.3,8.8-1.4c3-1.9,6.2-3.3,9.8-3.6 c1.9-0.2,3.7-0.3,5.6-0.5c0.4,0,0.7,0,1,0.1c0.4,0.1,0.7,0.2,0.8,0.6c0,0.5-0.3,0.7-0.7,0.8c-0.4,0.1-0.9,0.2-1.3,0.3 c-2.5,0.4-5,0.8-7.4,1.7c-2.1,0.7-4.1,1.7-6,2.8c-1.6,0.9-3.1,1.9-5,2.3c-1.8,0.4-3.5,0.3-5.3,0.1c-3.5-0.6-6.8-2-10.2-3.1 c-2.6-0.8-5.3-1.5-8.1-1.9c-2.1-0.3-4.2-0.5-6.3-0.3c-0.3,0-0.6,0.1-0.9,0.3c-1.1,0.7-2,1.6-3.2,2.1c-1.1,0.5-2.2,1.1-3.4,1.3 c-0.6,0.1-1,0.5-1.4,0.9c-1.3,1.2-2.3,2.7-3.6,3.9c-0.9,1-1.4,2.2-2.1,3.2c-1.1,1.6-2,3.3-3.2,4.9c-0.5,0.7-0.8,1.6-1.2,2.4 c-0.9,1.8-1.6,3.7-2.3,5.6c-0.4,1-0.8,1.9-1.6,2.6c-1.1,0.8-2.4,0.7-3.4-0.2c-0.8-0.8-0.8-1.8-0.7-2.7c0.1-1.3,0.3-2.6,0.6-3.9 c1.1-4.6,3.2-8.8,6.4-12.3c1.2-1.3,2.3-2.6,3.5-3.8c1.5-1.6,3.2-2.9,5.2-3.7c2.9-1.1,5.2-3,6.9-5.6c0.9-1.3,1.5-2.8,2.3-4.2 c0.7-1.4,1.3-2.8,2.2-4c0.8-1.1,1.8-2,3.1-2.6c0.8-0.4,1.7-0.8,2.5-1.2c1.7-0.8,3-2.1,4.2-3.5c1-1.2,1.1-2.6,1.2-4 c0.1-2.1,0.4-4.3,1.2-6.3c0.7-1.6,1.6-3.1,2.8-4.4c1.9-2.2,4.2-4,6.5-5.8c2.5-2,4.8-4.3,7.2-6.6c1.9-1.9,3.7-3.9,5.6-5.7 c0.1-0.1,0.3-0.3,0.4-0.4c0.4-0.3,0.7-0.4,1.2-0.1c0.3,0.2,0.4,0.8,0.2,1.2c-0.3,0.7-0.8,1.3-1.2,1.9c-1.4,1.9-2.9,3.8-4.3,5.7 c-1.7,2.2-3.7,4-5.9,5.7c-1.7,1.3-3.4,2.5-5,3.8C44.6,79,43,80.8,42.1,83c-0.7,1.7-1,3.5-1,5.3c-0.1,2.3-0.6,4.5-2.3,6.3 c-0.3,0.3-0.7,0.7-1,1C37.9,95.1,37.7,95.2,37.6,95.6z" fill="#000000"/></g><g fill="#000000"><g id="change1_1"><path d="M49.4,49.9c0,1.4,1.2,2.1,2,3c0.5,0.6,1.1,1,1.7,1.5c0.1,0.1,0.3,0.1,0.2,0.3c-0.1,0.1-0.2,0-0.3,0 c-0.8-0.3-1.4-0.9-2-1.6c-0.6-0.6-1.1-1.3-1.5-2c-0.2-0.3-0.5-0.4-0.8-0.5s-0.4-0.3-0.3-0.6c0.1-0.3,0.3-0.5,0.6-0.4 C49.1,49.4,49.3,49.6,49.4,49.9z"/><path d="M51.1,56.4c-1.1-1.3-2.3-2.3-3.7-2.9c-0.2-0.1-0.5-0.2-0.7-0.3s-0.5-0.2-0.8-0.3c-0.1,0-0.1,0-0.2,0 c-0.1-0.1-0.1-0.2-0.2-0.3c-0.2-0.3-0.4-0.3-0.7-0.2s-0.3,0.4-0.2,0.7s0.4,0.4,0.7,0.3c0.1,0,0.2-0.1,0.4-0.1 c0.1,0,0.1,0,0.2,0.1c0.2,0.1,0.5,0.2,0.7,0.3l0,0c0.4,0.2,0.8,0.4,1.1,0.6c1.1,0.7,2.1,1.6,3.2,2.5c0.1,0.1,0.3,0.3,0.4,0.1 C51.4,56.7,51.2,56.6,51.1,56.4z"/><path d="M49.1,58.5c-0.3-0.1-0.5-0.3-0.8-0.4C48.2,58,48.1,58,48,57.9s-0.3-0.1-0.4-0.1c-0.3-0.1-0.6-0.1-0.9-0.2 c-0.4-0.1-0.9-0.1-1.4-0.1c-0.1-0.2-0.3-0.3-0.5-0.2s-0.4,0.3-0.3,0.5c0.1,0.2,0.3,0.3,0.5,0.2c0.1,0,0.2-0.1,0.2-0.1 c0.5,0,0.9,0.1,1.4,0.1c0.1,0,0.2,0.1,0.4,0.1c0.7,0.3,1.4,0.5,2.1,0.8c0.1,0,0.2,0,0.2-0.1C49.2,58.6,49.2,58.5,49.1,58.5z"/></g><g id="change1_4"><path d="M138.5,1.3c-1.2,1.9-0.1,3.8,0.1,5.7c0.2,1.2,0.7,2.3,1,3.4c0.1,0.2,0.2,0.4,0,0.5s-0.3-0.1-0.4-0.3 c-0.8-1.1-1.1-2.5-1.3-3.8s-0.3-2.7-0.3-4c0-0.6-0.4-1-0.6-1.4c-0.3-0.4-0.3-0.8,0.1-1.1c0.3-0.3,0.7-0.4,1.1-0.1 C138.5,0.4,138.6,0.8,138.5,1.3z"/><path d="M135.2,11.6c-0.3-2.6-1.1-5-2.5-7.1c-0.2-0.4-0.4-0.7-0.7-1.1c-0.2-0.3-0.5-0.7-0.8-1 c-0.1-0.1-0.2-0.2-0.2-0.2c0-0.2,0-0.4,0-0.6c0-0.5-0.3-0.8-0.8-0.9c-0.5,0-0.8,0.2-0.9,0.7c-0.1,0.5,0.2,0.8,0.7,1 c0.2,0,0.4,0.1,0.6,0.1c0.1,0.1,0.1,0.2,0.2,0.2c0.3,0.3,0.5,0.7,0.8,1c0,0,0,0,0,0.1c0.3,0.6,0.7,1.2,1,1.8c0.9,2,1.5,4,2.1,6.1 c0.1,0.2,0.1,0.6,0.5,0.6C135.4,12.2,135.3,11.8,135.2,11.6z"/><path d="M130.7,12.6c-0.2-0.4-0.5-0.8-0.7-1.2c-0.1-0.2-0.2-0.4-0.3-0.6c-0.1-0.2-0.3-0.4-0.4-0.5 c-0.3-0.4-0.6-0.7-1-1c-0.5-0.5-1.1-0.9-1.7-1.3c0-0.4-0.2-0.7-0.5-0.8c-0.4-0.1-0.7,0-0.8,0.4c-0.1,0.4,0.1,0.6,0.5,0.7 c0.1,0,0.3,0,0.4,0c0.6,0.4,1.2,0.9,1.7,1.4c0.1,0.1,0.3,0.3,0.4,0.4c0.7,0.9,1.4,1.9,2.1,2.8c0.1,0.1,0.2,0.2,0.3,0.1 C130.9,12.9,130.8,12.7,130.7,12.6z"/></g><g id="change1_5"><path d="M160.9,27.6c1.4,1.5,0.8,3.3,0.8,5.1c0,1.1-0.2,2.1-0.3,3.2c0,0.2-0.1,0.4,0.1,0.5c0.2,0.1,0.3-0.2,0.3-0.3 c0.5-1.1,0.6-2.4,0.5-3.6c0-1.2-0.2-2.4-0.4-3.6c-0.1-0.5,0.2-0.9,0.3-1.3c0.2-0.4,0.1-0.8-0.3-1c-0.3-0.2-0.7-0.2-1,0.1 C160.8,26.9,160.7,27.2,160.9,27.6z"/><path d="M165.6,36.2c-0.1-2.3,0.1-4.6,1.1-6.7c0.1-0.4,0.3-0.7,0.4-1.1c0.2-0.3,0.3-0.7,0.5-1 c0.1-0.1,0.1-0.2,0.2-0.3c0-0.2-0.1-0.3-0.1-0.5c-0.1-0.5,0.1-0.8,0.6-0.9c0.4-0.1,0.7,0.1,0.9,0.5s0,0.8-0.4,1 c-0.2,0.1-0.3,0.1-0.5,0.2c0,0.1-0.1,0.2-0.1,0.2c-0.2,0.3-0.4,0.7-0.5,1c0,0,0,0,0,0.1c-0.2,0.6-0.4,1.1-0.6,1.7 c-0.5,1.9-0.6,3.8-0.8,5.7c0,0.2,0,0.6-0.3,0.6C165.5,36.7,165.6,36.4,165.6,36.2z"/><path d="M169.7,36.3c0.1-0.4,0.3-0.8,0.4-1.1c0-0.2,0.1-0.4,0.1-0.6c0.1-0.2,0.2-0.4,0.3-0.5 c0.2-0.4,0.5-0.7,0.7-1.1c0.4-0.5,0.8-1,1.3-1.5c0-0.3,0-0.6,0.3-0.8c0.3-0.2,0.6-0.1,0.8,0.2c0.2,0.3,0,0.6-0.3,0.7 c-0.1,0.1-0.3,0.1-0.4,0.1c-0.5,0.5-0.9,1-1.3,1.5c-0.1,0.1-0.2,0.3-0.3,0.4c-0.5,0.9-0.9,1.9-1.4,2.8c-0.1,0.1-0.2,0.2-0.3,0.1 C169.6,36.5,169.6,36.4,169.7,36.3z"/></g><g id="change1_6"><path d="M148.5,84.8c-0.8-0.7-1.8-0.3-2.7-0.2c-0.6,0-1.1,0.2-1.7,0.3c-0.1,0-0.2,0.1-0.2,0s0.1-0.2,0.1-0.2 c0.6-0.3,1.2-0.4,1.9-0.5c0.6-0.1,1.3,0,1.9,0.1c0.3,0,0.5-0.1,0.7-0.2s0.4-0.1,0.5,0.1s0.2,0.4,0,0.5 C148.9,84.9,148.7,84.9,148.5,84.8z"/><path d="M143.7,82.8c1.2,0,2.4-0.3,3.5-0.9c0.2-0.1,0.4-0.2,0.6-0.3c0.2-0.1,0.4-0.2,0.5-0.3l0.1-0.1 c0.1,0,0.2,0,0.3,0c0.2,0,0.4-0.1,0.4-0.3c0-0.2-0.1-0.4-0.3-0.4c-0.2-0.1-0.4,0.1-0.5,0.3c0,0.1-0.1,0.2-0.1,0.3l-0.1,0.1 c-0.2,0.1-0.3,0.2-0.5,0.3l0,0c-0.3,0.1-0.6,0.3-0.9,0.4c-1,0.3-2,0.5-3,0.7c-0.1,0-0.3,0-0.3,0.2 C143.5,82.8,143.6,82.8,143.7,82.8z"/><path d="M143.5,80.6c0.2-0.1,0.4-0.2,0.6-0.3c0.1,0,0.2-0.1,0.3-0.1s0.2-0.1,0.3-0.2c0.2-0.1,0.4-0.3,0.5-0.4 c0.3-0.2,0.5-0.5,0.7-0.7c0.2,0,0.3-0.1,0.4-0.2c0.1-0.2,0-0.3-0.2-0.4s-0.3,0-0.4,0.2c0,0.1,0,0.1,0,0.2 c-0.2,0.3-0.5,0.5-0.7,0.7c-0.1,0.1-0.1,0.1-0.2,0.2c-0.5,0.3-0.9,0.6-1.4,0.9c-0.1,0-0.1,0.1-0.1,0.2 C143.4,80.7,143.4,80.6,143.5,80.6z"/></g><g id="change1_2"><path d="M67.7,99c0.9,0.5,1,1.5,1.3,2.4c0.2,0.5,0.3,1.1,0.4,1.6c0,0.1,0,0.2,0.1,0.2s0.1-0.1,0.1-0.2 c0.1-0.7-0.1-1.3-0.3-1.9c-0.2-0.6-0.5-1.2-0.8-1.7c-0.1-0.2-0.1-0.5-0.1-0.7s-0.1-0.4-0.3-0.4c-0.2,0-0.4,0-0.5,0.2 C67.5,98.6,67.5,98.8,67.7,99z"/><path d="M71.5,102.4c-0.5-1.1-0.7-2.3-0.6-3.5c0-0.2,0-0.4,0-0.6s0-0.4,0.1-0.6c0-0.1,0-0.1,0-0.2s-0.1-0.2-0.1-0.2 c-0.1-0.2-0.1-0.4,0.1-0.5s0.4-0.1,0.5,0.1c0.2,0.2,0.1,0.4-0.1,0.6c-0.1,0.1-0.1,0.1-0.2,0.2v0.1c0,0.2-0.1,0.4-0.1,0.6l0,0 c0,0.3,0,0.6,0,1c0.1,1,0.3,2,0.6,3c0,0.1,0.1,0.3-0.1,0.3C71.6,102.7,71.5,102.5,71.5,102.4z"/><path d="M73.5,101.8c0-0.2,0-0.4,0-0.6c0-0.1,0-0.2,0-0.3c0-0.1,0-0.2,0-0.3c0-0.2,0.1-0.4,0.2-0.6 c0.1-0.3,0.2-0.6,0.4-1c-0.1-0.2-0.1-0.3,0-0.4s0.3-0.2,0.5,0c0.1,0.1,0.1,0.3,0,0.4c-0.1,0-0.1,0.1-0.2,0.1 c-0.2,0.3-0.3,0.6-0.4,1c0,0.1,0,0.2-0.1,0.3c-0.1,0.5-0.1,1.1-0.2,1.6c0,0.1,0,0.1-0.1,0.1C73.6,101.9,73.5,101.9,73.5,101.8z"/></g></g></g><g fill="#f4c86b"><g id="change2_2"><path d="M52.2,58.5c0.6,0.5,1.1,1.1,1.7,1.6c0.4,0.4,0.9,0.8,1.3,1.2c0.7,0.7,0.5,1.7-0.5,1.9 c-0.5,0.1-1.1,0.2-1.6,0.2c-1.7-0.1-3.4-0.5-4.9-1.5c-0.5-0.4-0.9-0.8-1.3-1.3c-0.6-0.8-0.4-1.7,0.4-2.3c0.7-0.4,0.7-0.5,0.5-1.3 c-0.2-0.6-0.3-1.1-0.2-1.7c0.1-1,0.8-1.5,1.8-1.5c1.1,0.1,1.2,0.1,1.6-1c0.8-1.9,2.3-1.5,3.3-0.6c0.7,0.7,1.1,1.5,1.5,2.4 c0.8,1.6,1.4,3.3,1.2,5.2c0,0.5-0.2,1-0.4,1.5c0,0.1-0.1,0.2-0.2,0.2c-0.1,0-0.1-0.1-0.1-0.2c0-0.2,0-0.3,0-0.5 c0-1.3-0.5-2.5-1-3.7c0-0.1-0.1-0.2-0.2-0.3c-0.2,0.2,0,0.3,0,0.4c0.2,0.8,0.4,1.6,0.7,2.5c0.1,0.3,0.1,0.5,0.2,0.8 c0,0.3,0.1,0.8-0.2,0.9c-0.3,0.1-0.5-0.3-0.6-0.5C54.3,59.9,53.4,59.1,52.2,58.5C52.2,58.4,52.2,58.5,52.2,58.5z M52.6,61.9 L52.6,61.9c0.4,0.3,0.8,0.4,1.3,0.3C53.4,62.2,53,62.1,52.6,61.9z"/><path d="M58.4,55.5c-0.1,0.4,0,0.7,0,1c0,1.4-0.2,2.9-0.8,4.2c-0.1,0.1-0.1,0.3-0.2,0.3c-0.2,0-0.1-0.2-0.1-0.4 c0.1-0.8,0.3-1.6,0.3-2.4c-0.1-2.5-1.2-4.4-2.8-6.2c-0.3-0.3-0.6-0.7-0.7-1.1c-0.2-0.7,0.1-1.1,0.8-1.1c0.4,0,0.5-0.1,0.5-0.5 c0-0.6,0.3-0.8,0.9-0.7c0.2,0,0.4,0,0.5-0.2c0.4-0.5,0.7-0.5,1.2-0.1s0.8,1,1.1,1.6c0.7,1.9,1.1,3.8,0.9,5.9 c0,0.5-0.1,0.9-0.4,1.3c-0.3,0.4-0.4,0.9-0.5,1.4c0,0.1,0,0.2-0.1,0.3c-0.1,0.2-0.2,0.7-0.5,0.7c-0.3-0.1,0-0.4,0.1-0.7 c0.1-0.8,0.1-1.6,0.2-2.4C58.6,56,58.6,55.7,58.4,55.5z"/><path d="M54.8,64.1c-0.3,0.5-0.7,0.7-1.2,0.8c-0.3,0.1-0.7,0.2-1,0.3c-2.4,1-4.8,0.8-7.1-0.3c-0.6-0.3-1-0.7-1.3-1.3 c-0.3-0.5-0.3-0.9,0.1-1.4c0.1-0.1,0.1-0.1,0.1-0.2c0.1-0.8,0.8-0.7,1.2-0.9c0.2-0.1,0.4,0.1,0.6,0.2c1.5,1.5,3.4,1.9,5.4,2.3 c0.5,0.1,1.1,0,1.6,0.5c0.2,0.2,0.6,0,0.9,0C54.3,64.1,54.5,64,54.8,64.1z"/></g><g id="change2_1"><path d="M134.9,15.2c0.3,1.2,0.6,2.4,0.9,3.6c0.2,0.9,0.5,1.8,0.7,2.7c0.3,1.5-0.8,2.6-2.3,2.1 c-0.8-0.3-1.6-0.6-2.3-1.1c-2.2-1.7-4.2-3.5-5.2-6.2c-0.4-0.9-0.6-1.9-0.7-2.8c-0.2-1.6,0.9-2.7,2.5-2.7c1.3,0,1.4-0.1,1.8-1.3 c0.3-0.9,0.6-1.8,1.2-2.5c1-1.2,2.4-1.4,3.7-0.4c1.5,1.1,1.5,1.1,3,0.1c2.6-1.8,4.4,0,4.9,2c0.4,1.5,0.1,3,0,4.4 c-0.3,2.9-1,5.7-2.8,8c-0.5,0.7-1.1,1.2-1.8,1.7c-0.1,0.1-0.2,0.2-0.4,0.1c-0.1-0.1-0.1-0.3,0-0.4c0.1-0.2,0.3-0.5,0.4-0.7 c1.1-1.8,1.5-3.8,1.9-5.8c0-0.2,0-0.3,0-0.5c-0.3,0.1-0.3,0.4-0.4,0.6c-0.4,1.3-0.8,2.6-1.2,3.9c-0.1,0.4-0.3,0.9-0.5,1.2 c-0.2,0.5-0.6,1.1-1.1,1.1c-0.5-0.1-0.4-0.8-0.4-1.2c-0.3-2-0.9-4-1.7-5.8C135,15.2,134.9,15.2,134.9,15.2z M132.4,20.2 c-0.1,0.1-0.1,0.1-0.2,0.2c0.4,0.6,0.8,1.1,1.5,1.4C133.3,21.2,132.9,20.7,132.4,20.2z"/><path d="M145.8,16.5c-0.5,0.4-0.6,0.9-0.9,1.3c-1.3,1.9-2.7,3.7-4.7,5c-0.2,0.1-0.4,0.4-0.6,0.2 c-0.3-0.3,0-0.4,0.2-0.6c0.8-1,1.8-1.8,2.5-3c1.9-3.4,2.2-7,1.5-10.7c-0.1-0.7-0.2-1.4,0-2.1c0.3-1.1,1.1-1.4,2-0.7 c0.5,0.4,0.7,0.3,1.1-0.2c0.6-0.8,1.1-0.8,1.8-0.1c0.3,0.2,0.5,0.4,0.9,0.2c0.9-0.3,1.4-0.1,1.7,0.8c0.3,1,0.3,2,0.1,3 c-0.8,3.1-1.8,6.1-3.9,8.6c-0.5,0.6-0.9,1.1-1.6,1.4c-0.7,0.3-1.3,0.8-1.8,1.4c-0.1,0.1-0.2,0.2-0.3,0.3c-0.4,0.2-0.9,0.8-1.2,0.5 c-0.3-0.4,0.4-0.5,0.7-0.9c0.8-1,1.6-2.1,2.3-3.1C145.7,17.4,145.9,17,145.8,16.5z"/><path d="M133.5,25c-0.8,0.4-1.5,0.3-2.2,0.1c-0.5-0.2-1.1-0.3-1.6-0.4c-4-0.8-7.1-3-9.3-6.4c-0.5-0.8-0.7-1.8-0.7-2.8 s0.4-1.5,1.3-1.8c0.1,0,0.3-0.1,0.4-0.2c0.7-1,1.6-0.3,2.4-0.2c0.4,0,0.5,0.5,0.6,0.8c0.7,3.3,3,5.4,5.2,7.7 c0.6,0.6,1.5,1,1.6,2.1c0.1,0.5,0.8,0.6,1.3,0.8C132.9,24.6,133.3,24.7,133.5,25z"/></g><g id="change2_4"><path d="M166.3,39.3c-0.4,1.8-0.6,3.6-0.5,5.4c0,0.4,0.3,1-0.2,1.1s-0.9-0.4-1.2-0.8c-0.2-0.3-0.4-0.7-0.6-1 c-0.6-1.1-1.1-2.1-1.7-3.2c-0.1-0.2-0.1-0.4-0.4-0.5c0,0.2,0,0.3,0.1,0.5c0.7,1.7,1.4,3.4,2.7,4.8c0.2,0.2,0.3,0.4,0.5,0.6 c0.1,0.1,0.1,0.2,0.1,0.3c-0.1,0.1-0.2,0.1-0.3,0c-0.7-0.3-1.3-0.7-1.9-1.2c-2-1.8-3.1-4.1-3.8-6.6c-0.4-1.3-0.9-2.5-0.8-3.9 c0.1-1.8,1.4-3.7,4-2.6c1.5,0.7,1.6,0.6,2.7-0.6c1-1.1,2.2-1.1,3.3-0.2c0.7,0.5,1.1,1.3,1.5,2c0.5,1,0.7,1.1,1.8,0.8 c1.4-0.3,2.5,0.5,2.7,1.9c0.1,0.9,0,1.7-0.1,2.6c-0.5,2.5-1.9,4.5-3.6,6.3c-0.5,0.6-1.1,1-1.8,1.4c-1.3,0.7-2.4-0.1-2.4-1.5 c0-0.8,0.1-1.7,0.1-2.5c0.1-1.1,0.1-2.2,0.2-3.3C166.4,39.3,166.3,39.3,166.3,39.3z M168.6,44.9c0.5-0.4,0.8-0.9,1.1-1.5 c-0.1,0-0.1-0.1-0.2-0.1C169.2,43.8,168.9,44.4,168.6,44.9z"/><path d="M157.1,42.3c0.5,0.3,0.7,0.7,1,1c1.5,1.5,3,2.8,5,3.6c0.2,0.1,0.4,0.3,0.5,0.1c0.2-0.3-0.1-0.4-0.3-0.5 c-0.9-0.8-1.9-1.3-2.7-2.2c-2.3-2.7-3.1-5.8-3.1-9.2c0-0.6,0-1.3-0.3-1.9c-0.5-0.9-1.2-1.1-1.9-0.3c-0.4,0.4-0.6,0.4-1,0 c-0.6-0.6-1.1-0.5-1.6,0.2c-0.2,0.3-0.4,0.4-0.7,0.4c-0.9-0.1-1.2,0.2-1.3,1c-0.1,0.9,0.1,1.8,0.5,2.7c1.2,2.6,2.7,5,4.9,6.9 c0.5,0.4,1,0.8,1.6,1c0.7,0.2,1.3,0.5,1.8,0.9c0.1,0.1,0.2,0.2,0.3,0.2c0.4,0.1,0.9,0.6,1.1,0.2c0.2-0.4-0.5-0.4-0.7-0.6 c-0.9-0.8-1.7-1.5-2.6-2.3C157.3,43.1,157.1,42.8,157.1,42.3z"/><path d="M169.3,47.7c0.7,0.3,1.4,0,2-0.3c0.4-0.3,0.9-0.4,1.4-0.6c3.4-1.4,5.8-3.8,7.1-7.2c0.3-0.8,0.3-1.7,0.1-2.6 c-0.2-0.9-0.6-1.2-1.5-1.4c-0.1,0-0.3,0-0.4-0.1c-0.8-0.7-1.5,0-2.2,0.2c-0.3,0.1-0.4,0.5-0.4,0.8c-0.1,3-1.7,5.3-3.3,7.7 c-0.4,0.6-1.1,1.1-1.1,2.1c0,0.4-0.6,0.7-1,0.9C169.8,47.3,169.5,47.4,169.3,47.7z"/></g><g id="change2_3"><path d="M142,82.4c-0.6,0.1-1.2,0.2-1.7,0.3c-0.4,0.1-0.9,0.1-1.3,0.2c-0.7,0.1-1.2-0.5-0.9-1.2 c0.2-0.4,0.4-0.7,0.6-1c0.9-1,1.9-1.8,3.2-2.2c0.4-0.1,0.9-0.2,1.4-0.2c0.8,0,1.2,0.5,1.1,1.3c-0.1,0.6,0,0.7,0.5,0.9 c0.4,0.2,0.8,0.4,1.1,0.7c0.5,0.5,0.5,1.2,0,1.7c-0.6,0.6-0.6,0.7-0.2,1.4c0.7,1.3-0.2,2.1-1.2,2.2c-0.7,0.1-1.4-0.1-2.1-0.2 c-1.3-0.3-2.6-0.7-3.7-1.7c-0.3-0.3-0.5-0.6-0.7-0.9c0-0.1-0.1-0.1,0-0.2s0.1,0,0.2,0c0.1,0.1,0.2,0.2,0.3,0.2 c0.8,0.6,1.7,0.9,2.6,1.2c0.1,0,0.2,0,0.3,0c0-0.2-0.2-0.2-0.3-0.2c-0.6-0.3-1.2-0.5-1.8-0.8c-0.2-0.1-0.4-0.2-0.6-0.3 c-0.2-0.1-0.5-0.3-0.5-0.6c0.1-0.2,0.4-0.1,0.6-0.1c1-0.1,1.9-0.2,2.8-0.5C142,82.5,142,82.5,142,82.4z M139.8,81L139.8,81 c-0.4,0.1-0.6,0.3-0.8,0.5C139.3,81.4,139.6,81.2,139.8,81z"/><path d="M140.9,87.5c-0.2-0.2-0.4-0.3-0.6-0.5c-0.8-0.7-1.6-1.5-2.1-2.4c0-0.1-0.2-0.2-0.1-0.3c0.1-0.1,0.2,0,0.3,0.1 c0.4,0.4,0.8,0.9,1.3,1.3c1.5,1.1,3.2,1.4,5,1.2c0.3,0,0.7,0,1,0.1c0.5,0.2,0.6,0.6,0.3,1c-0.2,0.2-0.2,0.3,0,0.5 c0.3,0.3,0.3,0.5,0,0.8c-0.1,0.1-0.2,0.2-0.2,0.4c0.1,0.4,0,0.7-0.5,0.7c-0.5,0.1-1,0-1.4-0.1c-1.4-0.5-2.8-1.2-3.9-2.2 c-0.2-0.2-0.5-0.5-0.6-0.8c-0.1-0.4-0.3-0.7-0.6-0.9c0,0-0.1-0.1-0.1-0.2c-0.1-0.2-0.3-0.5-0.2-0.6c0.2-0.1,0.2,0.2,0.4,0.3 c0.5,0.4,0.9,0.8,1.4,1.2C140.5,87.4,140.7,87.5,140.9,87.5z"/><path d="M137.5,81.3c-0.2-0.4-0.1-0.7,0.1-1.1c0.1-0.2,0.2-0.5,0.3-0.7c0.6-1.9,1.7-3.2,3.5-4.1 c0.4-0.2,0.9-0.2,1.3-0.2c0.5,0,0.7,0.3,0.8,0.7c0,0.1,0,0.1,0.1,0.2c0.4,0.4,0,0.8,0,1.2c0,0.2-0.3,0.2-0.4,0.2 c-1.6,0.2-2.7,1.2-3.9,2.1c-0.3,0.3-0.5,0.6-1,0.7c-0.2,0-0.3,0.4-0.4,0.6C137.7,81.1,137.7,81.2,137.5,81.3z"/></g><g id="change2_5"><path d="M72.4,103.9c0.1,1,0.3,1.9,0.7,2.8c0.1,0.2,0.3,0.5,0.1,0.6c-0.2,0.2-0.5,0-0.7-0.2c-0.2-0.1-0.3-0.3-0.5-0.4 c-0.5-0.4-0.9-0.9-1.4-1.3c-0.1-0.1-0.1-0.2-0.3-0.1c0,0.1,0.1,0.2,0.1,0.2c0.6,0.7,1.3,1.5,2.1,1.9c0.1,0.1,0.2,0.1,0.3,0.2 c0.1,0,0.1,0.1,0.1,0.2s-0.1,0.1-0.2,0.1c-0.4,0-0.8-0.1-1.1-0.3c-1.3-0.6-2.2-1.5-3-2.6c-0.4-0.6-0.9-1.1-1.1-1.8 c-0.2-0.9,0-2.1,1.6-2c0.9,0.1,0.9,0,1.2-0.8c0.3-0.7,0.9-0.9,1.6-0.7c0.4,0.2,0.8,0.4,1.1,0.7c0.4,0.4,0.5,0.4,1.1,0.1 c0.7-0.4,1.3-0.2,1.7,0.5c0.2,0.4,0.3,0.9,0.4,1.3c0.2,1.3-0.2,2.6-0.7,3.8c-0.2,0.4-0.4,0.7-0.7,1c-0.5,0.5-1.2,0.4-1.5-0.3 c-0.1-0.4-0.2-0.9-0.4-1.3C72.8,105,72.6,104.4,72.4,103.9L72.4,103.9z M74.5,106.3c0.2-0.3,0.3-0.6,0.3-0.9h-0.1 C74.6,105.6,74.5,106,74.5,106.3z"/><path d="M68.3,106.9c0.3,0.1,0.5,0.2,0.7,0.3c1,0.5,2,0.9,3.1,0.9c0.1,0,0.2,0.1,0.3-0.1c0.1-0.2-0.1-0.2-0.2-0.2 c-0.6-0.2-1.2-0.3-1.7-0.6c-1.6-0.9-2.6-2.4-3.1-4.1c-0.1-0.3-0.2-0.6-0.5-0.9c-0.4-0.4-0.8-0.3-1,0.2c-0.1,0.3-0.2,0.3-0.5,0.2 c-0.4-0.2-0.6-0.1-0.8,0.4c0,0.2-0.1,0.3-0.3,0.3c-0.5,0.1-0.6,0.3-0.5,0.7c0.1,0.5,0.3,0.9,0.7,1.3c1,1.1,2.2,2.1,3.6,2.6 c0.3,0.1,0.6,0.2,1,0.2s0.7,0,1.1,0.1c0.1,0,0.1,0,0.2,0c0.2,0,0.6,0.1,0.6-0.1s-0.3-0.1-0.5-0.2c-0.6-0.2-1.1-0.5-1.7-0.7 C68.5,107.3,68.4,107.2,68.3,106.9z"/><path d="M75.3,107.6c0.4,0,0.7-0.2,0.9-0.5c0.2-0.2,0.4-0.4,0.6-0.5c1.5-1.3,2.2-2.9,2.3-4.8c0-0.5-0.2-0.9-0.4-1.3 c-0.2-0.4-0.5-0.5-1-0.4c-0.1,0-0.1,0-0.2,0c-0.5-0.2-0.7,0.3-1.1,0.5c-0.1,0.1-0.1,0.3,0,0.5c0.5,1.5,0,3-0.3,4.4 c-0.1,0.4-0.4,0.8-0.2,1.2c0.1,0.2-0.2,0.4-0.4,0.6C75.5,107.3,75.4,107.4,75.3,107.6z"/></g></g></svg>