<?xml version="1.0" encoding="UTF-8" standalone="no"?><svg xmlns="http://www.w3.org/2000/svg" xmlns:xlink="http://www.w3.org/1999/xlink" data-name="Layer 1" fill="#000000" height="1178.8" preserveAspectRatio="xMidYMid meet" version="1" viewBox="95.8 910.6 2808.4 1178.8" width="2808.4" zoomAndPan="magnify"><g id="change1_1"><path d="M370 1044H2630V1956H370z" fill="#000000"/></g><g id="change2_1"><path d="M2545,1871H455V1129H2545ZM485,1841H2515V1159H485Z" fill="#fed76d"/></g><g id="change2_2"><path d="M2678.3,1277.4c-2,0-3.93-.05-5.85-.16a109.54,109.54,0,0,1-41.87-10.68,81.14,81.14,0,0,1-27.36-21.41l-4.14-5.09-5.87,2.91a147.06,147.06,0,0,1-32.18,11.58,141.45,141.45,0,0,1-31.72,3.69c-1.17,0-2.34,0-3.51,0a140.91,140.91,0,0,1-32.67-4.77,148.05,148.05,0,0,1-30.89-12.18,146.34,146.34,0,0,1-22.69-14.92l-5.32-4.25-5.16,4.45a108.25,108.25,0,0,1-72,26.75c-3.62,0-7.27-.18-10.87-.53a134.68,134.68,0,0,1-36.95-9l-3.21-1.28-3.15,1.4a147.64,147.64,0,0,1-60.27,12.89,140.05,140.05,0,0,1-18.49-1.22,146.25,146.25,0,0,1-46.83-14.47,151.65,151.65,0,0,1-30.66-20.8,142.33,142.33,0,0,1-11.84-11.56c3,.8,6.29,1.47,9.81,2l.31,0,.2,0,1.22.14c1,.1,1.93.19,2.89.26,2.06.15,4.15.24,6.2.25h.34c2.12,0,4.26-.08,6.36-.24.91-.07,1.81-.17,2.72-.26l1.54-.17.09,0,1.56-.25a79.23,79.23,0,0,0,15.46-4.3l1.12-.45.77-.35,1-.46c1.26-.59,2.52-1.22,3.74-1.87,2.15-1.15,4.28-2.41,6.32-3.75,1.05-.69,2.09-1.42,3.1-2.16a3.33,3.33,0,0,0,.32-.24l.13-.05,1.14-.91c1.69-1.36,3.38-2.83,5-4.37a82.64,82.64,0,0,0,7.74-8.43l.23-.3s.51-.67.62-.83c.44-.59.87-1.18,1.29-1.78.85-1.22,1.68-2.47,2.46-3.73s1.5-2.47,2.23-3.79l1-1.82,0-2.08a86.22,86.22,0,0,1,4-25.93,77.8,77.8,0,0,1,15.22-27,88.11,88.11,0,0,1,19.81-16.54,163.16,163.16,0,0,1,43.1-19.68l6.44-1.82-.48-6.68a81.79,81.79,0,0,1,1.5-22.83c4.3-20.27,17.57-38.3,36.42-49.45a95.06,95.06,0,0,1,48.32-13.53h1.6l5.59.1,2.29-5.53a100.77,100.77,0,0,1,25.19-36.27,94.82,94.82,0,0,1,56.26-24.24c2.94-.26,6-.4,9.23-.4,3.36,0,6.8.15,10.53.44a123.61,123.61,0,0,1,27.57,5.06,130.48,130.48,0,0,1,40,20.69c2,1.53,3.82,3,5.52,4.37l2.28,1.88h6.29a148.57,148.57,0,0,1,49,10A145,145,0,0,1,2681,987.77a137.24,137.24,0,0,1,29.59,37.74,147.65,147.65,0,0,1,15.56,45.4,154.42,154.42,0,0,1,2.2,24.76,141.23,141.23,0,0,1-1,17.09l-1,8.44,8.47.7a107.46,107.46,0,0,1,12.15,1.67c9.58,1.89,23.2,6.39,33.71,17.12a49.86,49.86,0,0,1,6.9,8.82,61.29,61.29,0,0,1,4.58,9.59c1,2.66,1.95,5.4,2.91,8.3,1.06,3.2,2.16,6.51,3.49,9.81l.09.21a63.59,63.59,0,0,0,7.19,12.54l.09.12.1.11a62.2,62.2,0,0,0,9.84,9.75l.2.15a80.9,80.9,0,0,0,15.9,9.09l.16.06c1.9.79,3.84,1.52,5.74,2.18a145.14,145.14,0,0,0,27.24,6.29h.09a248.23,248.23,0,0,0,29.18,1.91,90.69,90.69,0,0,1-15.33,15.62,88.61,88.61,0,0,1-12.78,8.55,86.19,86.19,0,0,1-16.09,6.67,88.13,88.13,0,0,1-25.31,3.59h0c-1.72,0-3.47,0-5.19-.14a138.41,138.41,0,0,1-22.33-3.3,119.61,119.61,0,0,1-23.14-7.68l-4.71-2.1-3.94,3.34c-1.94,1.64-4,3.31-6.35,5.11a137.79,137.79,0,0,1-41.9,21.85,135,135,0,0,1-23.77,5.23A117.55,117.55,0,0,1,2678.3,1277.4Z" fill="#fed76d"/></g><g id="change1_2"><path d="M2903.89,1220.15a5.61,5.61,0,0,0,.3-2.09c0-.12,0-.24,0-.36a7.35,7.35,0,0,0-.21-1.4,6.8,6.8,0,0,0-3.05-4l-.37-.18a6.59,6.59,0,0,0-2.32-.69,6.4,6.4,0,0,0-1.16,0,246.54,246.54,0,0,1-30.84-1.86,137.25,137.25,0,0,1-25.7-5.92c-1.79-.62-3.55-1.29-5.3-2a72.31,72.31,0,0,1-14.28-8.15,54.23,54.23,0,0,1-8.55-8.45,56,56,0,0,1-6.25-10.92c-2.39-5.92-4-12.11-6.38-18.05a68.19,68.19,0,0,0-5.22-10.86,57.47,57.47,0,0,0-8-10.28c-10.16-10.37-23.86-16.65-38-19.43a117,117,0,0,0-13.07-1.8,149.57,149.57,0,0,0,1.06-18.08,161.74,161.74,0,0,0-2.31-26.08,156.9,156.9,0,0,0-16.41-47.92,144.57,144.57,0,0,0-31.39-40,153.49,153.49,0,0,0-45.94-27.82,157.67,157.67,0,0,0-51.66-10.59c-1.2,0-2.42,0-3.64,0-1.89-1.56-3.83-3.09-5.79-4.57a139.39,139.39,0,0,0-42.49-22,132.77,132.77,0,0,0-29.38-5.41,126.46,126.46,0,0,0-21.14,0,103,103,0,0,0-61,26.32,109.53,109.53,0,0,0-27.25,39.19c-.06.13-.11.26-.17.4a103.09,103.09,0,0,0-54.25,14.65c-20.27,12-35.35,31.59-40.26,54.82a89.28,89.28,0,0,0-1.66,25.13,171.48,171.48,0,0,0-45.27,20.65,96.88,96.88,0,0,0-21.63,18.11,86.53,86.53,0,0,0-16.82,29.87,95.15,95.15,0,0,0-4.45,28.39c-.63,1.16-1.3,2.3-2,3.42s-1.45,2.26-2.22,3.37c-.38.54-.77,1.07-1.16,1.6-.18.25-.37.49-.55.73a1.83,1.83,0,0,1-.13.16,74.74,74.74,0,0,1-7,7.6c-1.45,1.37-3,2.69-4.52,3.94l-.15.12a6.42,6.42,0,0,0-1.11.83c-.91.67-1.84,1.31-2.78,1.93q-2.76,1.82-5.67,3.37c-1.1.58-2.22,1.14-3.35,1.67l-1.58.71-.87.35a70.71,70.71,0,0,1-13.84,3.85c-.5.09-1,.17-1.51.24a4.63,4.63,0,0,0-.7.09c-1,.1-2,.21-2.94.28q-3,.24-6.05.22c-1.87,0-3.75-.08-5.62-.22-.87-.07-1.75-.15-2.62-.24l-1.16-.14H2146a81,81,0,0,1-14.24-3.45,6.65,6.65,0,0,0-7.48,3,7,7,0,0,0,1,8,146.56,146.56,0,0,0,16,16.2,159.27,159.27,0,0,0,32.33,21.93,153.11,153.11,0,0,0,101,13.24,156.82,156.82,0,0,0,31.6-10.26,142.45,142.45,0,0,0,39.2,9.57,116.94,116.94,0,0,0,89-28.18,153.58,153.58,0,0,0,24,15.77,156.51,156.51,0,0,0,32.59,12.85,150.28,150.28,0,0,0,34.58,5.05,148.67,148.67,0,0,0,37.3-3.85,155.06,155.06,0,0,0,34-12.23,88.88,88.88,0,0,0,30.14,23.62,118.27,118.27,0,0,0,45,11.49,119.56,119.56,0,0,0,22.61-.93,143.89,143.89,0,0,0,25.2-5.55,146.58,146.58,0,0,0,44.39-23.16q3.39-2.6,6.66-5.35a127.79,127.79,0,0,0,24.72,8.2,148.62,148.62,0,0,0,23.64,3.48,98.06,98.06,0,0,0,33.3-3.79,94.68,94.68,0,0,0,17.64-7.31,98,98,0,0,0,14-9.32,101.22,101.22,0,0,0,17.86-18.49l.63-.84a7.6,7.6,0,0,0,.76-1A4.82,4.82,0,0,0,2903.89,1220.15ZM2362.27,997.08c-.3.13-.73.29,0,0Zm-52.79,241.4-.08,0C2308.88,1238.23,2307.77,1237.74,2309.48,1238.48Zm569.43-9.64q-2,1.79-4.13,3.45a88.2,88.2,0,0,1-17.85,10.45,87.24,87.24,0,0,1-20.51,5.57,99.25,99.25,0,0,1-20.82.3c-1.53-.14-3-.31-4.57-.5a140.24,140.24,0,0,1-25-5.85c-2.54-.86-5-1.81-7.53-2.83-1.84-.8-3.67-1.64-5.47-2.52a7,7,0,0,0-5.11-.67,7.14,7.14,0,0,0-3,1.74q-3.91,3.55-8.08,6.81a142.07,142.07,0,0,1-29.86,17.42,138.61,138.61,0,0,1-33.39,9.16,118.47,118.47,0,0,1-29.63.07,110.79,110.79,0,0,1-26.4-7.13,93.25,93.25,0,0,1-18.77-10.83,77.38,77.38,0,0,1-12.82-12.76,69,69,0,0,1-7.85-13.4,65,65,0,0,1-4-14.62,61.9,61.9,0,0,1,4.17-32,62.67,62.67,0,0,1,7.23-12.49,56.4,56.4,0,0,1,8.79-8.82,52.72,52.72,0,0,1,10.12-5.89,58.51,58.51,0,0,1,13.07-3.54,61.27,61.27,0,0,1,14.45,0,58.58,58.58,0,0,1,13.12,3.56,52.81,52.81,0,0,1,10,5.8,48.32,48.32,0,0,1,7.26,7.25,46.67,46.67,0,0,1,5.08,8.66,39.78,39.78,0,0,1,2.3,8.32,33.52,33.52,0,0,1,0,7,22.79,22.79,0,0,1-4.53,10.73,28.12,28.12,0,0,1-3.65,3.67,25,25,0,0,1-3.87,2.28,23.09,23.09,0,0,1-2.72.83,6.68,6.68,0,0,0-4.62,8.15,6.76,6.76,0,0,0,8.15,4.63c8.3-2,15.33-7.87,19.65-15.14a34.4,34.4,0,0,0,4.26-11,41.72,41.72,0,0,0,0-15c-1.48-8.83-6-17-11.8-23.78a53.87,53.87,0,0,0-16.26-12.61,66.76,66.76,0,0,0-42.46-5.78,60.15,60.15,0,0,0-35.7,21.26,71.7,71.7,0,0,0-11.43,20.34,74.81,74.81,0,0,0-4.29,21.49,72.3,72.3,0,0,0,8.78,38.67q-3.18,1.55-6.43,2.94a147.71,147.71,0,0,1-28.2,8.55q-3.86.77-7.75,1.3a139.06,139.06,0,0,1-28.26.73c-2.35-.18-4.7-.43-7-.72a146.48,146.48,0,0,1-28.44-7c-2.44-.86-4.84-1.79-7.23-2.78a149.51,149.51,0,0,1-25.39-14c-2.11-1.45-4.19-2.95-6.22-4.5q-2.8-2.19-5.5-4.52l-.25-.21a7.26,7.26,0,0,0-.93-.67,6.41,6.41,0,0,0-3.5-1.06,6.74,6.74,0,0,0-4.68,1.94h0c-1.86,1.76-3.77,3.47-5.74,5.11l-1.57,1.29c-.22.18-1.23,1.22-1.49,1.17l.67-.51-.69.52-.7.52c-.72.54-1.44,1.06-2.17,1.58a111.53,111.53,0,0,1-17.16,10c-.82.39-1.65.75-2.48,1.12l-.2.09h0l-1.3.53q-2.89,1.15-5.85,2.14a107.74,107.74,0,0,1-11.42,3.13c-1.72.37-3.45.71-5.19,1-.8.14-1.61.26-2.42.38l-.18,0-.2,0-1.6.19c-3.44.38-6.9.59-10.37.66s-6.71,0-10.06-.24q-2.22-.13-4.44-.36l-2.27-.25-1-.13-.31,0a132.84,132.84,0,0,1-15.79-3.27q-6.12-1.65-12.08-3.87c-1.27-.47-2.54-1-3.8-1.49a10.77,10.77,0,0,0-1.86-.78c-2.31-.52-4.23.28-6.26,1.21l-1.88.85-1,.45-.46.19-.45.19-1.22.5c-1,.38-1.93.76-2.91,1.12q-6.32,2.39-12.82,4.18a149.52,149.52,0,0,1-16.49,3.6l-2,.31-.48.09h-.24c-1.71.22-3.42.42-5.13.58q-4.89.45-9.81.59a144.29,144.29,0,0,1-21.89-1.05l-.74-.09-.59-.09c-.86-.12-1.71-.26-2.57-.4-2-.32-3.95-.69-5.91-1.09q-4.92-1-9.75-2.38-4.62-1.29-9.16-2.89-2.19-.78-4.36-1.63c-.71-.27-1.42-.55-2.12-.84l-.76-.31-.57-.25a148.26,148.26,0,0,1-15.26-7.7,152.55,152.55,0,0,1-13.18-8.58c-.86-.63-1.71-1.26-2.56-1.91l-.38-.29c-.51-.39-1-.79-1.51-1.19q-2.49-2-4.91-4.11c-.24-.2-.47-.41-.7-.62a89.5,89.5,0,0,0,19.22-.87,77.25,77.25,0,0,0,48.28-28.4,90.81,90.81,0,0,0,5.93-8.36c1.63-2.63,3.59-5.54,3.67-8.69.08-3.61.17-7.19.57-10.79.05-.39.09-.78.14-1.18,0-.07,0-.16,0-.28.16-1.13.35-2.25.56-3.36.42-2.21.92-4.39,1.5-6.56s1.36-4.59,2.18-6.84c.22-.58.44-1.16.67-1.74l.3-.75c.42-1.06.09-.29,0,0a31.69,31.69,0,0,1,1.6-3.45,78.85,78.85,0,0,1,4-7.25c.61-1,1.24-1.92,1.89-2.86.35-.49.69-1,1-1.47l.45-.61.57-.73.57-.71c.31-.38.63-.76.95-1.13.79-.93,1.6-1.83,2.43-2.72,1.55-1.65,3.18-3.24,4.87-4.76,1.51-1.36,3.12-2.6,4.67-3.91l.24-.18,1.23-.9c.87-.63,1.76-1.25,2.65-1.86a186.1,186.1,0,0,1,20.9-12.07c2.33-1.17,4.7-2.27,7.09-3.31l.46-.21.16-.06,1.68-.69c1.09-.43,2.19-.86,3.29-1.27q5.28-2,10.7-3.52a5.29,5.29,0,0,0,2-.24,61,61,0,0,1,9.79-2.3,67.56,67.56,0,0,1,13.71-.24c.91.08,1.82.17,2.72.29a73.92,73.92,0,0,1,11.58,2.67c1.22.38,2.41.82,3.6,1.29a57.48,57.48,0,0,1,11.5,6.7,55.2,55.2,0,0,1,8.63,8.59,49.58,49.58,0,0,1,5.49,9.36,44,44,0,0,1,2.6,9.49,46,46,0,0,1,0,10.29,44.69,44.69,0,0,1-2.61,9.58,40,40,0,0,1-4.3,7.38,36.33,36.33,0,0,1-5.25,5.27,32.66,32.66,0,0,1-5.79,3.4,27.26,27.26,0,0,1-5.25,1.46,22.87,22.87,0,0,1-4.3,0,21.9,21.9,0,0,1-3.73-1,21.27,21.27,0,0,1-3.17-1.84,19.22,19.22,0,0,1-2.31-2.29,16.74,16.74,0,0,1-1.33-2.28,14.86,14.86,0,0,1-.57-2,17,17,0,0,1,0-2.26,17.34,17.34,0,0,1,.68-2.47,16.39,16.39,0,0,1,1.2-2.07,11.9,11.9,0,0,1,1.28-1.28,12.68,12.68,0,0,1,1.28-.76l.59-.19a6.85,6.85,0,0,0,4-3,5,5,0,0,0,.79-2.46,5.15,5.15,0,0,0-.12-2.64,6.67,6.67,0,0,0-3-4,6.83,6.83,0,0,0-5.1-.67,17.41,17.41,0,0,0-5.63,2.69,23.88,23.88,0,0,0-2.94,2.47,25.94,25.94,0,0,0-2.41,3,21.91,21.91,0,0,0-2.74,5.68,22.6,22.6,0,0,0-1.07,6.21,15.65,15.65,0,0,0,.08,2.37,25.52,25.52,0,0,0,.67,4,26.87,26.87,0,0,0,1.47,3.76,16.55,16.55,0,0,0,1.24,2.26,24.64,24.64,0,0,0,4.31,5.08,27.71,27.71,0,0,0,5.51,3.86,28.55,28.55,0,0,0,13.34,3.25,24.73,24.73,0,0,0,3-.22,38.64,38.64,0,0,0,4.41-.74,37.57,37.57,0,0,0,7.09-2.64,32.25,32.25,0,0,0,5.06-3,45.44,45.44,0,0,0,5.65-4.7,49.55,49.55,0,0,0,4.34-5.14,40,40,0,0,0,2.9-4.42,51,51,0,0,0,6.36-23.14,52.83,52.83,0,0,0-1.07-12.16,51.62,51.62,0,0,0-3.91-11.45,48.69,48.69,0,0,0-5.49-9.07,61.21,61.21,0,0,0-8.2-9,63.14,63.14,0,0,0-21-12.5,68.43,68.43,0,0,0-14-3.46,82.34,82.34,0,0,0-12.35-1,72.63,72.63,0,0,0-8.58.61c0-.71-.06-1.41-.07-2.12,0-2.23,0-4.47.12-6.7.08-1.21.18-2.41.3-3.62,0-.24,0-.63,0-1,0,0,.08-.07.12-.37l.21-1.39a78,78,0,0,1,4.78-17c.07-.15.5-1.15.64-1.44.32-.71.66-1.41,1-2.11q1.15-2.33,2.47-4.56c.38-.65,4.79-7.73,5.07-7.55,0,0-1,1.26-.15.2.2-.25.39-.5.59-.74.4-.49.8-1,1.21-1.44.89-1,1.8-2,2.75-3,1.76-1.84,3.62-3.6,5.56-5.27.8-.68,1.61-1.36,2.44-2l0,0,.14-.11.09-.07c.12-.09.24-.18.35-.28l-.17.15,1.22-.9c1.6-1.15,3.24-2.26,4.92-3.3,2.74-1.71,5.56-3.27,8.43-4.75,1.49-.77,3-1.49,4.54-2.18l1-.42.09,0q1.29-.53,2.61-1c2.83-1.06,5.71-2,8.63-2.75a94.93,94.93,0,0,1,9.45-2l.89-.14h0a7,7,0,0,0,1.9-.23c1.34-.14,2.69-.26,4-.35a96.8,96.8,0,0,1,12.4,0c2.94.19,5.76-2.24,6.46-5.07q.82-2.31,1.76-4.57A105.26,105.26,0,0,1,2421.24,962q1-1.35,2-2.67l-.29.38.36-.47.33-.41q.55-.71,1.14-1.41c1.55-1.89,3.18-3.73,4.88-5.5q2.8-2.94,5.85-5.64c1-.9,2.06-1.77,3.11-2.63.54-.43,1.09-.85,1.63-1.29l-.25.2h0c.37-.29.75-.57,1.13-.85a97,97,0,0,1,18.29-10.48,98.81,98.81,0,0,1,23.28-6.31,123.48,123.48,0,0,1,24.84-.37c2.37.18,4.74.4,7.1.69a122.6,122.6,0,0,1,29.35,8.1,137.69,137.69,0,0,1,28,16.24l1.05.8.11.08,2,1.58c1,.79,1.94,1.6,2.9,2.41l0,.05.38.32a97.06,97.06,0,0,1,8,7.75c1.3,1.4,2.57,2.84,3.79,4.31.59.71,1.18,1.43,1.75,2.16.06.06.12.15.2.25L2592,969c.3.42.63.83.94,1.25a108.55,108.55,0,0,1,12.54,21.67,100.53,100.53,0,0,1,6.52,23.64A88.13,88.13,0,0,1,2612,1037a85.63,85.63,0,0,1-5.46,19.89,88.36,88.36,0,0,1-5,9.79q-1.53,2.58-3.23,5c-.54.78-1.09,1.55-1.65,2.3-.31.41-1.58,2-.11.17-.33.4-.65.82-1,1.23a81.43,81.43,0,0,1-8.13,8.69c-1.31,1.2-2.66,2.37-4.05,3.48l-.44.36h0l-.49.39.35-.29c-.33.26-.67.5-1,.75-.84.61-1.69,1.2-2.56,1.78a72.44,72.44,0,0,1-11,6,67.65,67.65,0,0,1-14.84,4.1,58.76,58.76,0,0,1-13.71.07,48.41,48.41,0,0,1-10.64-2.88,41.23,41.23,0,0,1-6-3.3l-1.44-1-.46-.38c-1-.79-1.89-1.63-2.77-2.51s-1.65-1.72-2.42-2.64l-.52-.63c-.33-.46-.66-.92-1-1.39a38.07,38.07,0,0,1-3.2-5.71,34.7,34.7,0,0,1-2-7.14,30.88,30.88,0,0,1,0-6.23,29.39,29.39,0,0,1,1.46-5.31,31.27,31.27,0,0,1,2.32-4.2c.25-.39.52-.77.79-1.14l0,0a27.82,27.82,0,0,1,1.92-2.15c.64-.65,1.31-1.28,2-1.88.06-.06.14-.11.21-.17.29-.21.58-.45.87-.65a28.39,28.39,0,0,1,4.29-2.44,26,26,0,0,1,4.67-1.28,24.09,24.09,0,0,1,4.95.06,6.59,6.59,0,0,0,4.69-1.94,6.63,6.63,0,0,0,0-9.37,7.74,7.74,0,0,0-4.69-1.94c-10.26-1.21-20.84,3.88-27.54,11.49a38,38,0,0,0-8,14.11,37,37,0,0,0-.76,16.6c1.64,10.11,7.76,19.77,15.66,26.18a50.36,50.36,0,0,0,15.22,8.51,56.48,56.48,0,0,0,17,3c21.11.62,41.59-9.35,56-24.41a90.65,90.65,0,0,0,16.45-23.85,95.05,95.05,0,0,0,8.41-29c2.62-20.92-2.71-42.53-12.77-60.88a115.84,115.84,0,0,0-13.12-19.06l3.33.39a153.63,153.63,0,0,1,29.45,7.18q3.9,1.38,7.72,3a146.8,146.8,0,0,1,24.78,13.58c2,1.38,4,2.82,6,4.31A136.78,136.78,0,0,1,2694,1009a144.7,144.7,0,0,1,14.8,24c1.09,2.23,2.12,4.49,3.11,6.78a152.59,152.59,0,0,1,8.81,29.2q.78,4,1.35,8a149.8,149.8,0,0,1,.84,29.71c-.19,2.6-.46,5.19-.79,7.78-.16,1.14-.33,2.28-.52,3.42a5.64,5.64,0,0,0-.27,2c0,.32.06.64.11,1a6.1,6.1,0,0,0,.8,2.39,6.73,6.73,0,0,0,4,3c.28.06.56.11.85.15a6.84,6.84,0,0,0,.91.08c4,.1,8.06.39,12.06.89a84.39,84.39,0,0,1,19.66,5.15,62.56,62.56,0,0,1,12.46,7.19,45.09,45.09,0,0,1,14.5,18.94c2,4.92,3.49,10,5.27,15a70.38,70.38,0,0,0,7.88,16.34,58.16,58.16,0,0,0,11.11,12.22,75.49,75.49,0,0,0,17.95,10.9,123.7,123.7,0,0,0,26.44,7.92,212.22,212.22,0,0,0,28.35,3.2Q2881.34,1226.68,2878.91,1228.84Zm-365.49-172a2.11,2.11,0,0,0,.19-.23Zm.22-.27.17-.22h0Zm.35-.46Zm3.75-3.84.07,0Zm.48-.35,0,0C2518.77,1051.44,2518.53,1051.64,2518.22,1051.89Z" fill="#000000"/></g><g id="change2_3"><path d="M321.7,2081c2,0,3.93-.06,5.85-.17a109.54,109.54,0,0,0,41.87-10.68,81,81,0,0,0,27.36-21.41l4.14-5.08,5.87,2.9A147.1,147.1,0,0,0,439,2058.17a142,142,0,0,0,31.72,3.68c1.17,0,2.34,0,3.51,0a141.46,141.46,0,0,0,32.67-4.78,148,148,0,0,0,30.89-12.17,145.68,145.68,0,0,0,22.69-14.93l5.32-4.24,5.16,4.45a108.34,108.34,0,0,0,72,26.74c3.62,0,7.27-.18,10.87-.52a135.06,135.06,0,0,0,37-9l3.21-1.27,3.15,1.39a147.64,147.64,0,0,0,60.27,12.89,140.05,140.05,0,0,0,18.49-1.22,146.25,146.25,0,0,0,46.83-14.47,151.24,151.24,0,0,0,30.66-20.8,140.76,140.76,0,0,0,11.84-11.56c-3,.8-6.29,1.47-9.81,2l-.31,0-.2,0-1.22.14c-1,.1-1.93.19-2.89.26-2.06.16-4.15.24-6.2.25h-.34c-2.12,0-4.26-.08-6.36-.24-.91-.07-1.81-.16-2.72-.26l-1.54-.16-.09,0-1.56-.26a78.54,78.54,0,0,1-15.46-4.3l-1.12-.45-.77-.34-1-.47c-1.26-.59-2.52-1.22-3.74-1.87-2.15-1.15-4.28-2.41-6.32-3.75-1.05-.69-2.09-1.42-3.1-2.15l-.32-.25-.13,0-1.14-.91c-1.69-1.35-3.38-2.83-5-4.37a82.64,82.64,0,0,1-7.74-8.43l-.23-.29-.62-.83c-.44-.59-.87-1.19-1.29-1.78-.85-1.22-1.68-2.48-2.46-3.73s-1.5-2.48-2.23-3.8l-1-1.82,0-2.07a86.12,86.12,0,0,0-4.05-25.93,77.75,77.75,0,0,0-15.22-27,88.11,88.11,0,0,0-19.81-16.54,163.48,163.48,0,0,0-43.1-19.68l-6.44-1.81.48-6.68a81.86,81.86,0,0,0-1.5-22.84c-4.3-20.27-17.57-38.3-36.42-49.45a95.16,95.16,0,0,0-48.32-13.53h-1.6l-5.59.1-2.29-5.52a100.72,100.72,0,0,0-25.19-36.28A94.72,94.72,0,0,0,512.89,1723c-2.94-.27-6.05-.4-9.23-.4-3.36,0-6.8.14-10.53.43a123.6,123.6,0,0,0-27.57,5.07,130.24,130.24,0,0,0-40,20.68c-2,1.53-3.82,3-5.52,4.37l-2.28,1.88h-5.16c-.38,0-.76,0-1.13,0a148.31,148.31,0,0,0-49,10A144.81,144.81,0,0,0,319,1791.39a137.19,137.19,0,0,0-29.59,37.73,147.71,147.71,0,0,0-15.56,45.41,154.4,154.4,0,0,0-2.2,24.75,141.23,141.23,0,0,0,1,17.09l1,8.44-8.47.7a109.79,109.79,0,0,0-12.15,1.67c-9.58,1.89-23.2,6.39-33.71,17.12a49.86,49.86,0,0,0-6.9,8.82,61.45,61.45,0,0,0-4.58,9.6c-1.05,2.65-2,5.39-2.91,8.29-1.06,3.2-2.16,6.51-3.49,9.81l-.09.21a63.31,63.31,0,0,1-7.19,12.54l-.09.12-.1.12a61.72,61.72,0,0,1-9.84,9.74l-.2.15a80.4,80.4,0,0,1-15.9,9.09l-.16.07c-1.9.78-3.84,1.51-5.74,2.17a144.36,144.36,0,0,1-27.24,6.29h-.09a246.09,246.09,0,0,1-29.18,1.91A90.69,90.69,0,0,0,121,2038.86a88.61,88.61,0,0,0,12.78,8.55,85.52,85.52,0,0,0,16.09,6.67,88.13,88.13,0,0,0,25.31,3.6h0c1.72,0,3.47,0,5.19-.14a139.66,139.66,0,0,0,22.33-3.31,119.57,119.57,0,0,0,23.14-7.67l4.71-2.11,3.94,3.34c1.94,1.64,4,3.31,6.35,5.11a137.79,137.79,0,0,0,41.9,21.85,135,135,0,0,0,23.77,5.23A115.85,115.85,0,0,0,321.7,2081Z" fill="#fed76d"/></g><g id="change1_3"><path d="M96.11,2023.77a5.64,5.64,0,0,1-.3-2.09c0-.13,0-.25,0-.37a7.12,7.12,0,0,1,.21-1.39,6.74,6.74,0,0,1,3-4l.37-.19a6.38,6.38,0,0,1,2.32-.68,5.61,5.61,0,0,1,1.16,0,244.66,244.66,0,0,0,30.84-1.86,136.46,136.46,0,0,0,25.7-5.92c1.79-.61,3.55-1.28,5.3-2a72.31,72.31,0,0,0,14.28-8.15,54.23,54.23,0,0,0,8.55-8.45,55.72,55.72,0,0,0,6.25-10.92c2.39-5.92,4-12.11,6.38-18a67.88,67.88,0,0,1,5.22-10.87,57.82,57.82,0,0,1,8-10.28c10.16-10.37,23.86-16.64,38-19.43a117,117,0,0,1,13.07-1.8,149.57,149.57,0,0,1-1.06-18.08,161.74,161.74,0,0,1,2.31-26.08,157,157,0,0,1,16.41-47.92,144.71,144.71,0,0,1,31.39-40,153.25,153.25,0,0,1,45.94-27.81,157.41,157.41,0,0,1,51.66-10.59c1.2,0,2.42,0,3.64,0,1.89-1.56,3.83-3.08,5.79-4.57a139.39,139.39,0,0,1,42.49-22,133.35,133.35,0,0,1,29.38-5.41,126.46,126.46,0,0,1,21.14,0,103,103,0,0,1,61,26.32,109.53,109.53,0,0,1,27.25,39.19c.06.13.11.26.17.4a103.1,103.1,0,0,1,54.25,14.66c20.27,12,35.35,31.58,40.26,54.81a89.32,89.32,0,0,1,1.66,25.13A171.8,171.8,0,0,1,743.51,1896a96.88,96.88,0,0,1,21.63,18.11A86.53,86.53,0,0,1,782,1944a95.25,95.25,0,0,1,4.45,28.39c.63,1.16,1.3,2.3,2,3.42s1.45,2.27,2.22,3.37c.38.54.77,1.08,1.16,1.61l.55.72a1,1,0,0,0,.13.16,74.74,74.74,0,0,0,7,7.6c1.45,1.37,3,2.69,4.52,3.94l.15.12a6,6,0,0,1,1.11.84c.91.66,1.84,1.31,2.78,1.93,1.84,1.2,3.73,2.33,5.67,3.36,1.1.59,2.22,1.14,3.35,1.67.53.25,1,.47,1.58.71l.87.35A70,70,0,0,0,833.3,2006l1.51.25a3.58,3.58,0,0,1,.7.08c1,.1,2,.21,2.94.29q3,.23,6,.21c1.87,0,3.75-.08,5.62-.22.87-.07,1.75-.15,2.62-.24l1.16-.13.1,0h0a80.12,80.12,0,0,0,14.24-3.45,6.66,6.66,0,0,1,7.48,3,6.94,6.94,0,0,1-1,8,147.53,147.53,0,0,1-16,16.21A159.63,159.63,0,0,1,826.37,2052a153.2,153.2,0,0,1-101,13.25,158.09,158.09,0,0,1-31.6-10.26,142.79,142.79,0,0,1-39.2,9.56,116.9,116.9,0,0,1-89-28.17,154.24,154.24,0,0,1-24,15.76A156.51,156.51,0,0,1,509,2065a150.28,150.28,0,0,1-34.58,5.05,148.67,148.67,0,0,1-37.3-3.85,155.06,155.06,0,0,1-34-12.23A88.88,88.88,0,0,1,373,2077.55,118.09,118.09,0,0,1,328,2089a119.56,119.56,0,0,1-22.61-.93,143.89,143.89,0,0,1-25.2-5.55,146.77,146.77,0,0,1-44.39-23.15q-3.39-2.61-6.66-5.36a127.79,127.79,0,0,1-24.72,8.2,148.62,148.62,0,0,1-23.64,3.48,98.06,98.06,0,0,1-33.3-3.79,94,94,0,0,1-17.64-7.31,97,97,0,0,1-14-9.31,101.59,101.59,0,0,1-17.86-18.5l-.63-.84a7.6,7.6,0,0,1-.76-1A4.74,4.74,0,0,1,96.11,2023.77Zm541.62-223.08Zm52.79,241.4.08,0C691.12,2041.84,692.23,2041.35,690.52,2042.09Zm-569.43-9.64q2,1.79,4.13,3.45a87.74,87.74,0,0,0,17.85,10.45,87.24,87.24,0,0,0,20.51,5.57,98.58,98.58,0,0,0,20.82.3c1.53-.13,3-.31,4.57-.5a140.24,140.24,0,0,0,25-5.85q3.81-1.29,7.53-2.83c1.84-.8,3.67-1.63,5.47-2.52a6.6,6.6,0,0,1,8.07,1.08q3.92,3.56,8.08,6.8A142.07,142.07,0,0,0,273,2065.82a138.61,138.61,0,0,0,33.39,9.16,118.47,118.47,0,0,0,29.63.08,110.82,110.82,0,0,0,26.4-7.14,93.25,93.25,0,0,0,18.77-10.83A77,77,0,0,0,394,2044.33a69,69,0,0,0,7.85-13.4,65,65,0,0,0,4-14.62,61.9,61.9,0,0,0-4.17-32,63,63,0,0,0-7.23-12.49,56.83,56.83,0,0,0-8.79-8.82,52.16,52.16,0,0,0-10.12-5.88,58,58,0,0,0-13.07-3.55,61.27,61.27,0,0,0-14.45,0,58.58,58.58,0,0,0-13.12,3.56,52.81,52.81,0,0,0-10,5.8,48.79,48.79,0,0,0-7.26,7.25,46.67,46.67,0,0,0-5.08,8.66,40.12,40.12,0,0,0-2.3,8.32,33.52,33.52,0,0,0,0,7,22.68,22.68,0,0,0,4.53,10.73,28.12,28.12,0,0,0,3.65,3.67,15.8,15.8,0,0,0,6.59,3.12,6.68,6.68,0,0,1,4.62,8.15,6.76,6.76,0,0,1-8.15,4.62c-8.3-2-15.33-7.87-19.65-15.13a34.54,34.54,0,0,1-4.26-11,41.67,41.67,0,0,1,0-15c1.48-8.84,6-17.06,11.8-23.78a53.9,53.9,0,0,1,16.26-12.62,66.82,66.82,0,0,1,42.46-5.77,60.09,60.09,0,0,1,35.7,21.25,71.62,71.62,0,0,1,11.43,20.35,74.74,74.74,0,0,1,4.29,21.49,72.34,72.34,0,0,1-8.78,38.67q3.18,1.54,6.43,2.94a149.15,149.15,0,0,0,28.2,8.55q3.86.75,7.75,1.29a139.06,139.06,0,0,0,28.26.73c2.35-.18,4.7-.42,7-.72a146.46,146.46,0,0,0,28.44-7c2.44-.87,4.84-1.8,7.23-2.79a149.51,149.51,0,0,0,25.39-14c2.11-1.44,4.19-3,6.22-4.5,1.87-1.46,3.7-3,5.5-4.51l.25-.22a8.39,8.39,0,0,1,.93-.67,6.49,6.49,0,0,1,3.5-1,6.77,6.77,0,0,1,4.68,1.93h0q2.79,2.64,5.74,5.1c.52.44,1,.87,1.57,1.29.22.18,1.23,1.22,1.49,1.17l-.67-.51.69.52.7.53,2.17,1.57a111.58,111.58,0,0,0,17.16,10c.82.38,1.65.74,2.48,1.11l.2.09h0l1.3.53q2.9,1.15,5.85,2.14a110.23,110.23,0,0,0,11.42,3.14q2.58.55,5.19,1l2.42.37.18,0,.2,0,1.6.19q5.16.57,10.37.66c3.35.06,6.71,0,10.06-.23,1.48-.1,3-.22,4.44-.37l2.27-.25,1-.13.31,0a134.82,134.82,0,0,0,15.79-3.26q6.12-1.65,12.08-3.87c1.27-.48,2.54-1,3.8-1.5a11.62,11.62,0,0,1,1.86-.78c2.31-.52,4.23.28,6.26,1.21l1.88.85,1,.45.46.2.45.18,1.22.5c1,.39,1.93.76,2.91,1.13q6.32,2.37,12.82,4.17a149.52,149.52,0,0,0,16.49,3.6l2,.31.48.09a1.06,1.06,0,0,1,.24,0c1.71.21,3.42.41,5.13.57q4.89.46,9.81.6a145.59,145.59,0,0,0,21.89-1.05l.74-.1.59-.09c.86-.12,1.71-.25,2.57-.39,2-.33,4-.69,5.91-1.1q4.92-1,9.75-2.37,4.62-1.3,9.16-2.9c1.46-.52,2.91-1.06,4.36-1.62l2.12-.85.76-.31.57-.25a148.26,148.26,0,0,0,15.26-7.7A150.22,150.22,0,0,0,840.2,2028c.86-.62,1.71-1.26,2.56-1.9l.38-.29,1.51-1.2q2.49-2,4.91-4.1l.7-.63A90.14,90.14,0,0,1,831,2019a77.31,77.31,0,0,1-48.28-28.41,92,92,0,0,1-5.93-8.35c-1.63-2.63-3.59-5.55-3.67-8.7-.08-3.61-.17-7.19-.57-10.78-.05-.4-.09-.79-.14-1.18,0-.08,0-.17-.05-.29-.16-1.12-.35-2.24-.56-3.36-.42-2.2-.92-4.39-1.5-6.55s-1.36-4.6-2.18-6.84c-.22-.59-.44-1.17-.67-1.75l-.3-.74c-.42-1.07-.09-.3,0,0a31,31,0,0,0-1.6-3.46,78.85,78.85,0,0,0-4-7.25c-.61-1-1.24-1.92-1.89-2.85-.35-.5-.69-1-1-1.47l-.45-.62-.57-.73-.57-.7c-.31-.39-.63-.76-.95-1.14-.79-.92-1.6-1.83-2.43-2.71-1.55-1.66-3.18-3.25-4.87-4.77-1.51-1.36-3.12-2.6-4.67-3.91l-.24-.17-1.23-.91c-.87-.63-1.76-1.25-2.65-1.86a184.5,184.5,0,0,0-20.9-12.06c-2.33-1.17-4.7-2.28-7.09-3.32l-.46-.21-.16-.06-1.68-.68c-1.09-.44-2.19-.86-3.29-1.28q-5.28-2-10.7-3.52a5.29,5.29,0,0,1-2-.24,62.14,62.14,0,0,0-9.79-2.3,67.56,67.56,0,0,0-13.71-.24c-.91.08-1.82.18-2.72.29a75.07,75.07,0,0,0-11.58,2.67c-1.22.38-2.41.82-3.6,1.29a58,58,0,0,0-11.5,6.7,55.64,55.64,0,0,0-8.63,8.59,49.58,49.58,0,0,0-5.49,9.36,44,44,0,0,0-2.6,9.5,46,46,0,0,0,0,10.29,44.76,44.76,0,0,0,2.61,9.57,39.72,39.72,0,0,0,4.3,7.38,36.9,36.9,0,0,0,5.25,5.28,33.28,33.28,0,0,0,5.79,3.4,28,28,0,0,0,5.25,1.46,23.75,23.75,0,0,0,4.3,0,21.93,21.93,0,0,0,3.73-1,21.27,21.27,0,0,0,3.17-1.84,19.9,19.9,0,0,0,2.31-2.28,16.85,16.85,0,0,0,1.33-2.29,14.48,14.48,0,0,0,.57-2,17,17,0,0,0,0-2.26,17.34,17.34,0,0,0-.68-2.47,16.39,16.39,0,0,0-1.2-2.07,14.06,14.06,0,0,0-1.28-1.28,12.68,12.68,0,0,0-1.28-.76c-.2-.06-.39-.13-.59-.18a6.91,6.91,0,0,1-4-3.05,5,5,0,0,1-.79-2.46,5.15,5.15,0,0,1,.12-2.64,6.7,6.7,0,0,1,3-4,6.83,6.83,0,0,1,5.1-.67,17.62,17.62,0,0,1,5.63,2.69,23.88,23.88,0,0,1,2.94,2.47,25.94,25.94,0,0,1,2.41,3,21.81,21.81,0,0,1,2.74,5.69,22.53,22.53,0,0,1,1.07,6.2,15.65,15.65,0,0,1-.08,2.37,25.32,25.32,0,0,1-.67,4,26.4,26.4,0,0,1-1.47,3.76,16,16,0,0,1-1.24,2.26,24.39,24.39,0,0,1-4.31,5.08,27.71,27.71,0,0,1-5.51,3.86,28.43,28.43,0,0,1-13.34,3.25,24.73,24.73,0,0,1-3-.22,38.64,38.64,0,0,1-4.41-.74,37.57,37.57,0,0,1-7.09-2.64,32.25,32.25,0,0,1-5.06-3,45.36,45.36,0,0,1-5.65-4.69,49.67,49.67,0,0,1-4.34-5.15,38.22,38.22,0,0,1-2.9-4.42,51,51,0,0,1-6.36-23.14,52.69,52.69,0,0,1,1.07-12.15,51.7,51.7,0,0,1,3.91-11.46,49,49,0,0,1,5.49-9.07,62.23,62.23,0,0,1,8.2-9,65.61,65.61,0,0,1,9.88-7.27,67.12,67.12,0,0,1,11.12-5.23,68.41,68.41,0,0,1,14-3.45,81.05,81.05,0,0,1,12.35-1,72.63,72.63,0,0,1,8.58.61c0-.7.06-1.41.07-2.11q.08-3.36-.12-6.7-.12-1.82-.3-3.63c0-.23,0-.63,0-1,0,0-.08-.07-.12-.37l-.21-1.38a78,78,0,0,0-4.78-17c-.07-.15-.5-1.15-.64-1.44-.32-.71-.66-1.41-1-2.11-.77-1.54-1.59-3.07-2.47-4.56-.38-.65-4.79-7.72-5.07-7.55,0,0,1,1.26.15.2-.2-.24-.39-.49-.59-.74l-1.21-1.44c-.89-1-1.8-2-2.75-3-1.76-1.84-3.62-3.6-5.56-5.26-.8-.69-1.61-1.36-2.44-2l0,0-.14-.11-.09-.06-.35-.29.17.16c-.4-.31-.81-.61-1.22-.9q-2.4-1.74-4.92-3.31c-2.74-1.71-5.56-3.27-8.43-4.75q-2.24-1.14-4.54-2.18l-1-.42-.09,0q-1.29-.52-2.61-1a90.06,90.06,0,0,0-8.63-2.74,92.22,92.22,0,0,0-9.45-2l-.89-.14h0a7,7,0,0,1-1.9-.23c-1.34-.14-2.69-.26-4-.35a96.8,96.8,0,0,0-12.4,0c-2.94.18-5.76-2.25-6.46-5.08-.55-1.53-1.14-3.06-1.76-4.57a105.26,105.26,0,0,0-10.64-19c-.64-.9-1.29-1.79-2-2.66l.29.37-.36-.47-.33-.41q-.55-.71-1.14-1.41c-1.55-1.89-3.18-3.73-4.88-5.5q-2.8-2.94-5.85-5.63c-1-.9-2.06-1.78-3.11-2.64-.54-.43-1.09-.85-1.63-1.29l.25.2h0c-.37-.29-.75-.57-1.13-.84a95.9,95.9,0,0,0-18.29-10.48,98.34,98.34,0,0,0-23.28-6.31,122.75,122.75,0,0,0-24.84-.38c-2.37.18-4.74.4-7.1.7a122.58,122.58,0,0,0-29.35,8.09,138.2,138.2,0,0,0-28,16.25l-1.05.79-.11.09c-.66.52-1.32,1-2,1.57-1,.79-1.94,1.6-2.9,2.42l0,0c-.13.12-.26.22-.38.32a97.06,97.06,0,0,0-8,7.75c-1.3,1.41-2.57,2.84-3.79,4.31-.59.71-1.18,1.43-1.75,2.16l-.2.25.16-.22c-.3.42-.63.83-.94,1.25a109.12,109.12,0,0,0-12.54,21.67,100.53,100.53,0,0,0-6.52,23.64,88.21,88.21,0,0,0-.07,21.48,85.9,85.9,0,0,0,5.46,19.89,89.11,89.11,0,0,0,5,9.78q1.53,2.58,3.23,5,.81,1.17,1.65,2.31c.31.4,1.58,2,.11.16l1,1.23a80.49,80.49,0,0,0,8.13,8.69q2,1.82,4,3.48a4.37,4.37,0,0,0,.44.36h0l.49.39-.35-.28,1,.74c.84.61,1.69,1.21,2.56,1.78a72.44,72.44,0,0,0,11.05,6,67.1,67.1,0,0,0,14.84,4.1,58.76,58.76,0,0,0,13.71.08,49,49,0,0,0,10.64-2.89,40.29,40.29,0,0,0,6-3.3c.48-.32,1-.67,1.44-1l.46-.37c1-.8,1.89-1.64,2.77-2.52s1.65-1.72,2.42-2.63c.17-.21.34-.43.52-.64.33-.45.66-.91,1-1.38a38.67,38.67,0,0,0,3.2-5.72,34.79,34.79,0,0,0,2-7.13,31,31,0,0,0,0-6.24,29.52,29.52,0,0,0-1.46-5.3,30.78,30.78,0,0,0-2.32-4.21c-.25-.39-.52-.77-.79-1.14l0,0a27.68,27.68,0,0,0-1.92-2.14c-.64-.66-1.31-1.29-2-1.89l-.21-.17c-.29-.21-.58-.45-.87-.65a28.33,28.33,0,0,0-4.29-2.43,25.26,25.26,0,0,0-4.67-1.29,24.09,24.09,0,0,0-4.95.06,6.59,6.59,0,0,1-4.69-1.94,6.61,6.61,0,0,1,0-9.36,7.68,7.68,0,0,1,4.69-1.94c10.26-1.22,20.84,3.87,27.54,11.48a38,38,0,0,1,8,14.11,37,37,0,0,1,.76,16.6c-1.64,10.12-7.76,19.78-15.66,26.18a50.39,50.39,0,0,1-15.22,8.52,56.78,56.78,0,0,1-17,3c-21.11.62-41.59-9.35-56-24.41a90.6,90.6,0,0,1-16.45-23.84,95.05,95.05,0,0,1-8.41-29c-2.62-20.93,2.71-42.54,12.77-60.89a115.84,115.84,0,0,1,13.12-19.06l-3.33.39a152.92,152.92,0,0,0-29.45,7.19c-2.6.91-5.17,1.91-7.72,3A146.8,146.8,0,0,0,335.35,1785c-2,1.38-4,2.82-6,4.31A136.78,136.78,0,0,0,306,1812.65a145.11,145.11,0,0,0-14.8,24c-1.09,2.23-2.12,4.5-3.11,6.78a152.59,152.59,0,0,0-8.81,29.2q-.78,4-1.35,8a149.67,149.67,0,0,0-.84,29.7c.19,2.6.46,5.19.79,7.78.16,1.14.33,2.28.52,3.42a5.64,5.64,0,0,1,.27,2c0,.33-.06.64-.11,1a6.05,6.05,0,0,1-.8,2.38,6.73,6.73,0,0,1-4,3c-.28.06-.56.11-.85.15a9,9,0,0,1-.91.09c-4,.1-8.06.38-12.06.88a84.89,84.89,0,0,0-19.66,5.15,63,63,0,0,0-12.46,7.19,55.14,55.14,0,0,0-8.43,8.37,54.35,54.35,0,0,0-6.07,10.57c-2,4.93-3.49,10-5.27,15a70.65,70.65,0,0,1-7.88,16.35,58.35,58.35,0,0,1-11.11,12.21,75.49,75.49,0,0,1-18,10.9,123.72,123.72,0,0,1-26.44,7.93,213.86,213.86,0,0,1-28.35,3.19Q118.66,2030.29,121.09,2032.45Zm365.49-172a2.11,2.11,0,0,1-.19-.23Zm-.22-.26a1.84,1.84,0,0,0-.17-.22h0Zm-.35-.47Zm-3.75-3.83-.07,0Zm-.48-.36,0,0C481.23,1855.05,481.47,1855.26,481.78,1855.5Z" fill="#000000"/></g></svg>