<?xml version="1.0" encoding="UTF-8"?><svg xmlns="http://www.w3.org/2000/svg" xmlns:xlink="http://www.w3.org/1999/xlink" height="1000.0" preserveAspectRatio="xMidYMid meet" version="1.0" viewBox="0.0 0.0 1000.0 1000.0" width="1000.0" zoomAndPan="magnify"><g fill="#ef8e03" id="change1_1"><path d="M 59.683594 412.394531 L 49.664062 410.410156 L 46.144531 430.132812 L 15.847656 425.507812 L 18.1875 412.351562 L 19.363281 405.777344 C 19.773438 403.589844 20.101562 401.386719 20.644531 399.222656 L 23.648438 386.203125 C 24.667969 381.867188 25.570312 377.503906 26.875 373.238281 L 17.003906 370.601562 L 15.894531 374.539062 C 15.535156 375.855469 15.261719 377.195312 14.941406 378.519531 L 13.09375 386.496094 L 11.257812 394.472656 L 10.34375 398.460938 C 10.023438 399.789062 9.835938 401.140625 9.578125 402.480469 C 7.699219 413.226562 5.519531 423.929688 4.367188 434.785156 L 55.011719 441.390625 C 56.023438 431.640625 58.023438 422.042969 59.683594 412.394531"/><path d="M 70.359375 369.660156 C 70.703125 368.488281 71.007812 367.300781 71.378906 366.132812 L 72.558594 362.65625 L 74.914062 355.703125 L 65.242188 352.417969 L 62.03125 361.90625 C 61.457031 363.476562 61.050781 365.097656 60.582031 366.699219 L 59.21875 371.515625 L 29.792969 362.957031 C 34.644531 345.808594 40.757812 329.046875 47.453125 312.542969 L 85.195312 328.191406 C 85.65625 327.058594 86.066406 325.902344 86.5625 324.785156 L 88.078125 321.441406 L 91.105469 314.75 L 94.128906 308.054688 C 94.648438 306.945312 95.101562 305.808594 95.671875 304.726562 L 97.347656 301.457031 L 88.191406 296.929688 C 87.441406 298.421875 86.648438 299.894531 85.929688 301.398438 L 83.867188 305.964844 L 79.742188 315.089844 L 51.699219 302.734375 L 57.203125 290.5625 L 58.589844 287.519531 L 60.109375 284.546875 L 63.152344 278.601562 L 69.246094 266.710938 L 75.890625 255.121094 L 67.046875 250.007812 C 55.917969 268.78125 46.5625 288.558594 38.015625 308.628906 L 32.007812 323.859375 L 30.515625 327.667969 C 30.035156 328.945312 29.621094 330.246094 29.175781 331.535156 L 26.546875 339.289062 L 23.925781 347.042969 L 22.621094 350.921875 C 22.210938 352.222656 21.863281 353.542969 21.480469 354.851562 L 17.003906 370.601562 L 66.347656 383.789062 L 70.359375 369.660156"/><path d="M 126.714844 250.605469 L 118.226562 244.921875 L 107.414062 261.789062 L 81.230469 245.867188 L 88.433594 234.617188 L 92.039062 228.996094 L 93.84375 226.1875 L 95.773438 223.464844 L 103.511719 212.578125 L 107.386719 207.140625 L 111.5 201.878906 L 143.898438 226.777344 L 152.976562 215.222656 C 156.109375 211.460938 159.371094 207.804688 162.5625 204.085938 L 154.886719 197.351562 L 148.324219 204.921875 C 147.25 206.195312 146.101562 207.414062 145.082031 208.738281 L 141.988281 212.675781 L 118.101562 193.480469 L 122.238281 188.242188 L 126.605469 183.191406 L 135.351562 173.101562 L 137.542969 170.582031 L 139.847656 168.164062 L 144.449219 163.328125 L 153.671875 153.671875 L 182.5625 182.5625 L 193.199219 172.425781 C 194.980469 170.742188 196.726562 169.023438 198.53125 167.371094 L 204.085938 162.5625 L 197.351562 154.886719 L 193.5625 158.164062 C 192.296875 159.253906 191.027344 160.335938 189.839844 161.515625 L 182.589844 168.425781 L 161.394531 146.292969 C 164.625 143.230469 167.824219 140.132812 171.082031 137.101562 L 181.171875 128.355469 L 186.222656 123.988281 C 187.066406 123.265625 187.894531 122.515625 188.757812 121.816406 L 191.382812 119.753906 L 201.878906 111.5 L 195.65625 103.398438 L 182.796875 113.511719 C 178.609375 117 174.53125 120.621094 170.398438 124.175781 L 164.21875 129.535156 C 162.210938 131.378906 160.261719 133.28125 158.277344 135.152344 L 146.445312 146.445312 L 135.152344 158.277344 C 133.28125 160.261719 131.378906 162.210938 129.535156 164.21875 L 124.175781 170.398438 C 120.621094 174.53125 117 178.609375 113.511719 182.796875 L 103.398438 195.65625 L 100.875 198.875 C 100.03125 199.945312 99.183594 201.011719 98.410156 202.136719 L 93.664062 208.800781 L 88.925781 215.46875 L 86.558594 218.800781 L 85.378906 220.472656 L 84.273438 222.191406 C 78.425781 231.398438 72.300781 240.4375 67.046875 250.007812 L 111.257812 275.585938 C 115.953125 266.980469 121.488281 258.886719 126.714844 250.605469"/><path d="M 229.664062 141.628906 C 230.625 140.867188 231.582031 140.101562 232.59375 139.414062 L 244.570312 130.898438 L 247.5625 128.769531 L 249.058594 127.707031 L 250.605469 126.714844 L 244.921875 118.226562 C 243.5 119.101562 242.148438 120.082031 240.789062 121.054688 L 228.542969 129.761719 L 210.402344 105.0625 L 221.285156 97.320312 C 223.109375 96.042969 224.898438 94.71875 226.75 93.484375 L 232.371094 89.875 L 243.617188 82.667969 C 244.558594 82.078125 245.480469 81.449219 246.441406 80.890625 L 249.335938 79.222656 L 255.121094 75.890625 L 275.585938 111.257812 L 281.953125 107.59375 C 284.078125 106.378906 286.175781 105.113281 288.378906 104.046875 L 301.457031 97.351562 L 296.929688 88.191406 L 288.015625 92.757812 L 283.558594 95.039062 L 281.328125 96.183594 C 280.597656 96.578125 279.878906 97.007812 279.152344 97.421875 L 264.390625 70.566406 C 266.300781 69.421875 268.296875 68.433594 270.277344 67.414062 L 276.222656 64.367188 C 280.191406 62.347656 284.140625 60.289062 288.125 58.308594 L 300.296875 52.796875 L 306.386719 50.050781 L 309.433594 48.679688 L 312.542969 47.449219 L 308.628906 38.015625 C 288.558594 46.5625 268.78125 55.917969 250.007812 67.046875 C 240.4375 72.300781 231.398438 78.425781 222.191406 84.273438 L 220.472656 85.378906 L 218.800781 86.558594 L 215.46875 88.925781 L 208.800781 93.664062 L 202.136719 98.410156 C 201.011719 99.183594 199.945312 100.03125 198.875 100.875 L 195.65625 103.398438 L 226.777344 143.898438 L 229.664062 141.628906"/><path d="M 341.855469 79.808594 L 345.273438 78.460938 C 346.417969 78.027344 347.589844 77.664062 348.742188 77.265625 L 355.699219 74.914062 L 352.417969 65.242188 L 342.929688 68.449219 C 339.796875 69.597656 336.710938 70.878906 333.597656 72.085938 L 322.484375 43.527344 L 328.699219 41.078125 L 331.8125 39.867188 L 334.976562 38.796875 L 347.632812 34.507812 L 353.964844 32.371094 C 356.09375 31.722656 358.246094 31.140625 360.386719 30.523438 L 373.238281 26.875 L 383.789062 66.347656 L 387.320312 65.34375 C 388.503906 65.019531 389.703125 64.78125 390.894531 64.496094 L 398.050781 62.847656 L 408.785156 60.363281 C 409.972656 60.074219 411.191406 59.914062 412.394531 59.683594 L 410.410156 49.660156 C 407.105469 50.171875 403.878906 51.050781 400.621094 51.769531 L 390.859375 54.019531 L 383.597656 24.25 C 392.289062 22.300781 400.917969 20.039062 409.722656 18.65625 L 422.875 16.3125 C 425.0625 15.878906 427.273438 15.617188 429.480469 15.339844 L 436.105469 14.492188 L 441.390625 55.011719 L 448.675781 54.085938 L 452.320312 53.621094 L 454.144531 53.390625 L 455.976562 53.253906 L 470.628906 52.140625 L 469.96875 41.945312 L 459.980469 42.703125 C 456.652344 42.988281 453.3125 43.117188 450.007812 43.617188 L 446.707031 13.152344 L 450.019531 12.738281 L 453.347656 12.480469 L 460.003906 11.972656 L 473.320312 10.964844 C 474.429688 10.863281 475.539062 10.820312 476.652344 10.804688 L 479.988281 10.714844 L 486.65625 10.546875 L 500 10.214844 L 500 51.074219 L 514.695312 51.453125 L 522.042969 51.632812 C 524.492188 51.710938 526.929688 51.980469 529.371094 52.140625 L 530.03125 41.945312 C 523.378906 41.285156 516.691406 41.335938 510.015625 41.113281 L 510.671875 10.476562 L 524.015625 10.820312 C 528.457031 11.039062 532.890625 11.453125 537.332031 11.769531 C 541.769531 12.117188 546.210938 12.417969 550.640625 12.816406 L 563.894531 14.492188 L 558.609375 55.011719 C 568.359375 56.019531 577.957031 58.019531 587.605469 59.683594 L 589.589844 49.660156 L 569.867188 46.144531 L 574.492188 15.851562 L 587.648438 18.1875 L 594.222656 19.363281 C 596.410156 19.773438 598.613281 20.101562 600.777344 20.644531 L 613.796875 23.648438 C 618.132812 24.671875 622.496094 25.570312 626.761719 26.875 L 616.210938 66.347656 L 630.339844 70.359375 C 631.511719 70.703125 632.699219 71.007812 633.863281 71.378906 L 637.34375 72.558594 L 644.296875 74.914062 L 647.582031 65.242188 L 638.09375 62.03125 C 636.523438 61.457031 634.902344 61.050781 633.300781 60.585938 L 628.484375 59.214844 L 637.042969 29.792969 C 654.1875 34.644531 670.953125 40.757812 687.457031 47.449219 L 671.808594 85.195312 C 672.941406 85.652344 674.097656 86.066406 675.214844 86.5625 L 678.558594 88.078125 L 685.25 91.105469 L 691.945312 94.128906 C 693.054688 94.648438 694.191406 95.101562 695.273438 95.671875 L 698.542969 97.351562 L 703.070312 88.191406 C 701.578125 87.441406 700.105469 86.648438 698.601562 85.929688 L 694.035156 83.867188 L 684.90625 79.742188 L 697.265625 51.699219 L 709.4375 57.203125 L 712.480469 58.589844 L 721.398438 63.148438 L 733.289062 69.246094 L 744.875 75.890625 L 724.414062 111.257812 C 733.019531 115.953125 741.113281 121.488281 749.394531 126.714844 L 755.078125 118.226562 L 738.210938 107.414062 L 754.132812 81.230469 L 765.382812 88.433594 L 771 92.039062 L 773.8125 93.84375 L 776.535156 95.773438 L 787.421875 103.511719 L 792.859375 107.386719 L 798.121094 111.5 L 804.34375 103.398438 L 801.125 100.875 C 800.054688 100.03125 798.988281 99.183594 797.863281 98.410156 L 791.199219 93.664062 L 784.53125 88.925781 L 781.199219 86.558594 L 779.527344 85.378906 L 777.808594 84.273438 C 768.601562 78.425781 759.5625 72.300781 749.992188 67.046875 C 731.214844 55.917969 711.441406 46.5625 691.371094 38.015625 L 676.140625 32.007812 L 672.332031 30.515625 C 671.054688 30.035156 669.753906 29.621094 668.464844 29.175781 L 660.710938 26.546875 L 652.957031 23.929688 L 649.078125 22.621094 C 647.777344 22.210938 646.457031 21.859375 645.144531 21.480469 L 629.398438 17.003906 L 625.457031 15.894531 C 624.144531 15.535156 622.804688 15.261719 621.480469 14.941406 L 613.503906 13.09375 L 605.527344 11.257812 L 601.539062 10.34375 C 600.210938 10.023438 598.859375 9.839844 597.519531 9.578125 C 586.773438 7.699219 576.066406 5.519531 565.214844 4.367188 L 557.097656 3.335938 L 553.039062 2.828125 L 551.007812 2.574219 L 548.972656 2.414062 L 532.664062 1.171875 C 529.945312 0.992188 527.230469 0.707031 524.507812 0.617188 L 516.339844 0.402344 L 500 0 L 483.660156 0.402344 L 475.492188 0.617188 C 472.769531 0.707031 470.054688 0.992188 467.335938 1.171875 L 451.027344 2.414062 L 448.988281 2.574219 L 446.960938 2.828125 L 442.902344 3.335938 L 434.785156 4.367188 C 423.929688 5.519531 413.226562 7.699219 402.480469 9.578125 C 401.140625 9.839844 399.789062 10.023438 398.460938 10.34375 L 394.472656 11.257812 L 386.496094 13.09375 L 378.519531 14.941406 C 377.195312 15.261719 375.855469 15.535156 374.542969 15.894531 L 370.601562 17.003906 L 354.855469 21.480469 C 353.542969 21.859375 352.222656 22.210938 350.921875 22.621094 L 347.042969 23.929688 L 339.289062 26.546875 L 331.535156 29.175781 C 330.246094 29.621094 328.945312 30.035156 327.667969 30.515625 L 323.859375 32.007812 L 308.628906 38.015625 L 328.191406 85.195312 L 341.855469 79.808594"/><path d="M 784.777344 152.976562 C 788.539062 156.109375 792.195312 159.371094 795.914062 162.5625 L 802.648438 154.886719 L 795.078125 148.324219 C 793.800781 147.25 792.585938 146.101562 791.261719 145.082031 L 787.324219 141.988281 L 806.519531 118.101562 L 811.757812 122.238281 L 816.808594 126.605469 L 826.898438 135.351562 L 829.417969 137.542969 L 831.835938 139.847656 L 836.671875 144.449219 L 846.328125 153.671875 L 853.554688 146.445312 L 841.722656 135.152344 C 839.738281 133.28125 837.789062 131.378906 835.777344 129.535156 L 829.601562 124.175781 C 825.46875 120.621094 821.390625 117 817.199219 113.511719 L 804.34375 103.398438 L 773.222656 143.898438 L 784.777344 152.976562"/><path d="M 827.574219 193.199219 C 829.257812 194.980469 830.976562 196.726562 832.628906 198.53125 L 837.4375 204.085938 L 845.113281 197.351562 L 841.835938 193.5625 C 840.746094 192.296875 839.660156 191.027344 838.484375 189.839844 L 831.574219 182.589844 L 853.707031 161.394531 C 856.769531 164.625 859.867188 167.824219 862.894531 171.082031 L 871.644531 181.171875 L 876.015625 186.222656 C 876.734375 187.066406 877.484375 187.894531 878.183594 188.757812 L 880.246094 191.382812 L 888.5 201.878906 L 856.101562 226.777344 L 858.371094 229.664062 C 859.132812 230.625 859.898438 231.582031 860.585938 232.59375 L 869.101562 244.570312 L 871.230469 247.5625 L 872.292969 249.058594 L 873.28125 250.605469 L 881.773438 244.921875 C 880.898438 243.5 879.917969 242.148438 878.945312 240.789062 L 870.238281 228.542969 L 894.9375 210.402344 L 902.679688 221.289062 C 903.957031 223.109375 905.28125 224.898438 906.515625 226.75 L 910.125 232.371094 L 917.328125 243.617188 C 917.921875 244.558594 918.550781 245.480469 919.109375 246.441406 L 920.777344 249.335938 L 924.109375 255.121094 L 888.742188 275.585938 L 892.402344 281.953125 C 893.621094 284.078125 894.886719 286.175781 895.953125 288.378906 L 902.648438 301.457031 L 911.808594 296.929688 L 907.242188 288.015625 L 904.960938 283.558594 L 903.816406 281.328125 C 903.417969 280.597656 902.988281 279.878906 902.578125 279.152344 L 929.433594 264.390625 C 930.578125 266.300781 931.566406 268.296875 932.585938 270.277344 L 935.632812 276.222656 C 937.652344 280.191406 939.710938 284.140625 941.691406 288.125 L 947.203125 300.296875 L 949.949219 306.386719 L 951.320312 309.433594 L 952.550781 312.542969 L 961.984375 308.628906 C 953.4375 288.558594 944.082031 268.78125 932.949219 250.007812 C 927.699219 240.4375 921.574219 231.398438 915.726562 222.191406 L 914.617188 220.472656 L 913.441406 218.800781 L 911.070312 215.46875 L 906.335938 208.800781 L 901.585938 202.136719 C 900.816406 201.011719 899.96875 199.945312 899.125 198.875 L 896.601562 195.65625 L 886.488281 182.796875 C 883 178.609375 879.378906 174.53125 875.824219 170.398438 L 870.464844 164.21875 C 868.621094 162.210938 866.71875 160.261719 864.847656 158.277344 L 853.554688 146.445312 L 817.4375 182.5625 L 827.574219 193.199219"/><path d="M 999.597656 483.660156 L 999.382812 475.492188 C 999.292969 472.769531 999.007812 470.054688 998.828125 467.335938 L 997.582031 451.027344 L 997.425781 448.988281 L 997.171875 446.960938 L 996.664062 442.902344 L 995.632812 434.785156 C 994.480469 423.929688 992.300781 413.226562 990.421875 402.480469 C 990.160156 401.140625 989.976562 399.789062 989.65625 398.460938 L 988.742188 394.472656 L 986.90625 386.496094 L 985.058594 378.519531 C 984.738281 377.195312 984.464844 375.855469 984.105469 374.539062 L 982.996094 370.601562 L 978.519531 354.851562 C 978.136719 353.542969 977.789062 352.222656 977.378906 350.921875 L 976.070312 347.042969 L 973.453125 339.289062 L 970.824219 331.535156 C 970.375 330.246094 969.964844 328.945312 969.484375 327.667969 L 967.992188 323.859375 L 961.984375 308.628906 L 914.804688 328.191406 L 920.191406 341.855469 L 921.539062 345.273438 C 921.972656 346.417969 922.335938 347.589844 922.734375 348.742188 L 925.085938 355.703125 L 934.757812 352.417969 L 931.550781 342.929688 C 930.402344 339.796875 929.121094 336.710938 927.914062 333.597656 L 956.472656 322.484375 L 958.921875 328.699219 L 960.132812 331.8125 L 961.207031 334.976562 L 965.492188 347.632812 L 967.625 353.964844 C 968.277344 356.09375 968.859375 358.246094 969.476562 360.386719 L 973.125 373.238281 L 933.652344 383.789062 L 934.65625 387.320312 C 934.980469 388.503906 935.21875 389.703125 935.503906 390.894531 L 937.152344 398.050781 L 939.636719 408.785156 C 939.925781 409.972656 940.085938 411.191406 940.316406 412.394531 L 950.335938 410.410156 C 949.828125 407.105469 948.949219 403.878906 948.230469 400.621094 L 945.980469 390.859375 L 975.75 383.597656 C 977.699219 392.289062 979.960938 400.917969 981.34375 409.722656 L 983.6875 422.875 C 984.117188 425.0625 984.382812 427.273438 984.660156 429.480469 L 985.507812 436.105469 L 944.988281 441.390625 L 945.914062 448.675781 L 946.378906 452.320312 L 946.609375 454.144531 L 946.746094 455.976562 L 947.859375 470.628906 L 958.054688 469.96875 L 957.296875 459.980469 C 957.011719 456.652344 956.882812 453.3125 956.382812 450.007812 L 986.847656 446.707031 L 987.261719 450.019531 L 987.519531 453.347656 L 988.027344 460.003906 L 989.035156 473.320312 C 989.140625 474.429688 989.179688 475.539062 989.195312 476.652344 L 989.28125 479.988281 L 989.457031 486.65625 L 989.785156 500 L 948.925781 500 L 948.546875 514.695312 L 948.363281 522.042969 C 948.289062 524.492188 948.019531 526.929688 947.859375 529.371094 L 958.054688 530.03125 C 958.714844 523.378906 958.664062 516.691406 958.886719 510.015625 L 989.523438 510.671875 L 989.179688 524.015625 C 988.960938 528.457031 988.542969 532.894531 988.230469 537.332031 C 987.882812 541.769531 987.582031 546.210938 987.183594 550.640625 L 985.507812 563.894531 L 944.988281 558.609375 C 943.976562 568.359375 941.976562 577.957031 940.316406 587.605469 L 950.335938 589.589844 L 953.855469 569.867188 L 984.148438 574.492188 L 981.8125 587.648438 L 980.636719 594.222656 C 980.226562 596.410156 979.898438 598.613281 979.355469 600.777344 L 976.351562 613.796875 C 975.332031 618.132812 974.429688 622.496094 973.125 626.761719 L 982.996094 629.398438 L 984.105469 625.457031 C 984.464844 624.144531 984.738281 622.804688 985.058594 621.480469 L 986.90625 613.503906 L 988.742188 605.527344 L 989.65625 601.539062 C 989.976562 600.210938 990.160156 598.859375 990.421875 597.519531 C 992.300781 586.773438 994.480469 576.066406 995.632812 565.214844 L 996.664062 557.097656 L 997.171875 553.039062 L 997.425781 551.007812 L 997.582031 548.972656 L 998.828125 532.664062 C 999.007812 529.945312 999.292969 527.230469 999.382812 524.507812 L 999.597656 516.339844 L 1000 500 L 999.597656 483.660156"/><path d="M 920.273438 583.644531 C 920.054688 584.789062 919.90625 585.953125 919.628906 587.085938 L 918.835938 590.5 L 917.253906 597.324219 L 915.683594 604.15625 C 915.410156 605.289062 915.1875 606.4375 914.875 607.566406 L 913.914062 610.933594 L 910.085938 624.414062 C 909.761719 625.535156 909.472656 626.667969 909.117188 627.78125 L 907.988281 631.097656 L 905.738281 637.734375 L 903.496094 644.371094 C 903.117188 645.476562 902.773438 646.59375 902.363281 647.6875 L 901.070312 650.945312 L 895.933594 663.980469 C 888.589844 681.152344 880.625 698.109375 871.058594 714.183594 C 866.589844 722.402344 861.285156 730.117188 856.308594 738.027344 L 855.363281 739.503906 L 854.347656 740.933594 L 852.3125 743.789062 L 848.246094 749.503906 L 844.1875 755.222656 C 843.527344 756.191406 842.796875 757.105469 842.070312 758.019531 L 839.902344 760.773438 L 831.238281 771.808594 C 828.246094 775.398438 825.125 778.886719 822.082031 782.4375 L 817.496094 787.742188 C 815.914062 789.464844 814.273438 791.132812 812.664062 792.832031 L 802.992188 802.992188 L 792.832031 812.664062 C 791.132812 814.273438 789.464844 815.914062 787.742188 817.496094 L 782.4375 822.082031 C 778.886719 825.125 775.398438 828.246094 771.808594 831.238281 L 760.773438 839.902344 L 758.019531 842.070312 C 757.105469 842.796875 756.191406 843.53125 755.222656 844.1875 L 749.503906 848.246094 L 743.789062 852.3125 L 740.933594 854.347656 L 739.503906 855.363281 L 738.027344 856.308594 C 730.117188 861.285156 722.402344 866.589844 714.183594 871.058594 C 698.109375 880.625 681.152344 888.589844 663.980469 895.933594 L 650.945312 901.070312 L 647.6875 902.363281 C 646.59375 902.773438 645.476562 903.117188 644.371094 903.496094 L 637.734375 905.738281 L 631.097656 907.988281 L 627.78125 909.117188 C 626.667969 909.472656 625.535156 909.761719 624.414062 910.085938 L 610.933594 913.914062 L 607.566406 914.878906 C 606.4375 915.1875 605.289062 915.410156 604.15625 915.683594 L 597.324219 917.253906 L 590.5 918.835938 L 587.085938 919.628906 C 585.953125 919.90625 584.789062 920.054688 583.644531 920.273438 C 574.433594 921.851562 565.277344 923.777344 555.964844 924.730469 L 549.011719 925.617188 L 545.535156 926.0625 L 543.792969 926.285156 L 542.046875 926.414062 L 528.054688 927.472656 C 525.722656 927.628906 523.394531 927.890625 521.054688 927.960938 L 514.035156 928.128906 L 500 928.492188 L 485.964844 928.128906 L 478.945312 927.960938 C 476.605469 927.890625 474.277344 927.628906 471.945312 927.472656 L 457.953125 926.414062 L 456.203125 926.285156 L 450.988281 925.617188 L 444.03125 924.730469 C 434.722656 923.777344 425.566406 921.851562 416.355469 920.273438 C 415.210938 920.054688 414.046875 919.90625 412.914062 919.628906 L 409.5 918.835938 L 402.675781 917.253906 L 395.84375 915.683594 C 394.707031 915.410156 393.5625 915.1875 392.433594 914.878906 L 389.066406 913.914062 L 375.585938 910.085938 C 374.464844 909.761719 373.332031 909.472656 372.21875 909.117188 L 368.902344 907.988281 L 362.265625 905.738281 L 355.628906 903.496094 C 354.523438 903.117188 353.40625 902.773438 352.3125 902.363281 L 349.054688 901.070312 L 336.015625 895.933594 C 318.847656 888.589844 301.890625 880.625 285.816406 871.058594 C 277.597656 866.589844 269.882812 861.285156 261.972656 856.308594 L 260.496094 855.363281 L 259.066406 854.347656 L 256.210938 852.3125 L 250.496094 848.246094 L 244.777344 844.1875 C 243.808594 843.53125 242.898438 842.796875 241.980469 842.070312 L 239.226562 839.902344 L 228.191406 831.238281 C 224.601562 828.246094 221.113281 825.125 217.5625 822.082031 L 212.257812 817.496094 C 210.535156 815.914062 208.867188 814.273438 207.167969 812.664062 L 197.007812 802.992188 L 187.332031 792.832031 C 185.726562 791.132812 184.085938 789.464844 182.503906 787.742188 L 177.917969 782.4375 C 174.875 778.886719 171.753906 775.398438 168.761719 771.808594 L 160.097656 760.773438 L 157.929688 758.019531 C 157.203125 757.105469 156.46875 756.191406 155.8125 755.222656 L 151.753906 749.503906 L 147.6875 743.789062 L 145.652344 740.933594 L 144.636719 739.503906 L 143.691406 738.027344 C 138.710938 730.117188 133.410156 722.402344 128.941406 714.183594 C 119.375 698.109375 111.410156 681.152344 104.066406 663.980469 L 98.929688 650.945312 L 97.636719 647.6875 C 97.226562 646.59375 96.882812 645.476562 96.503906 644.371094 L 94.261719 637.734375 L 92.011719 631.097656 L 90.882812 627.78125 C 90.527344 626.667969 90.238281 625.535156 89.914062 624.414062 L 86.085938 610.933594 L 85.125 607.566406 C 84.8125 606.4375 84.589844 605.289062 84.316406 604.15625 L 82.746094 597.324219 L 81.167969 590.5 L 80.371094 587.085938 C 80.09375 585.953125 79.945312 584.789062 79.726562 583.644531 C 78.148438 574.433594 76.222656 565.277344 75.269531 555.964844 L 74.382812 549.011719 L 73.9375 545.535156 L 73.714844 543.792969 L 73.585938 542.046875 L 72.527344 528.054688 C 72.371094 525.722656 72.109375 523.394531 72.039062 521.054688 L 71.871094 514.035156 L 71.503906 500 L 71.871094 485.964844 L 72.039062 478.945312 C 72.109375 476.605469 72.371094 474.277344 72.527344 471.945312 L 73.585938 457.953125 L 73.714844 456.203125 L 74.382812 450.988281 L 75.269531 444.03125 C 76.222656 434.722656 78.148438 425.566406 79.726562 416.355469 C 79.945312 415.210938 80.09375 414.046875 80.371094 412.914062 L 81.167969 409.5 L 82.746094 402.675781 L 84.316406 395.84375 C 84.589844 394.707031 84.8125 393.5625 85.125 392.433594 L 86.085938 389.066406 L 89.914062 375.585938 C 90.238281 374.464844 90.527344 373.332031 90.882812 372.21875 L 92.011719 368.902344 L 94.261719 362.265625 L 96.503906 355.628906 C 96.882812 354.523438 97.226562 353.40625 97.636719 352.3125 L 98.929688 349.054688 L 104.066406 336.015625 C 111.410156 318.847656 119.375 301.890625 128.941406 285.816406 C 133.410156 277.597656 138.710938 269.882812 143.691406 261.972656 L 144.636719 260.496094 L 145.652344 259.066406 L 147.6875 256.210938 L 151.753906 250.496094 L 155.8125 244.777344 C 156.46875 243.808594 157.203125 242.898438 157.929688 241.980469 L 160.097656 239.226562 L 168.761719 228.191406 C 171.753906 224.601562 174.875 221.113281 177.917969 217.566406 L 182.503906 212.257812 C 184.085938 210.535156 185.726562 208.867188 187.332031 207.167969 L 197.007812 197.007812 L 207.167969 187.332031 C 208.867188 185.726562 210.535156 184.085938 212.257812 182.503906 L 217.5625 177.917969 C 221.113281 174.875 224.601562 171.753906 228.191406 168.761719 L 239.226562 160.097656 L 241.980469 157.929688 C 242.898438 157.203125 243.808594 156.46875 244.777344 155.8125 L 250.496094 151.753906 L 256.210938 147.6875 L 259.066406 145.652344 L 260.496094 144.636719 L 261.972656 143.691406 C 269.882812 138.710938 277.597656 133.410156 285.816406 128.941406 C 301.890625 119.375 318.847656 111.410156 336.015625 104.066406 L 349.054688 98.929688 L 352.3125 97.636719 C 353.40625 97.226562 354.523438 96.882812 355.628906 96.503906 L 362.265625 94.261719 L 368.902344 92.011719 L 372.21875 90.882812 C 373.332031 90.527344 374.464844 90.238281 375.585938 89.914062 L 389.066406 86.085938 L 392.433594 85.121094 C 393.5625 84.8125 394.707031 84.589844 395.84375 84.316406 L 402.675781 82.746094 L 409.5 81.164062 L 412.914062 80.371094 C 414.046875 80.09375 415.210938 79.945312 416.355469 79.726562 C 425.566406 78.148438 434.722656 76.222656 444.03125 75.269531 L 450.988281 74.382812 L 456.203125 73.714844 L 457.953125 73.585938 L 471.945312 72.527344 C 474.277344 72.371094 476.605469 72.109375 478.945312 72.039062 L 485.964844 71.871094 L 500 71.503906 L 514.035156 71.871094 L 521.054688 72.039062 C 523.394531 72.109375 525.722656 72.371094 528.054688 72.527344 L 542.046875 73.585938 L 543.792969 73.714844 L 545.535156 73.9375 L 549.011719 74.382812 L 555.964844 75.269531 C 565.277344 76.222656 574.433594 78.148438 583.644531 79.726562 C 584.789062 79.945312 585.953125 80.09375 587.085938 80.371094 L 590.5 81.164062 L 597.324219 82.746094 L 604.15625 84.316406 C 605.289062 84.589844 606.4375 84.8125 607.566406 85.121094 L 610.933594 86.085938 L 624.414062 89.914062 C 625.535156 90.238281 626.667969 90.527344 627.78125 90.882812 L 631.097656 92.011719 L 637.734375 94.261719 L 644.371094 96.503906 C 645.476562 96.882812 646.59375 97.226562 647.6875 97.636719 L 650.945312 98.929688 L 663.980469 104.066406 C 681.152344 111.410156 698.109375 119.375 714.183594 128.941406 C 722.402344 133.410156 730.117188 138.710938 738.027344 143.691406 L 739.503906 144.636719 L 740.933594 145.652344 L 743.789062 147.6875 L 749.503906 151.753906 L 755.222656 155.8125 C 756.191406 156.46875 757.105469 157.203125 758.019531 157.929688 L 760.773438 160.097656 L 771.808594 168.761719 C 775.398438 171.753906 778.886719 174.875 782.4375 177.917969 L 787.742188 182.503906 C 789.464844 184.085938 791.132812 185.726562 792.832031 187.332031 L 802.992188 197.007812 L 812.664062 207.167969 C 814.273438 208.867188 815.914062 210.535156 817.496094 212.257812 L 822.082031 217.566406 C 825.125 221.113281 828.246094 224.601562 831.238281 228.191406 L 839.902344 239.226562 L 842.070312 241.980469 C 842.796875 242.898438 843.527344 243.808594 844.1875 244.777344 L 848.246094 250.496094 L 852.3125 256.210938 L 854.347656 259.066406 L 855.363281 260.496094 L 856.308594 261.972656 C 861.285156 269.882812 866.589844 277.597656 871.058594 285.816406 C 880.625 301.890625 888.589844 318.847656 895.933594 336.015625 L 901.070312 349.054688 L 902.363281 352.3125 C 902.773438 353.40625 903.117188 354.523438 903.496094 355.628906 L 905.738281 362.265625 L 907.988281 368.902344 L 909.117188 372.21875 C 909.472656 373.332031 909.761719 374.464844 910.085938 375.585938 L 913.914062 389.066406 L 914.875 392.433594 C 915.1875 393.5625 915.410156 394.707031 915.683594 395.84375 L 917.253906 402.675781 L 918.835938 409.5 L 919.628906 412.914062 C 919.90625 414.046875 920.054688 415.210938 920.273438 416.355469 C 921.851562 425.566406 923.777344 434.722656 924.730469 444.03125 L 925.617188 450.988281 L 926.285156 456.203125 L 926.414062 457.953125 L 927.472656 471.945312 C 927.628906 474.277344 927.890625 476.605469 927.960938 478.945312 L 928.128906 485.964844 L 928.492188 500 L 928.128906 514.035156 L 927.960938 521.054688 C 927.890625 523.394531 927.628906 525.722656 927.472656 528.054688 L 926.414062 542.046875 L 926.285156 543.792969 L 926.0625 545.535156 L 925.617188 549.011719 L 924.730469 555.964844 C 923.777344 565.277344 921.851562 574.433594 920.273438 583.644531 Z M 958.203125 601.582031 L 928.28125 594.976562 C 929.863281 588.789062 930.828125 582.480469 931.972656 576.203125 L 933.660156 566.785156 L 934.859375 557.289062 L 936.070312 547.792969 L 976.691406 552.191406 C 976.84375 550.894531 977.054688 549.601562 977.148438 548.296875 L 977.449219 544.386719 L 978.046875 536.5625 L 978.636719 528.738281 L 978.933594 524.828125 L 979.042969 520.910156 L 968.839844 520.472656 C 968.824219 523.886719 968.5 527.285156 968.246094 530.6875 L 967.472656 540.898438 L 936.9375 538.261719 L 937.664062 528.714844 C 937.902344 525.53125 938.214844 522.351562 938.21875 519.15625 L 938.710938 500 L 938.460938 490.421875 L 979.308594 489.546875 L 979.109375 481.703125 L 979.011719 477.785156 C 978.976562 476.476562 978.960938 475.171875 978.835938 473.867188 L 977.648438 458.222656 L 967.472656 459.101562 L 968.246094 469.3125 C 968.5 472.714844 968.824219 476.113281 968.839844 479.527344 L 938.21875 480.84375 C 938.214844 477.648438 937.902344 474.46875 937.664062 471.285156 L 936.9375 461.738281 C 936.605469 455.355469 935.636719 449.046875 934.859375 442.710938 L 933.660156 433.214844 L 974.054688 427.046875 L 971.300781 411.59375 L 969.917969 403.871094 C 969.378906 401.3125 968.757812 398.769531 968.179688 396.214844 L 958.203125 398.417969 C 959.882812 405.042969 960.9375 411.792969 962.160156 418.507812 L 931.972656 423.796875 C 930.828125 417.519531 929.863281 411.207031 928.28125 405.023438 L 926.128906 395.699219 L 925.058594 391.035156 C 924.691406 389.484375 924.203125 387.964844 923.78125 386.429688 L 921.167969 377.226562 L 960.398438 365.808594 L 958.253906 358.261719 C 957.496094 355.753906 956.601562 353.296875 955.78125 350.8125 L 950.746094 335.941406 L 941.148438 339.433594 L 947.714844 358.835938 L 918.484375 368.042969 L 912.351562 349.917969 C 910.082031 343.960938 907.683594 338.046875 905.367188 332.105469 C 904.269531 329.105469 902.855469 326.242188 901.5625 323.328125 L 938.953125 306.851562 L 932.484375 292.550781 C 930.148438 287.871094 927.730469 283.230469 925.355469 278.566406 L 916.300781 283.292969 L 920.96875 292.40625 C 921.734375 293.933594 922.546875 295.433594 923.277344 296.976562 L 925.390625 301.640625 L 897.621094 314.609375 L 895.65625 310.25 C 894.972656 308.808594 894.210938 307.40625 893.492188 305.980469 L 889.128906 297.464844 L 886.949219 293.203125 L 885.859375 291.074219 C 885.480469 290.371094 885.070312 289.6875 884.675781 288.996094 L 879.898438 280.699219 L 875.128906 272.40625 L 910.042969 251.175781 L 901.574219 237.960938 C 900.152344 235.765625 898.769531 233.542969 897.3125 231.371094 L 892.769531 224.976562 L 884.40625 230.84375 L 887.371094 235.015625 C 888.363281 236.402344 889.367188 237.785156 890.261719 239.238281 L 895.785156 247.859375 L 869.957031 264.351562 L 864.796875 256.289062 C 863.964844 254.925781 863.023438 253.636719 862.09375 252.339844 L 859.316406 248.441406 L 853.773438 240.636719 C 852.832031 239.351562 851.964844 238.003906 850.960938 236.761719 L 848.003906 233 L 842.085938 225.472656 L 873.9375 199.878906 L 871.511719 196.796875 C 870.703125 195.765625 869.902344 194.730469 869.027344 193.757812 L 863.894531 187.824219 L 858.757812 181.894531 L 856.1875 178.933594 L 854.894531 177.453125 L 853.546875 176.035156 L 846.015625 182.9375 C 847.21875 184.152344 848.324219 185.449219 849.441406 186.742188 L 852.792969 190.609375 L 859.496094 198.351562 L 836.027344 218.0625 L 829.761719 210.824219 L 826.628906 207.207031 C 825.589844 205.992188 824.554688 204.777344 823.425781 203.648438 L 810.214844 189.785156 L 803.277344 183.183594 L 831.539062 153.671875 L 825.859375 148.257812 L 823.019531 145.554688 C 822.078125 144.644531 821.054688 143.824219 820.078125 142.957031 L 808.21875 132.683594 L 801.648438 140.503906 L 809.386719 147.207031 L 813.257812 150.558594 C 814.550781 151.671875 815.847656 152.78125 817.0625 153.984375 L 796.351562 176.574219 C 795.222656 175.445312 794.007812 174.410156 792.792969 173.371094 L 789.175781 170.238281 L 781.9375 163.96875 C 780.71875 162.941406 779.558594 161.839844 778.292969 160.867188 L 774.527344 157.914062 L 767 151.996094 L 763.234375 149.035156 C 761.992188 148.035156 760.648438 147.167969 759.363281 146.226562 L 783.550781 113.296875 L 770.757812 104.199219 C 769.683594 103.457031 768.644531 102.660156 767.542969 101.957031 L 764.242188 99.839844 L 757.636719 95.601562 L 752.140625 104.210938 L 760.761719 109.738281 C 762.214844 110.632812 763.597656 111.636719 764.984375 112.628906 L 769.15625 115.59375 L 751.558594 140.683594 L 747.660156 137.90625 C 746.363281 136.976562 745.074219 136.035156 743.710938 135.203125 L 735.648438 130.042969 L 727.59375 124.871094 L 719.300781 120.101562 L 711.003906 115.324219 L 730.6875 79.519531 C 728.445312 78.167969 726.078125 77.050781 723.761719 75.835938 L 716.773438 72.257812 L 709.789062 68.683594 L 708.042969 67.789062 L 706.257812 66.976562 L 702.679688 65.355469 L 698.359375 74.613281 L 703.023438 76.722656 C 704.566406 77.453125 706.066406 78.265625 707.59375 79.03125 L 716.707031 83.699219 L 702.535156 110.871094 C 691.269531 104.875 679.625 99.636719 667.894531 94.632812 L 658.992188 91.125 L 673.8125 53.046875 L 666.507812 50.171875 C 665.296875 49.671875 664.0625 49.242188 662.820312 48.832031 L 659.101562 47.570312 L 644.230469 42.542969 L 641.164062 52.285156 L 660.566406 58.851562 L 650.082031 87.648438 L 631.957031 81.515625 C 630.457031 80.96875 628.90625 80.578125 627.375 80.136719 L 622.773438 78.832031 L 613.570312 76.21875 C 612.035156 75.796875 610.515625 75.308594 608.960938 74.941406 L 604.300781 73.871094 L 613.980469 34.171875 L 598.683594 30.644531 L 596.773438 30.203125 L 594.84375 29.851562 L 590.980469 29.160156 L 583.253906 27.78125 L 581.492188 37.839844 C 588.207031 39.0625 594.957031 40.117188 601.582031 41.792969 L 594.976562 71.71875 C 588.792969 70.136719 582.480469 69.171875 576.203125 68.027344 L 566.785156 66.339844 L 557.289062 65.140625 L 547.792969 63.929688 L 552.191406 23.308594 C 550.894531 23.15625 549.601562 22.945312 548.296875 22.851562 L 544.386719 22.550781 L 536.5625 21.953125 L 528.738281 21.359375 L 524.828125 21.066406 L 520.910156 20.957031 L 520.472656 31.160156 C 523.886719 31.175781 527.285156 31.5 530.6875 31.753906 L 540.898438 32.527344 L 538.261719 63.0625 L 528.714844 62.332031 C 525.53125 62.097656 522.351562 61.785156 519.15625 61.78125 L 500 61.289062 L 490.421875 61.539062 L 489.546875 20.6875 L 481.703125 20.890625 L 477.785156 20.988281 C 476.476562 21.023438 475.171875 21.039062 473.867188 21.164062 L 458.222656 22.351562 L 459.101562 32.527344 L 469.3125 31.753906 C 472.714844 31.5 476.113281 31.175781 479.527344 31.160156 L 480.84375 61.78125 C 477.648438 61.785156 474.46875 62.097656 471.285156 62.332031 L 461.738281 63.0625 C 455.355469 63.394531 449.046875 64.363281 442.710938 65.140625 L 433.214844 66.339844 L 427.046875 25.945312 L 411.59375 28.699219 L 403.871094 30.082031 C 401.3125 30.621094 398.769531 31.242188 396.214844 31.820312 L 398.417969 41.792969 C 405.042969 40.117188 411.792969 39.0625 418.507812 37.839844 L 423.796875 68.027344 C 417.519531 69.171875 411.207031 70.136719 405.023438 71.71875 L 395.699219 73.871094 L 391.035156 74.941406 C 389.484375 75.308594 387.964844 75.796875 386.429688 76.21875 L 377.226562 78.832031 L 365.808594 39.601562 L 358.261719 41.746094 C 355.753906 42.503906 353.292969 43.398438 350.8125 44.21875 L 335.941406 49.253906 L 339.433594 58.851562 L 358.835938 52.285156 L 368.042969 81.515625 L 349.917969 87.648438 C 343.960938 89.917969 338.046875 92.316406 332.105469 94.632812 C 329.105469 95.730469 326.242188 97.140625 323.328125 98.4375 L 306.851562 61.046875 L 292.550781 67.515625 C 287.871094 69.851562 283.230469 72.269531 278.566406 74.644531 L 283.292969 83.699219 L 292.40625 79.03125 C 293.929688 78.265625 295.433594 77.453125 296.976562 76.722656 L 301.640625 74.613281 L 314.609375 102.378906 L 310.25 104.34375 C 308.808594 105.03125 307.40625 105.789062 305.980469 106.507812 L 297.464844 110.871094 L 293.203125 113.050781 L 291.074219 114.140625 C 290.371094 114.519531 289.6875 114.929688 288.996094 115.324219 L 280.699219 120.101562 L 272.40625 124.871094 L 251.175781 89.957031 L 237.960938 98.425781 C 235.765625 99.847656 233.542969 101.230469 231.371094 102.6875 L 224.976562 107.230469 L 230.84375 115.59375 L 235.015625 112.628906 C 236.402344 111.636719 237.785156 110.632812 239.238281 109.738281 L 247.859375 104.210938 L 264.351562 130.042969 L 256.289062 135.203125 C 254.925781 136.035156 253.636719 136.976562 252.339844 137.90625 L 248.441406 140.683594 L 240.636719 146.226562 C 239.351562 147.167969 238.003906 148.035156 236.761719 149.035156 L 233 151.996094 L 225.472656 157.914062 L 199.878906 126.0625 L 196.796875 128.488281 C 195.765625 129.292969 194.730469 130.097656 193.757812 130.972656 L 187.824219 136.105469 L 181.894531 141.242188 L 178.933594 143.8125 L 177.453125 145.101562 L 176.035156 146.457031 L 182.9375 153.984375 C 184.152344 152.78125 185.449219 151.671875 186.742188 150.558594 L 190.609375 147.207031 L 198.351562 140.503906 L 218.0625 163.96875 L 210.824219 170.238281 L 207.207031 173.371094 C 205.992188 174.410156 204.777344 175.445312 203.648438 176.574219 L 189.785156 189.785156 L 183.183594 196.722656 L 153.671875 168.460938 L 148.257812 174.140625 L 145.554688 176.980469 C 144.644531 177.921875 143.824219 178.941406 142.957031 179.921875 L 132.683594 191.78125 L 140.503906 198.351562 L 147.207031 190.609375 L 150.558594 186.742188 C 151.671875 185.449219 152.78125 184.152344 153.984375 182.9375 L 176.574219 203.648438 C 175.445312 204.777344 174.410156 205.992188 173.371094 207.207031 L 170.238281 210.824219 L 163.96875 218.0625 C 162.941406 219.28125 161.839844 220.441406 160.867188 221.707031 L 157.914062 225.472656 L 151.996094 233 L 149.035156 236.761719 C 148.035156 238.003906 147.167969 239.351562 146.226562 240.636719 L 113.296875 216.449219 L 104.199219 229.238281 C 103.457031 230.3125 102.660156 231.355469 101.957031 232.457031 L 99.839844 235.757812 L 95.601562 242.363281 L 104.210938 247.859375 L 109.738281 239.238281 C 110.632812 237.785156 111.636719 236.402344 112.628906 235.015625 L 115.59375 230.84375 L 140.683594 248.441406 L 137.90625 252.339844 C 136.976562 253.636719 136.035156 254.925781 135.203125 256.289062 L 130.042969 264.351562 L 124.871094 272.40625 L 120.101562 280.699219 L 115.324219 288.996094 L 79.519531 269.3125 C 78.167969 271.554688 77.050781 273.921875 75.835938 276.238281 L 72.257812 283.226562 L 68.683594 290.210938 L 67.789062 291.957031 L 66.976562 293.742188 L 65.355469 297.316406 L 74.609375 301.640625 L 76.722656 296.976562 C 77.457031 295.433594 78.265625 293.933594 79.03125 292.40625 L 83.703125 283.292969 L 110.871094 297.464844 C 104.875 308.730469 99.636719 320.375 94.632812 332.105469 L 91.125 341.007812 L 53.046875 326.1875 L 50.171875 333.492188 C 49.667969 334.703125 49.242188 335.9375 48.832031 337.179688 L 47.570312 340.898438 L 42.542969 355.769531 L 52.285156 358.835938 L 58.851562 339.433594 L 87.648438 349.917969 L 81.515625 368.042969 C 80.96875 369.542969 80.582031 371.09375 80.136719 372.625 L 78.832031 377.226562 L 76.214844 386.429688 C 75.796875 387.964844 75.304688 389.484375 74.941406 391.035156 L 73.871094 395.699219 L 34.171875 386.019531 L 30.644531 401.316406 L 30.203125 403.226562 L 29.851562 405.15625 L 29.160156 409.019531 L 27.78125 416.746094 L 37.839844 418.507812 C 39.0625 411.792969 40.117188 405.042969 41.792969 398.417969 L 71.71875 405.023438 C 70.136719 411.207031 69.171875 417.519531 68.027344 423.796875 L 66.339844 433.214844 L 65.140625 442.710938 L 63.929688 452.207031 L 23.308594 447.808594 C 23.15625 449.105469 22.945312 450.398438 22.851562 451.703125 L 22.550781 455.613281 L 21.953125 463.4375 L 21.359375 471.261719 L 21.066406 475.171875 L 20.957031 479.089844 L 31.160156 479.527344 C 31.175781 476.113281 31.5 472.714844 31.753906 469.3125 L 32.527344 459.101562 L 63.058594 461.738281 L 62.335938 471.285156 C 62.097656 474.46875 61.785156 477.648438 61.78125 480.84375 L 61.289062 500 L 61.539062 509.578125 L 20.691406 510.453125 L 20.890625 518.292969 L 20.988281 522.214844 C 21.023438 523.523438 21.039062 524.828125 21.164062 526.132812 L 22.351562 541.777344 L 32.527344 540.898438 L 31.753906 530.6875 C 31.5 527.285156 31.175781 523.886719 31.160156 520.472656 L 61.78125 519.15625 C 61.785156 522.351562 62.097656 525.53125 62.335938 528.714844 L 63.058594 538.261719 C 63.394531 544.644531 64.363281 550.953125 65.140625 557.289062 L 66.339844 566.785156 L 25.945312 572.953125 L 28.699219 588.402344 L 30.082031 596.128906 C 30.621094 598.6875 31.242188 601.230469 31.820312 603.78125 L 41.792969 601.582031 C 40.117188 594.957031 39.0625 588.207031 37.839844 581.492188 L 68.027344 576.203125 C 69.171875 582.480469 70.136719 588.789062 71.71875 594.976562 L 73.871094 604.300781 L 74.941406 608.960938 C 75.304688 610.515625 75.796875 612.035156 76.214844 613.570312 L 78.832031 622.773438 L 39.601562 634.1875 L 41.746094 641.738281 C 42.5 644.246094 43.398438 646.703125 44.21875 649.1875 L 49.253906 664.058594 L 58.851562 660.5625 L 52.285156 641.164062 L 81.515625 631.957031 L 87.648438 650.082031 C 89.917969 656.039062 92.316406 661.953125 94.632812 667.894531 C 95.730469 670.894531 97.144531 673.757812 98.4375 676.671875 L 61.046875 693.148438 L 67.515625 707.449219 C 69.851562 712.128906 72.269531 716.769531 74.644531 721.433594 L 83.703125 716.707031 L 79.03125 707.59375 C 78.265625 706.066406 77.457031 704.5625 76.722656 703.023438 L 74.609375 698.359375 L 102.378906 685.390625 L 104.34375 689.75 C 105.03125 691.191406 105.789062 692.59375 106.507812 694.019531 L 110.871094 702.535156 L 113.050781 706.796875 L 114.140625 708.925781 C 114.519531 709.628906 114.929688 710.3125 115.324219 711.003906 L 120.101562 719.300781 L 124.871094 727.59375 L 89.957031 748.824219 L 98.425781 762.039062 C 99.847656 764.234375 101.230469 766.457031 102.6875 768.628906 L 107.230469 775.023438 L 115.59375 769.15625 L 112.628906 764.984375 C 111.636719 763.597656 110.632812 762.214844 109.738281 760.761719 L 104.210938 752.140625 L 130.042969 735.648438 L 135.203125 743.710938 C 136.035156 745.074219 136.976562 746.363281 137.90625 747.660156 L 140.683594 751.558594 L 146.226562 759.363281 C 147.167969 760.648438 148.035156 761.992188 149.035156 763.234375 L 151.996094 767 L 157.914062 774.527344 L 126.0625 800.121094 L 128.488281 803.203125 C 129.292969 804.234375 130.097656 805.269531 130.972656 806.242188 L 136.105469 812.175781 L 141.242188 818.101562 L 143.8125 821.066406 L 145.101562 822.546875 L 146.453125 823.964844 L 153.984375 817.0625 C 152.78125 815.847656 151.671875 814.550781 150.558594 813.257812 L 147.207031 809.386719 L 140.503906 801.648438 L 163.96875 781.9375 L 170.238281 789.175781 L 173.371094 792.792969 C 174.410156 794.007812 175.445312 795.222656 176.574219 796.351562 L 189.785156 810.214844 L 196.722656 816.816406 L 168.460938 846.328125 L 174.140625 851.742188 L 176.980469 854.445312 C 177.921875 855.355469 178.941406 856.175781 179.921875 857.042969 L 191.78125 867.316406 L 198.351562 859.496094 L 190.609375 852.792969 L 186.742188 849.4375 C 185.449219 848.324219 184.152344 847.214844 182.9375 846.015625 L 203.648438 823.425781 C 204.777344 824.554688 205.992188 825.589844 207.207031 826.628906 L 210.824219 829.761719 L 218.0625 836.03125 C 219.28125 837.058594 220.441406 838.160156 221.707031 839.132812 L 225.472656 842.085938 L 233 848.003906 L 236.761719 850.960938 C 238.003906 851.964844 239.351562 852.828125 240.636719 853.773438 L 216.449219 886.703125 L 229.238281 895.800781 C 230.316406 896.546875 231.355469 897.339844 232.457031 898.042969 L 235.757812 900.160156 L 242.363281 904.398438 L 247.859375 895.789062 L 239.238281 890.261719 C 237.785156 889.367188 236.402344 888.363281 235.015625 887.371094 L 230.84375 884.40625 L 248.441406 859.316406 L 252.339844 862.09375 C 253.636719 863.019531 254.925781 863.964844 256.289062 864.796875 L 264.351562 869.957031 L 272.40625 875.128906 L 280.699219 879.898438 L 288.996094 884.675781 L 269.3125 920.480469 C 271.554688 921.832031 273.921875 922.949219 276.238281 924.164062 L 283.226562 927.738281 L 291.957031 932.210938 L 293.742188 933.023438 L 297.316406 934.644531 L 301.640625 925.386719 L 296.976562 923.277344 C 295.433594 922.542969 293.929688 921.734375 292.40625 920.96875 L 283.292969 916.296875 L 297.464844 889.128906 C 308.730469 895.125 320.375 900.363281 332.105469 905.367188 L 341.007812 908.875 L 326.1875 946.953125 L 333.492188 949.828125 C 334.699219 950.332031 335.9375 950.757812 337.179688 951.167969 L 340.898438 952.425781 L 355.769531 957.457031 L 358.835938 947.714844 L 339.433594 941.148438 L 349.917969 912.355469 L 368.042969 918.484375 C 369.542969 919.03125 371.09375 919.417969 372.625 919.863281 L 377.226562 921.167969 L 386.429688 923.78125 C 387.964844 924.203125 389.484375 924.691406 391.035156 925.058594 L 395.699219 926.128906 L 386.019531 965.824219 L 401.316406 969.355469 L 403.230469 969.792969 L 405.15625 970.148438 L 416.746094 972.222656 L 418.507812 962.160156 C 411.792969 960.9375 405.042969 959.882812 398.417969 958.207031 L 405.023438 928.28125 C 411.207031 929.863281 417.519531 930.828125 423.796875 931.972656 L 433.214844 933.660156 L 442.710938 934.859375 L 452.207031 936.070312 L 447.808594 976.691406 C 449.105469 976.84375 450.398438 977.054688 451.703125 977.148438 L 455.613281 977.449219 L 463.4375 978.046875 L 471.261719 978.636719 L 475.171875 978.933594 L 479.089844 979.042969 L 479.527344 968.839844 C 476.113281 968.824219 472.714844 968.5 469.3125 968.246094 L 459.101562 967.472656 L 461.738281 936.9375 L 471.285156 937.664062 C 474.46875 937.902344 477.648438 938.214844 480.84375 938.21875 L 500 938.710938 L 509.578125 938.460938 L 510.453125 979.308594 L 518.296875 979.109375 L 522.214844 979.007812 C 523.523438 978.976562 524.828125 978.960938 526.132812 978.835938 L 541.777344 977.648438 L 540.898438 967.472656 L 530.6875 968.246094 C 527.285156 968.5 523.886719 968.824219 520.472656 968.839844 L 519.15625 938.21875 C 522.351562 938.214844 525.53125 937.902344 528.714844 937.664062 L 538.261719 936.9375 C 544.644531 936.605469 550.953125 935.636719 557.289062 934.859375 L 566.785156 933.660156 L 572.953125 974.050781 L 588.402344 971.300781 L 596.128906 969.917969 C 598.6875 969.378906 601.230469 968.757812 603.785156 968.179688 L 601.582031 958.207031 C 594.957031 959.882812 588.207031 960.9375 581.492188 962.160156 L 576.203125 931.972656 C 582.480469 930.828125 588.792969 929.863281 594.976562 928.28125 L 604.300781 926.128906 L 608.960938 925.058594 C 610.515625 924.691406 612.035156 924.203125 613.570312 923.78125 L 622.773438 921.167969 L 634.191406 960.398438 L 641.738281 958.25 C 644.246094 957.496094 646.703125 956.601562 649.1875 955.78125 L 664.058594 950.746094 L 660.566406 941.148438 L 641.164062 947.714844 L 631.957031 918.484375 L 650.082031 912.355469 C 656.039062 910.082031 661.953125 907.683594 667.894531 905.367188 C 670.890625 904.269531 673.757812 902.855469 676.671875 901.5625 L 693.148438 938.957031 L 707.449219 932.484375 C 712.128906 930.148438 716.769531 927.730469 721.433594 925.355469 L 716.707031 916.296875 L 707.59375 920.96875 C 706.066406 921.734375 704.566406 922.542969 703.023438 923.277344 L 698.359375 925.386719 L 685.390625 897.621094 L 689.75 895.65625 C 691.191406 894.972656 692.59375 894.210938 694.019531 893.492188 L 702.535156 889.128906 L 706.796875 886.949219 L 708.925781 885.859375 C 709.625 885.480469 710.3125 885.070312 711.003906 884.675781 L 719.300781 879.898438 L 727.59375 875.128906 L 748.824219 910.042969 L 762.039062 901.574219 C 764.234375 900.152344 766.457031 898.769531 768.628906 897.3125 L 775.023438 892.769531 L 769.15625 884.40625 L 764.984375 887.371094 C 763.597656 888.363281 762.214844 889.367188 760.761719 890.261719 L 752.140625 895.789062 L 735.648438 869.957031 L 743.710938 864.796875 C 745.074219 863.964844 746.363281 863.019531 747.660156 862.09375 L 751.558594 859.316406 L 759.363281 853.773438 C 760.648438 852.828125 761.992188 851.964844 763.234375 850.960938 L 767 848.003906 L 774.527344 842.085938 L 800.121094 873.9375 L 803.203125 871.511719 C 804.234375 870.707031 805.269531 869.902344 806.242188 869.027344 L 812.175781 863.894531 L 818.105469 858.757812 L 821.066406 856.1875 L 822.546875 854.898438 L 823.964844 853.546875 L 817.0625 846.015625 C 815.847656 847.214844 814.550781 848.324219 813.257812 849.4375 L 809.386719 852.792969 L 801.648438 859.496094 L 781.9375 836.03125 L 789.175781 829.761719 L 792.792969 826.628906 C 794.007812 825.589844 795.222656 824.554688 796.351562 823.425781 L 810.214844 810.214844 L 816.816406 803.277344 L 846.328125 831.539062 L 851.742188 825.859375 L 854.445312 823.019531 C 855.355469 822.078125 856.175781 821.054688 857.042969 820.078125 L 867.316406 808.21875 L 859.496094 801.648438 L 852.792969 809.386719 L 849.441406 813.257812 C 848.324219 814.550781 847.21875 815.847656 846.015625 817.0625 L 823.425781 796.351562 C 824.554688 795.222656 825.589844 794.007812 826.628906 792.792969 L 829.761719 789.175781 L 836.027344 781.9375 C 837.058594 780.71875 838.160156 779.558594 839.132812 778.292969 L 842.085938 774.527344 L 848.003906 767 L 850.960938 763.234375 C 851.964844 761.992188 852.832031 760.648438 853.773438 759.363281 L 886.703125 783.550781 L 895.800781 770.757812 C 896.542969 769.683594 897.339844 768.644531 898.042969 767.542969 L 900.160156 764.242188 L 904.398438 757.636719 L 895.785156 752.140625 L 890.261719 760.761719 C 889.367188 762.214844 888.363281 763.597656 887.371094 764.984375 L 884.40625 769.15625 L 859.316406 751.558594 L 862.09375 747.660156 C 863.023438 746.363281 863.964844 745.074219 864.796875 743.710938 L 869.957031 735.648438 L 875.128906 727.59375 L 879.898438 719.300781 L 884.675781 711.003906 L 920.480469 730.6875 C 921.832031 728.445312 922.949219 726.078125 924.160156 723.761719 L 927.738281 716.773438 L 932.210938 708.042969 L 933.023438 706.257812 L 934.644531 702.683594 L 925.390625 698.359375 L 923.277344 703.023438 C 922.546875 704.5625 921.734375 706.066406 920.96875 707.59375 L 916.300781 716.707031 L 889.128906 702.535156 C 895.125 691.269531 900.363281 679.625 905.367188 667.894531 L 908.875 658.992188 L 946.953125 673.8125 L 949.828125 666.507812 C 950.328125 665.296875 950.757812 664.0625 951.167969 662.820312 L 952.429688 659.101562 L 957.457031 644.230469 L 947.714844 641.164062 L 941.148438 660.5625 L 912.351562 650.082031 L 918.484375 631.957031 C 919.03125 630.457031 919.417969 628.90625 919.863281 627.375 L 921.167969 622.773438 L 923.78125 613.570312 C 924.203125 612.035156 924.691406 610.515625 925.058594 608.960938 L 926.128906 604.300781 L 965.824219 613.980469 L 969.355469 598.683594 L 969.792969 596.769531 L 970.148438 594.84375 L 972.222656 583.253906 L 962.160156 581.492188 C 960.9375 588.207031 959.882812 594.957031 958.203125 601.582031"/><path d="M 929.640625 630.339844 C 929.296875 631.511719 928.992188 632.699219 928.621094 633.863281 L 927.441406 637.34375 L 925.085938 644.296875 L 934.757812 647.582031 L 937.96875 638.09375 C 938.542969 636.523438 938.949219 634.902344 939.414062 633.300781 L 940.78125 628.484375 L 970.207031 637.042969 C 965.355469 654.191406 959.242188 670.953125 952.550781 687.457031 L 961.984375 691.371094 L 967.992188 676.140625 L 969.484375 672.332031 C 969.964844 671.054688 970.375 669.753906 970.824219 668.464844 L 973.453125 660.710938 L 976.070312 652.957031 L 977.378906 649.078125 C 977.789062 647.777344 978.136719 646.457031 978.519531 645.144531 L 982.996094 629.398438 L 933.652344 616.210938 L 929.640625 630.339844"/><path d="M 913.4375 675.214844 L 911.921875 678.558594 L 908.894531 685.25 L 905.871094 691.945312 C 905.351562 693.054688 904.894531 694.191406 904.324219 695.273438 L 902.648438 698.542969 L 911.808594 703.066406 C 912.558594 701.578125 913.351562 700.105469 914.070312 698.601562 L 916.132812 694.035156 L 920.257812 684.90625 L 948.304688 697.265625 L 942.796875 709.4375 L 941.410156 712.480469 L 936.851562 721.398438 L 930.753906 733.289062 L 924.109375 744.878906 L 888.742188 724.414062 C 884.050781 733.019531 878.511719 741.113281 873.28125 749.394531 L 881.773438 755.078125 L 892.585938 738.210938 L 918.769531 754.132812 L 911.566406 765.382812 L 907.960938 771 L 906.152344 773.8125 L 904.222656 776.535156 L 896.484375 787.421875 L 892.613281 792.859375 L 888.5 798.117188 L 856.101562 773.222656 L 847.023438 784.777344 C 843.890625 788.539062 840.625 792.195312 837.4375 795.914062 L 845.113281 802.648438 L 851.675781 795.078125 C 852.75 793.804688 853.898438 792.585938 854.917969 791.261719 L 858.011719 787.324219 L 881.898438 806.519531 L 877.757812 811.757812 L 873.390625 816.808594 L 864.648438 826.898438 L 862.453125 829.417969 L 855.550781 836.671875 L 846.328125 846.328125 L 853.554688 853.554688 L 864.847656 841.722656 C 866.71875 839.738281 868.621094 837.789062 870.464844 835.78125 L 875.824219 829.601562 C 879.378906 825.46875 883 821.390625 886.488281 817.199219 L 896.601562 804.34375 L 899.125 801.125 C 899.96875 800.054688 900.816406 798.988281 901.585938 797.863281 L 906.335938 791.199219 L 911.070312 784.53125 L 913.441406 781.199219 L 914.617188 779.527344 L 915.726562 777.808594 C 921.574219 768.601562 927.699219 759.5625 932.949219 749.992188 C 944.082031 731.21875 953.4375 711.441406 961.984375 691.371094 L 914.804688 671.808594 C 914.34375 672.941406 913.933594 674.097656 913.4375 675.214844"/><path d="M 806.796875 827.574219 C 805.019531 829.257812 803.273438 830.976562 801.46875 832.628906 L 795.914062 837.4375 L 802.648438 845.113281 L 806.4375 841.835938 C 807.703125 840.746094 808.972656 839.664062 810.15625 838.484375 L 817.40625 831.574219 L 838.605469 853.707031 C 835.375 856.769531 832.175781 859.867188 828.914062 862.894531 L 818.828125 871.644531 L 813.777344 876.015625 C 812.933594 876.734375 812.105469 877.484375 811.242188 878.183594 L 808.617188 880.246094 L 798.121094 888.5 L 773.222656 856.101562 L 770.335938 858.371094 C 769.375 859.132812 768.417969 859.898438 767.40625 860.585938 L 755.429688 869.101562 L 752.4375 871.230469 L 750.941406 872.292969 L 749.394531 873.28125 L 755.078125 881.773438 C 756.5 880.898438 757.851562 879.914062 759.210938 878.945312 L 771.457031 870.238281 L 789.597656 894.9375 L 778.714844 902.675781 C 776.890625 903.957031 775.101562 905.28125 773.25 906.515625 L 767.628906 910.125 L 756.382812 917.332031 C 755.441406 917.921875 754.519531 918.546875 753.558594 919.109375 L 750.664062 920.777344 L 744.875 924.109375 L 749.992188 932.949219 C 759.5625 927.699219 768.601562 921.574219 777.808594 915.726562 L 779.527344 914.617188 L 781.199219 913.441406 L 784.53125 911.070312 L 791.199219 906.335938 L 797.863281 901.585938 C 798.988281 900.816406 800.054688 899.96875 801.125 899.125 L 804.34375 896.601562 L 817.199219 886.488281 C 821.390625 883 825.46875 879.378906 829.601562 875.824219 L 835.777344 870.464844 C 837.789062 868.621094 839.738281 866.71875 841.722656 864.847656 L 853.554688 853.554688 L 817.4375 817.4375 L 806.796875 827.574219"/><path d="M 718.046875 892.40625 C 715.921875 893.621094 713.820312 894.886719 711.617188 895.953125 L 698.542969 902.648438 L 703.070312 911.808594 L 711.984375 907.242188 L 716.441406 904.960938 L 718.671875 903.816406 C 719.402344 903.417969 720.121094 902.988281 720.847656 902.578125 L 735.609375 929.433594 C 733.699219 930.578125 731.703125 931.566406 729.722656 932.585938 L 723.777344 935.632812 C 719.808594 937.652344 715.859375 939.710938 711.875 941.691406 L 699.703125 947.203125 L 693.613281 949.949219 L 690.5625 951.320312 L 687.457031 952.546875 L 691.371094 961.984375 C 711.441406 953.4375 731.214844 944.082031 749.992188 932.949219 L 724.414062 888.742188 L 718.046875 892.40625"/><path d="M 658.144531 920.191406 L 654.726562 921.539062 C 653.582031 921.972656 652.410156 922.335938 651.257812 922.734375 L 644.296875 925.085938 L 647.582031 934.757812 L 657.070312 931.550781 C 660.203125 930.402344 663.289062 929.121094 666.402344 927.914062 L 677.515625 956.472656 L 671.296875 958.917969 L 668.1875 960.132812 L 665.023438 961.207031 L 652.367188 965.492188 L 646.035156 967.625 C 643.90625 968.277344 641.753906 968.859375 639.613281 969.476562 L 626.761719 973.125 L 629.398438 982.996094 L 645.144531 978.519531 C 646.457031 978.136719 647.777344 977.789062 649.078125 977.378906 L 652.957031 976.070312 L 660.710938 973.453125 L 668.464844 970.824219 C 669.753906 970.375 671.054688 969.964844 672.332031 969.484375 L 676.140625 967.992188 L 691.371094 961.984375 L 671.808594 914.804688 L 658.144531 920.191406"/><path d="M 612.679688 934.65625 C 611.496094 934.980469 610.296875 935.21875 609.105469 935.503906 L 601.949219 937.152344 L 591.214844 939.636719 C 590.023438 939.925781 588.808594 940.085938 587.605469 940.316406 L 589.589844 950.335938 C 592.894531 949.828125 596.121094 948.949219 599.378906 948.230469 L 609.140625 945.980469 L 616.402344 975.75 C 607.710938 977.699219 599.082031 979.960938 590.277344 981.34375 L 577.125 983.6875 C 574.9375 984.117188 572.726562 984.382812 570.519531 984.660156 L 563.894531 985.507812 L 565.214844 995.632812 C 576.066406 994.480469 586.773438 992.300781 597.519531 990.417969 C 598.859375 990.164062 600.210938 989.976562 601.539062 989.65625 L 605.527344 988.742188 L 613.503906 986.902344 L 621.480469 985.058594 C 622.804688 984.738281 624.144531 984.464844 625.457031 984.105469 L 629.398438 982.996094 L 616.210938 933.652344 L 612.679688 934.65625"/><path d="M 551.324219 945.914062 L 547.679688 946.378906 L 545.855469 946.609375 L 544.023438 946.746094 L 529.371094 947.859375 L 530.03125 958.054688 L 540.019531 957.292969 C 543.347656 957.011719 546.6875 956.882812 549.992188 956.382812 L 553.292969 986.847656 L 549.980469 987.261719 L 546.652344 987.519531 L 539.996094 988.027344 L 526.679688 989.035156 C 525.570312 989.140625 524.460938 989.175781 523.347656 989.195312 L 520.011719 989.28125 L 513.339844 989.457031 L 500 989.785156 L 500 948.925781 L 485.304688 948.546875 L 477.957031 948.363281 C 475.507812 948.289062 473.070312 948.019531 470.628906 947.859375 L 469.96875 958.054688 C 476.621094 958.714844 483.308594 958.664062 489.984375 958.886719 L 489.324219 989.523438 L 475.984375 989.179688 C 471.542969 988.960938 467.105469 988.542969 462.667969 988.230469 C 458.230469 987.882812 453.789062 987.582031 449.359375 987.183594 L 436.105469 985.507812 L 434.785156 995.632812 L 442.902344 996.664062 L 446.960938 997.175781 L 448.988281 997.425781 L 451.027344 997.582031 L 467.335938 998.828125 C 470.054688 999.007812 472.769531 999.292969 475.492188 999.382812 L 483.660156 999.597656 L 500 1000 L 516.339844 999.597656 L 524.507812 999.382812 C 527.230469 999.292969 529.945312 999.007812 532.664062 998.828125 L 548.972656 997.582031 L 551.007812 997.425781 L 553.039062 997.175781 L 557.097656 996.664062 L 565.214844 995.632812 L 558.609375 944.988281 L 551.324219 945.914062"/><path d="M 412.394531 940.316406 L 410.410156 950.335938 L 430.132812 953.855469 L 425.507812 984.148438 L 412.351562 981.8125 L 405.777344 980.636719 C 403.589844 980.226562 401.386719 979.898438 399.222656 979.355469 L 386.203125 976.351562 C 381.867188 975.332031 377.503906 974.429688 373.238281 973.125 L 370.601562 982.996094 L 374.542969 984.105469 C 375.855469 984.464844 377.195312 984.738281 378.519531 985.058594 L 386.496094 986.902344 L 394.472656 988.742188 L 398.460938 989.65625 C 399.789062 989.976562 401.140625 990.164062 402.480469 990.417969 C 413.226562 992.300781 423.929688 994.480469 434.785156 995.632812 L 441.390625 944.988281 C 431.640625 943.976562 422.042969 941.976562 412.394531 940.316406"/><path d="M 369.660156 929.640625 C 368.488281 929.296875 367.300781 928.992188 366.136719 928.621094 L 362.65625 927.441406 L 355.699219 925.085938 L 352.417969 934.757812 L 361.90625 937.96875 C 363.476562 938.542969 365.097656 938.949219 366.699219 939.414062 L 371.515625 940.78125 L 362.957031 970.207031 C 345.808594 965.355469 329.046875 959.242188 312.542969 952.546875 L 328.191406 914.804688 C 327.058594 914.34375 325.902344 913.933594 324.785156 913.4375 L 321.441406 911.921875 L 314.75 908.894531 L 308.054688 905.871094 C 306.945312 905.351562 305.808594 904.894531 304.722656 904.324219 L 301.457031 902.648438 L 296.929688 911.808594 C 298.421875 912.558594 299.894531 913.351562 301.398438 914.070312 L 305.964844 916.132812 L 315.089844 920.257812 L 302.734375 948.300781 L 290.5625 942.792969 L 287.519531 941.410156 L 278.601562 936.851562 L 266.710938 930.753906 L 255.121094 924.109375 L 250.007812 932.949219 C 268.78125 944.082031 288.558594 953.4375 308.628906 961.984375 L 323.859375 967.992188 L 327.667969 969.484375 C 328.945312 969.964844 330.246094 970.375 331.535156 970.824219 L 339.289062 973.453125 L 347.042969 976.070312 L 350.921875 977.378906 C 352.222656 977.789062 353.542969 978.136719 354.855469 978.519531 L 370.601562 982.996094 L 383.789062 933.652344 L 369.660156 929.640625"/><path d="M 250.605469 873.28125 L 244.921875 881.773438 L 261.789062 892.585938 L 245.867188 918.769531 L 234.617188 911.566406 L 229 907.960938 L 226.1875 906.15625 L 223.464844 904.226562 L 212.578125 896.488281 L 207.140625 892.613281 L 201.878906 888.5 L 226.777344 856.101562 L 215.222656 847.023438 C 211.460938 843.890625 207.804688 840.625 204.085938 837.4375 L 197.351562 845.113281 L 204.921875 851.675781 C 206.199219 852.75 207.414062 853.898438 208.738281 854.917969 L 212.675781 858.011719 L 193.480469 881.898438 L 188.242188 877.757812 L 183.191406 873.390625 L 173.101562 864.648438 L 170.582031 862.453125 L 163.328125 855.550781 L 153.671875 846.328125 L 182.5625 817.4375 L 172.425781 806.800781 C 170.742188 805.019531 169.023438 803.273438 167.371094 801.46875 L 162.5625 795.914062 L 154.886719 802.648438 L 158.164062 806.4375 C 159.253906 807.703125 160.335938 808.972656 161.515625 810.15625 L 168.425781 817.40625 L 146.292969 838.601562 C 143.230469 835.375 140.132812 832.175781 137.101562 828.914062 L 128.355469 818.828125 L 123.984375 813.777344 C 123.265625 812.933594 122.515625 812.105469 121.816406 811.242188 L 119.753906 808.617188 L 111.5 798.121094 L 103.398438 804.34375 L 113.511719 817.199219 C 117 821.390625 120.621094 825.46875 124.175781 829.601562 L 129.535156 835.78125 C 131.378906 837.789062 133.28125 839.738281 135.152344 841.722656 L 146.445312 853.554688 L 158.277344 864.847656 C 160.261719 866.71875 162.210938 868.621094 164.21875 870.464844 L 170.398438 875.824219 C 174.53125 879.378906 178.609375 883 182.796875 886.488281 L 195.65625 896.601562 L 198.875 899.125 C 199.945312 899.96875 201.011719 900.816406 202.136719 901.585938 L 208.800781 906.335938 L 215.46875 911.070312 L 218.800781 913.441406 L 220.472656 914.617188 L 222.191406 915.726562 C 231.398438 921.574219 240.4375 927.699219 250.007812 932.949219 L 275.585938 888.742188 C 266.980469 884.050781 258.886719 878.511719 250.605469 873.28125"/><path d="M 141.628906 770.335938 C 140.867188 769.375 140.101562 768.417969 139.414062 767.40625 L 130.898438 755.429688 L 128.769531 752.4375 L 127.707031 750.941406 L 126.714844 749.394531 L 118.226562 755.078125 C 119.101562 756.5 120.085938 757.851562 121.054688 759.210938 L 129.761719 771.457031 L 105.0625 789.597656 L 97.320312 778.714844 C 96.042969 776.890625 94.71875 775.101562 93.484375 773.25 L 89.875 767.628906 L 82.667969 756.382812 C 82.078125 755.441406 81.453125 754.519531 80.890625 753.558594 L 79.222656 750.664062 L 75.890625 744.878906 L 67.046875 749.992188 C 72.300781 759.5625 78.425781 768.601562 84.273438 777.808594 L 85.378906 779.527344 L 86.558594 781.199219 L 88.925781 784.53125 L 93.664062 791.199219 L 98.410156 797.863281 C 99.183594 798.988281 100.03125 800.054688 100.875 801.125 L 103.398438 804.34375 L 143.898438 773.222656 L 141.628906 770.335938"/><path d="M 107.59375 718.046875 C 106.378906 715.921875 105.113281 713.824219 104.046875 711.617188 L 97.347656 698.542969 L 88.191406 703.066406 L 92.757812 711.984375 L 95.039062 716.441406 L 96.179688 718.671875 C 96.582031 719.402344 97.011719 720.121094 97.421875 720.847656 L 70.566406 735.609375 C 69.421875 733.699219 68.433594 731.703125 67.414062 729.722656 L 64.367188 723.777344 C 62.347656 719.808594 60.289062 715.859375 58.308594 711.875 L 52.796875 699.699219 L 50.046875 693.613281 L 48.679688 690.5625 L 47.453125 687.457031 L 85.195312 671.808594 L 79.808594 658.144531 L 78.460938 654.726562 C 78.03125 653.582031 77.664062 652.410156 77.265625 651.257812 L 74.914062 644.296875 L 65.242188 647.582031 L 68.449219 657.070312 C 69.597656 660.203125 70.878906 663.289062 72.085938 666.402344 L 43.527344 677.515625 L 41.082031 671.300781 L 39.867188 668.1875 L 38.792969 665.023438 L 34.507812 652.367188 L 32.371094 646.035156 C 31.722656 643.902344 31.140625 641.753906 30.523438 639.613281 L 26.875 626.761719 L 17.003906 629.398438 L 21.480469 645.144531 C 21.863281 646.457031 22.210938 647.777344 22.621094 649.078125 L 23.925781 652.957031 L 26.546875 660.710938 L 29.175781 668.464844 C 29.621094 669.753906 30.035156 671.054688 30.515625 672.332031 L 32.007812 676.140625 L 38.015625 691.371094 C 46.5625 711.441406 55.917969 731.21875 67.046875 749.992188 L 111.257812 724.414062 L 107.59375 718.046875"/><path d="M 65.34375 612.675781 C 65.019531 611.496094 64.78125 610.296875 64.496094 609.105469 L 61.191406 594.792969 L 60.363281 591.214844 C 60.074219 590.023438 59.914062 588.808594 59.683594 587.605469 L 49.664062 589.589844 C 50.171875 592.894531 51.050781 596.121094 51.769531 599.378906 L 54.023438 609.140625 L 24.25 616.402344 C 22.300781 607.710938 20.039062 599.082031 18.65625 590.277344 L 16.3125 577.125 C 15.878906 574.9375 15.617188 572.726562 15.339844 570.519531 L 14.492188 563.894531 L 4.367188 565.214844 C 5.519531 576.066406 7.699219 586.773438 9.578125 597.519531 C 9.835938 598.859375 10.023438 600.210938 10.34375 601.539062 L 11.257812 605.527344 L 13.09375 613.503906 L 14.941406 621.480469 C 15.261719 622.804688 15.535156 624.144531 15.894531 625.457031 L 17.003906 629.398438 L 66.347656 616.210938 L 65.34375 612.675781"/><path d="M 54.085938 551.324219 L 53.621094 547.679688 L 53.390625 545.855469 L 53.253906 544.023438 L 52.140625 529.371094 L 41.945312 530.03125 L 42.703125 540.019531 C 42.988281 543.347656 43.117188 546.6875 43.617188 549.992188 L 13.152344 553.292969 L 12.738281 549.980469 L 12.480469 546.652344 L 11.96875 539.996094 L 10.964844 526.679688 C 10.863281 525.570312 10.824219 524.460938 10.804688 523.347656 L 10.714844 520.011719 L 10.542969 513.339844 L 10.214844 500 L 51.074219 500 L 51.453125 485.304688 L 51.632812 477.957031 C 51.710938 475.507812 51.976562 473.070312 52.140625 470.628906 L 41.945312 469.96875 C 41.285156 476.621094 41.335938 483.308594 41.113281 489.984375 L 10.476562 489.328125 L 10.820312 475.984375 C 11.039062 471.542969 11.457031 467.105469 11.769531 462.667969 C 12.117188 458.230469 12.417969 453.789062 12.816406 449.355469 L 14.492188 436.105469 L 4.367188 434.785156 L 3.335938 442.902344 L 2.828125 446.960938 L 2.574219 448.988281 L 2.417969 451.027344 L 1.171875 467.335938 C 0.992188 470.054688 0.707031 472.769531 0.617188 475.492188 L 0.402344 483.660156 L 0 500 L 0.402344 516.339844 L 0.617188 524.507812 C 0.707031 527.230469 0.992188 529.945312 1.171875 532.664062 L 2.417969 548.972656 L 2.574219 551.007812 L 2.828125 553.039062 L 3.335938 557.097656 L 4.367188 565.214844 L 55.011719 558.609375 L 54.085938 551.324219"/></g></svg>