<?xml version="1.0" encoding="UTF-8" standalone="no"?><svg xmlns="http://www.w3.org/2000/svg" xmlns:xlink="http://www.w3.org/1999/xlink" clip-rule="evenodd" fill="#000000" fill-rule="evenodd" height="9522" image-rendering="optimizeQuality" preserveAspectRatio="xMidYMid meet" shape-rendering="geometricPrecision" text-rendering="geometricPrecision" version="1" viewBox="0.0 1651.2 8909.1 9522.0" width="8909.1" zoomAndPan="magnify"><defs><linearGradient gradientUnits="userSpaceOnUse" id="a" x1="-2069.18" x2="-2016.37" xlink:actuate="onLoad" xlink:show="other" xlink:type="simple" y1="8256.06" y2="13501.96"><stop offset="0" stop-color="#fbb834"/><stop offset="0.188" stop-color="#ffea8c"/><stop offset="0.412" stop-color="#fdb935"/><stop offset="0.722" stop-color="#ffd382"/><stop offset="1" stop-color="#d6900f"/></linearGradient><linearGradient gradientUnits="objectBoundingBox" id="d" x1="80.981%" x2="79.275%" xlink:actuate="onLoad" xlink:href="#a" xlink:show="other" xlink:type="simple" y1="0%" y2="129.453%"/><linearGradient gradientUnits="userSpaceOnUse" id="ad" x1="-14.54" x2="9.92" xlink:actuate="onLoad" xlink:href="#a" xlink:show="other" xlink:type="simple" y1="1974.07" y2="4403.34"/><linearGradient gradientUnits="userSpaceOnUse" id="k" x1="468.57" x2="517.77" xlink:actuate="onLoad" xlink:href="#a" xlink:show="other" xlink:type="simple" y1="2991.35" y2="7878.14"/><linearGradient gradientUnits="userSpaceOnUse" id="c" x1="2659.05" x2="2693.22" xlink:actuate="onLoad" xlink:href="#a" xlink:show="other" xlink:type="simple" y1="4183.61" y2="7578.05"/><linearGradient gradientUnits="userSpaceOnUse" id="v" x1="769.93" x2="833.75" xlink:actuate="onLoad" xlink:href="#a" xlink:show="other" xlink:type="simple" y1="7691.09" y2="14031.17"/><linearGradient gradientUnits="userSpaceOnUse" id="x" x1="3488.11" x2="3531.53" xlink:actuate="onLoad" xlink:href="#a" xlink:show="other" xlink:type="simple" y1="7549.95" y2="11862.68"/><linearGradient gradientUnits="userSpaceOnUse" id="H" x1="445.89" x2="475.63" xlink:actuate="onLoad" xlink:href="#a" xlink:show="other" xlink:type="simple" y1="7666.87" y2="10621.78"/><linearGradient gradientUnits="userSpaceOnUse" id="aj" x1="2288.39" x2="2312.85" xlink:actuate="onLoad" xlink:href="#a" xlink:show="other" xlink:type="simple" y1="10214.23" y2="12643.5"/><linearGradient gradientUnits="userSpaceOnUse" id="n" x1="518.1" x2="547.84" xlink:actuate="onLoad" xlink:href="#a" xlink:show="other" xlink:type="simple" y1="6020.1" y2="8975"/><linearGradient gradientUnits="objectBoundingBox" id="e" x1="97.372%" x2="94.763%" xlink:actuate="onLoad" xlink:href="#a" xlink:show="other" xlink:type="simple" y1="0%" y2="171.487%"/><linearGradient gradientUnits="userSpaceOnUse" id="I" x1="445.89" x2="475.63" xlink:actuate="onLoad" xlink:href="#a" xlink:show="other" xlink:type="simple" y1="7666.87" y2="10621.78"/><linearGradient gradientUnits="userSpaceOnUse" id="aa" x1="-605.51" x2="-581.06" xlink:actuate="onLoad" xlink:href="#a" xlink:show="other" xlink:type="simple" y1="1316.28" y2="3745.55"/><linearGradient gradientUnits="userSpaceOnUse" id="ag" x1="2288.39" x2="2312.85" xlink:actuate="onLoad" xlink:href="#a" xlink:show="other" xlink:type="simple" y1="10214.23" y2="12643.5"/><linearGradient gradientUnits="userSpaceOnUse" id="l" x1="518.1" x2="547.84" xlink:actuate="onLoad" xlink:href="#a" xlink:show="other" xlink:type="simple" y1="6020.1" y2="8975"/><linearGradient gradientUnits="userSpaceOnUse" id="D" x1="-1146.48" x2="-1116.73" xlink:actuate="onLoad" xlink:href="#a" xlink:show="other" xlink:type="simple" y1="6834.31" y2="9789.21"/><linearGradient gradientUnits="userSpaceOnUse" id="B" x1="-1146.48" x2="-1116.73" xlink:actuate="onLoad" xlink:href="#a" xlink:show="other" xlink:type="simple" y1="6834.31" y2="9789.21"/><linearGradient gradientUnits="userSpaceOnUse" id="W" x1="-407.82" x2="-383.36" xlink:actuate="onLoad" xlink:href="#a" xlink:show="other" xlink:type="simple" y1="2994.42" y2="5423.69"/><linearGradient gradientUnits="userSpaceOnUse" id="ab" x1="-605.51" x2="-581.06" xlink:actuate="onLoad" xlink:href="#a" xlink:show="other" xlink:type="simple" y1="1316.29" y2="3745.55"/><linearGradient gradientUnits="userSpaceOnUse" id="X" x1="-407.82" x2="-383.36" xlink:actuate="onLoad" xlink:href="#a" xlink:show="other" xlink:type="simple" y1="2994.43" y2="5423.68"/><linearGradient gradientUnits="userSpaceOnUse" id="h" x1="468.57" x2="517.77" xlink:actuate="onLoad" xlink:href="#a" xlink:show="other" xlink:type="simple" y1="2991.35" y2="7878.14"/><linearGradient gradientUnits="userSpaceOnUse" id="s" x1="-1141.15" x2="-1101.68" xlink:actuate="onLoad" xlink:href="#a" xlink:show="other" xlink:type="simple" y1="4111.34" y2="8032.14"/><linearGradient gradientUnits="userSpaceOnUse" id="g" x1="2261.22" x2="2295.39" xlink:actuate="onLoad" xlink:href="#a" xlink:show="other" xlink:type="simple" y1="6222.59" y2="9617.03"/><linearGradient gradientUnits="userSpaceOnUse" id="ah" x1="2288.39" x2="2312.85" xlink:actuate="onLoad" xlink:href="#a" xlink:show="other" xlink:type="simple" y1="10214.23" y2="12643.5"/><linearGradient gradientUnits="userSpaceOnUse" id="U" x1="-407.82" x2="-383.36" xlink:actuate="onLoad" xlink:href="#a" xlink:show="other" xlink:type="simple" y1="2994.42" y2="5423.69"/><linearGradient gradientUnits="userSpaceOnUse" id="C" x1="-1146.48" x2="-1116.73" xlink:actuate="onLoad" xlink:href="#a" xlink:show="other" xlink:type="simple" y1="6834.31" y2="9789.21"/><linearGradient gradientUnits="userSpaceOnUse" id="F" x1="445.88" x2="475.63" xlink:actuate="onLoad" xlink:href="#a" xlink:show="other" xlink:type="simple" y1="7666.87" y2="10621.78"/><linearGradient gradientUnits="userSpaceOnUse" id="O" x1="-2069.18" x2="-2016.37" xlink:actuate="onLoad" xlink:href="#a" xlink:show="other" xlink:type="simple" y1="8256.07" y2="13501.96"/><linearGradient gradientUnits="userSpaceOnUse" id="Y" x1="-605.51" x2="-581.06" xlink:actuate="onLoad" xlink:href="#a" xlink:show="other" xlink:type="simple" y1="1316.28" y2="3745.55"/><linearGradient gradientUnits="userSpaceOnUse" id="u" x1="769.93" x2="833.75" xlink:actuate="onLoad" xlink:href="#a" xlink:show="other" xlink:type="simple" y1="7691.09" y2="14031.18"/><linearGradient gradientUnits="userSpaceOnUse" id="K" x1="5886.81" x2="5939.62" xlink:actuate="onLoad" xlink:href="#a" xlink:show="other" xlink:type="simple" y1="7728.33" y2="12974.23"/><linearGradient gradientUnits="userSpaceOnUse" id="z" x1="3488.11" x2="3531.53" xlink:actuate="onLoad" xlink:href="#a" xlink:show="other" xlink:type="simple" y1="7549.95" y2="11862.68"/><linearGradient gradientUnits="userSpaceOnUse" id="y" x1="3488.11" x2="3531.53" xlink:actuate="onLoad" xlink:href="#a" xlink:show="other" xlink:type="simple" y1="7549.95" y2="11862.69"/><linearGradient gradientUnits="userSpaceOnUse" id="Q" x1="3846.19" x2="3889.6" xlink:actuate="onLoad" xlink:href="#a" xlink:show="other" xlink:type="simple" y1="9279.64" y2="13592.37"/><linearGradient gradientUnits="userSpaceOnUse" id="o" x1="518.1" x2="547.84" xlink:actuate="onLoad" xlink:href="#a" xlink:show="other" xlink:type="simple" y1="6020.1" y2="8975"/><linearGradient gradientUnits="userSpaceOnUse" id="A" x1="3488.11" x2="3531.53" xlink:actuate="onLoad" xlink:href="#a" xlink:show="other" xlink:type="simple" y1="7549.96" y2="11862.68"/><linearGradient gradientUnits="userSpaceOnUse" id="R" x1="3846.19" x2="3889.6" xlink:actuate="onLoad" xlink:href="#a" xlink:show="other" xlink:type="simple" y1="9279.64" y2="13592.37"/><linearGradient gradientUnits="userSpaceOnUse" id="G" x1="445.89" x2="475.63" xlink:actuate="onLoad" xlink:href="#a" xlink:show="other" xlink:type="simple" y1="7666.87" y2="10621.78"/><linearGradient gradientUnits="userSpaceOnUse" id="M" x1="5886.81" x2="5939.62" xlink:actuate="onLoad" xlink:href="#a" xlink:show="other" xlink:type="simple" y1="7728.32" y2="12974.24"/><linearGradient gradientUnits="objectBoundingBox" id="f" x1="159.991%" x2="153.933%" xlink:actuate="onLoad" xlink:href="#a" xlink:show="other" xlink:type="simple" y1="0%" y2="332.076%"/><linearGradient gradientUnits="userSpaceOnUse" id="i" x1="468.57" x2="517.77" xlink:actuate="onLoad" xlink:href="#a" xlink:show="other" xlink:type="simple" y1="2991.35" y2="7878.14"/><linearGradient gradientUnits="userSpaceOnUse" id="N" x1="-2069.18" x2="-2016.37" xlink:actuate="onLoad" xlink:href="#a" xlink:show="other" xlink:type="simple" y1="8256.06" y2="13501.96"/><linearGradient gradientUnits="userSpaceOnUse" id="p" x1="-1141.15" x2="-1101.68" xlink:actuate="onLoad" xlink:href="#a" xlink:show="other" xlink:type="simple" y1="4111.33" y2="8032.14"/><linearGradient gradientUnits="userSpaceOnUse" id="P" x1="-2069.18" x2="-2016.37" xlink:actuate="onLoad" xlink:href="#a" xlink:show="other" xlink:type="simple" y1="8256.07" y2="13501.96"/><linearGradient gradientUnits="userSpaceOnUse" id="L" x1="5886.81" x2="5939.62" xlink:actuate="onLoad" xlink:href="#a" xlink:show="other" xlink:type="simple" y1="7728.33" y2="12974.23"/><linearGradient gradientUnits="userSpaceOnUse" id="S" x1="3846.19" x2="3889.6" xlink:actuate="onLoad" xlink:href="#a" xlink:show="other" xlink:type="simple" y1="9279.64" y2="13592.37"/><linearGradient gradientUnits="userSpaceOnUse" id="r" x1="-1141.15" x2="-1101.68" xlink:actuate="onLoad" xlink:href="#a" xlink:show="other" xlink:type="simple" y1="4111.33" y2="8032.14"/><linearGradient gradientUnits="userSpaceOnUse" id="w" x1="769.93" x2="833.75" xlink:actuate="onLoad" xlink:href="#a" xlink:show="other" xlink:type="simple" y1="7691.1" y2="14031.17"/><linearGradient gradientUnits="userSpaceOnUse" id="Z" x1="-605.51" x2="-581.06" xlink:actuate="onLoad" xlink:href="#a" xlink:show="other" xlink:type="simple" y1="1316.28" y2="3745.55"/><linearGradient gradientUnits="userSpaceOnUse" id="af" x1="-14.54" x2="9.92" xlink:actuate="onLoad" xlink:href="#a" xlink:show="other" xlink:type="simple" y1="1974.08" y2="4403.34"/><linearGradient gradientUnits="userSpaceOnUse" id="ac" x1="-14.54" x2="9.92" xlink:actuate="onLoad" xlink:href="#a" xlink:show="other" xlink:type="simple" y1="1974.07" y2="4403.34"/><linearGradient gradientUnits="userSpaceOnUse" id="q" x1="-1141.15" x2="-1101.68" xlink:actuate="onLoad" xlink:href="#a" xlink:show="other" xlink:type="simple" y1="4111.33" y2="8032.14"/><linearGradient gradientUnits="userSpaceOnUse" id="E" x1="-1146.48" x2="-1116.73" xlink:actuate="onLoad" xlink:href="#a" xlink:show="other" xlink:type="simple" y1="6834.3" y2="9789.21"/><linearGradient gradientUnits="userSpaceOnUse" id="t" x1="769.93" x2="833.75" xlink:actuate="onLoad" xlink:href="#a" xlink:show="other" xlink:type="simple" y1="7691.09" y2="14031.17"/><linearGradient gradientUnits="userSpaceOnUse" id="J" x1="5886.81" x2="5939.62" xlink:actuate="onLoad" xlink:href="#a" xlink:show="other" xlink:type="simple" y1="7728.33" y2="12974.23"/><linearGradient gradientUnits="userSpaceOnUse" id="V" x1="-407.82" x2="-383.36" xlink:actuate="onLoad" xlink:href="#a" xlink:show="other" xlink:type="simple" y1="2994.42" y2="5423.69"/><linearGradient gradientUnits="userSpaceOnUse" id="j" x1="468.57" x2="517.77" xlink:actuate="onLoad" xlink:href="#a" xlink:show="other" xlink:type="simple" y1="2991.35" y2="7878.14"/><linearGradient gradientUnits="userSpaceOnUse" id="ae" x1="-14.54" x2="9.92" xlink:actuate="onLoad" xlink:href="#a" xlink:show="other" xlink:type="simple" y1="1974.07" y2="4403.34"/><linearGradient gradientUnits="userSpaceOnUse" id="ai" x1="2288.39" x2="2312.85" xlink:actuate="onLoad" xlink:href="#a" xlink:show="other" xlink:type="simple" y1="10214.23" y2="12643.5"/><linearGradient gradientUnits="userSpaceOnUse" id="T" x1="3846.19" x2="3889.6" xlink:actuate="onLoad" xlink:href="#a" xlink:show="other" xlink:type="simple" y1="9279.65" y2="13592.36"/><linearGradient gradientUnits="userSpaceOnUse" id="m" x1="518.1" x2="547.84" xlink:actuate="onLoad" xlink:href="#a" xlink:show="other" xlink:type="simple" y1="6020.1" y2="8975"/><clipPath id="b"><path d="M-0 0l11173.26 0 0 11173.26 -11173.26 0 0 -11173.26z"/></clipPath></defs><g><g clip-path="url(#b)"><g><g><g><g id="change1_1"><circle cx="3279.54" cy="5986.77" fill="#8c0303" r="1274.88"/></g><path d="M3279.54 4651.61c-368.69,0 -702.48,149.44 -944.1,391.06 -241.62,241.62 -391.06,575.41 -391.06,944.1 0,368.69 149.45,702.48 391.06,944.1 241.62,241.62 575.41,391.06 944.1,391.06 368.69,0 702.48,-149.45 944.1,-391.06 241.62,-241.62 391.06,-575.41 391.06,-944.1 0,-368.69 -149.45,-702.48 -391.06,-944.1 -241.62,-241.62 -575.41,-391.06 -944.1,-391.06zm-889.08 446.08c227.53,-227.53 541.87,-368.26 889.08,-368.26 347.21,0 661.55,140.73 889.08,368.26 227.53,227.53 368.27,541.87 368.27,889.08 0,347.21 -140.73,661.55 -368.27,889.08 -227.53,227.53 -541.87,368.27 -889.08,368.27 -347.21,0 -661.55,-140.73 -889.08,-368.27 -227.53,-227.53 -368.27,-541.87 -368.27,-889.08 0,-347.21 140.73,-661.55 368.27,-889.08z" fill="url(#c)" fill-rule="nonzero"/><path d="M3279.54 4985.37c-276.52,0 -526.87,112.09 -708.09,293.31 -181.22,181.22 -293.3,431.57 -293.3,708.09 0,276.52 112.09,526.87 293.3,708.09 181.22,181.22 431.57,293.3 708.09,293.3 276.52,0 526.87,-112.09 708.09,-293.3 181.22,-181.22 293.3,-431.57 293.3,-708.09 0,-276.52 -112.09,-526.87 -293.3,-708.09 -181.22,-181.22 -431.57,-293.31 -708.09,-293.31zm-653.07 348.33c167.13,-167.13 398.03,-270.51 653.07,-270.51 255.04,0 485.94,103.37 653.07,270.51 167.13,167.13 270.51,398.03 270.51,653.07 0,255.04 -103.38,485.94 -270.51,653.07 -167.13,167.13 -398.03,270.51 -653.07,270.51 -255.04,0 -485.94,-103.37 -653.07,-270.51 -167.13,-167.13 -270.51,-398.03 -270.51,-653.07 0,-255.04 103.38,-485.94 270.51,-653.07z" fill="url(#d)" fill-rule="nonzero"/><path d="M3279.54 5331.85c-180.85,0 -344.58,73.31 -463.1,191.82 -118.52,118.52 -191.82,282.25 -191.82,463.1 0,180.85 73.31,344.58 191.82,463.1 118.52,118.52 282.25,191.82 463.1,191.82 180.85,0 344.58,-73.31 463.1,-191.82 118.52,-118.52 191.82,-282.25 191.82,-463.1 0,-180.85 -73.31,-344.58 -191.82,-463.1 -118.52,-118.52 -282.25,-191.82 -463.1,-191.82zm-408.08 246.84c104.43,-104.43 248.71,-169.03 408.08,-169.03 159.37,0 303.64,64.59 408.08,169.03 104.43,104.43 169.03,248.71 169.03,408.08 0,159.37 -64.59,303.64 -169.03,408.08 -104.43,104.43 -248.71,169.03 -408.08,169.03 -159.36,0 -303.64,-64.59 -408.08,-169.03 -104.43,-104.43 -169.03,-248.71 -169.03,-408.08 0,-159.37 64.6,-303.64 169.03,-408.08z" fill="url(#e)" fill-rule="nonzero"/><path d="M3279.54 5704.7c-77.88,0 -148.4,31.57 -199.45,82.62 -51.04,51.04 -82.62,121.56 -82.62,199.45 0,77.89 31.57,148.4 82.62,199.45 51.05,51.05 121.56,82.62 199.45,82.62 77.89,0 148.4,-31.57 199.45,-82.62 51.05,-51.04 82.62,-121.56 82.62,-199.45 0,-77.89 -31.57,-148.4 -82.62,-199.45 -51.05,-51.05 -121.56,-82.62 -199.45,-82.62zm-144.43 137.64c36.96,-36.96 88.03,-59.82 144.43,-59.82 56.41,0 107.47,22.86 144.43,59.82 36.96,36.96 59.82,88.03 59.82,144.43 0,56.41 -22.86,107.47 -59.82,144.43 -36.96,36.96 -88.02,59.82 -144.43,59.82 -56.4,0 -107.47,-22.86 -144.43,-59.82 -36.96,-36.96 -59.82,-88.02 -59.82,-144.43 0,-56.4 22.86,-107.47 59.82,-144.43z" fill="url(#f)" fill-rule="nonzero"/></g><g><g id="change1_7"><circle cx="2881.72" cy="8025.75" fill="#8c0303" r="1274.88"/></g><path d="M2881.72 6690.59c-368.69,0 -702.48,149.44 -944.1,391.06 -241.62,241.62 -391.06,575.41 -391.06,944.1 0,368.69 149.45,702.48 391.06,944.1 241.62,241.62 575.41,391.06 944.1,391.06 368.69,0 702.48,-149.45 944.1,-391.06 241.62,-241.62 391.06,-575.41 391.06,-944.1 0,-368.69 -149.45,-702.48 -391.06,-944.1 -241.62,-241.62 -575.41,-391.06 -944.1,-391.06zm-889.08 446.08c227.53,-227.53 541.87,-368.26 889.08,-368.26 347.21,0 661.55,140.73 889.08,368.26 227.53,227.53 368.27,541.87 368.27,889.08 0,347.21 -140.73,661.55 -368.27,889.08 -227.53,227.53 -541.87,368.27 -889.08,368.27 -347.21,0 -661.55,-140.73 -889.08,-368.27 -227.53,-227.53 -368.27,-541.87 -368.27,-889.08 0,-347.21 140.73,-661.55 368.27,-889.08z" fill="url(#g)" fill-rule="nonzero"/><path d="M2881.72 7024.35c-276.52,0 -526.87,112.09 -708.09,293.31 -181.22,181.22 -293.3,431.57 -293.3,708.09 0,276.52 112.09,526.87 293.3,708.09 181.22,181.22 431.57,293.3 708.09,293.3 276.52,0 526.87,-112.09 708.09,-293.3 181.22,-181.22 293.3,-431.57 293.3,-708.09 0,-276.52 -112.09,-526.87 -293.3,-708.09 -181.22,-181.22 -431.57,-293.31 -708.09,-293.31zm-653.07 348.33c167.13,-167.13 398.03,-270.51 653.07,-270.51 255.04,0 485.94,103.37 653.07,270.51 167.13,167.13 270.51,398.03 270.51,653.07 0,255.04 -103.38,485.94 -270.51,653.07 -167.13,167.13 -398.03,270.51 -653.07,270.51 -255.04,0 -485.94,-103.37 -653.07,-270.51 -167.13,-167.13 -270.51,-398.03 -270.51,-653.07 0,-255.04 103.38,-485.94 270.51,-653.07z" fill="url(#d)" fill-rule="nonzero"/><path d="M2881.72 7370.83c-180.85,0 -344.58,73.31 -463.1,191.82 -118.52,118.52 -191.82,282.25 -191.82,463.1 0,180.85 73.31,344.58 191.82,463.1 118.52,118.52 282.25,191.82 463.1,191.82 180.85,0 344.58,-73.31 463.1,-191.82 118.52,-118.52 191.82,-282.25 191.82,-463.1 0,-180.85 -73.31,-344.58 -191.82,-463.1 -118.52,-118.52 -282.25,-191.82 -463.1,-191.82zm-408.08 246.84c104.43,-104.43 248.71,-169.03 408.08,-169.03 159.37,0 303.64,64.59 408.08,169.03 104.43,104.43 169.03,248.71 169.03,408.08 0,159.37 -64.59,303.64 -169.03,408.08 -104.43,104.43 -248.71,169.03 -408.08,169.03 -159.36,0 -303.64,-64.59 -408.08,-169.03 -104.43,-104.43 -169.03,-248.71 -169.03,-408.08 0,-159.37 64.6,-303.64 169.03,-408.08z" fill="url(#e)" fill-rule="nonzero"/><path d="M2881.72 7743.68c-77.88,0 -148.4,31.57 -199.45,82.62 -51.04,51.04 -82.62,121.56 -82.62,199.45 0,77.89 31.57,148.4 82.62,199.45 51.05,51.05 121.56,82.62 199.45,82.62 77.89,0 148.4,-31.57 199.45,-82.62 51.05,-51.04 82.62,-121.56 82.62,-199.45 0,-77.89 -31.57,-148.4 -82.62,-199.45 -51.05,-51.05 -121.56,-82.62 -199.45,-82.62zm-144.43 137.64c36.96,-36.96 88.03,-59.82 144.43,-59.82 56.41,0 107.47,22.86 144.43,59.82 36.96,36.96 59.82,88.03 59.82,144.43 0,56.41 -22.86,107.47 -59.82,144.43 -36.96,36.96 -88.02,59.82 -144.43,59.82 -56.4,0 -107.47,-22.86 -144.43,-59.82 -36.96,-36.96 -59.82,-88.02 -59.82,-144.43 0,-56.4 22.86,-107.47 59.82,-144.43z" fill="url(#f)" fill-rule="nonzero"/></g><g><g id="change1_2"><circle cx="1361.86" cy="5587.26" fill="#8c0303" r="1835.37"/></g><path d="M1361.86 3665.1c-530.78,0 -1011.32,215.15 -1359.16,562.99 -347.84,347.84 -562.99,828.38 -562.99,1359.16 0,530.78 215.15,1011.32 562.99,1359.16 347.84,347.84 828.38,562.99 1359.16,562.99 530.78,0 1011.32,-215.15 1359.16,-562.99 347.84,-347.84 562.99,-828.38 562.99,-1359.16 0,-530.78 -215.15,-1011.32 -562.99,-1359.16 -347.84,-347.84 -828.38,-562.99 -1359.16,-562.99zm-1279.96 642.2c327.56,-327.56 780.1,-530.17 1279.96,-530.17 499.86,0 952.39,202.61 1279.96,530.17 327.56,327.56 530.17,780.1 530.17,1279.96 0,499.86 -202.61,952.39 -530.17,1279.96 -327.56,327.56 -780.1,530.17 -1279.96,530.17 -499.86,0 -952.39,-202.61 -1279.96,-530.17 -327.56,-327.56 -530.17,-780.1 -530.17,-1279.96 0,-499.86 202.61,-952.39 530.17,-1279.96z" fill="url(#h)" fill-rule="nonzero"/><path d="M1361.86 4145.6c-398.1,0 -758.51,161.37 -1019.4,422.26 -260.89,260.89 -422.26,621.3 -422.26,1019.4 0,398.1 161.37,758.51 422.26,1019.4 260.89,260.89 621.3,422.25 1019.4,422.25 398.1,0 758.51,-161.37 1019.4,-422.25 260.89,-260.89 422.25,-621.3 422.25,-1019.4 0,-398.1 -161.37,-758.51 -422.25,-1019.4 -260.89,-260.89 -621.3,-422.26 -1019.4,-422.26zm-940.19 501.46c240.61,-240.61 573.02,-389.44 940.19,-389.44 367.17,0 699.58,148.82 940.19,389.44 240.61,240.61 389.43,573.02 389.43,940.19 0,367.17 -148.82,699.58 -389.43,940.19 -240.61,240.61 -573.02,389.43 -940.19,389.43 -367.17,0 -699.58,-148.82 -940.19,-389.43 -240.61,-240.61 -389.44,-573.02 -389.44,-940.19 0,-367.17 148.82,-699.58 389.44,-940.19z" fill="url(#i)" fill-rule="nonzero"/><path d="M1361.86 4644.4c-260.36,0 -496.07,105.54 -666.69,276.16 -170.62,170.62 -276.16,406.34 -276.16,666.69 0,260.36 105.54,496.07 276.16,666.69 170.63,170.62 406.34,276.16 666.69,276.16 260.36,0 496.07,-105.53 666.69,-276.16 170.62,-170.62 276.16,-406.34 276.16,-666.69 0,-260.36 -105.53,-496.07 -276.16,-666.69 -170.62,-170.62 -406.34,-276.16 -666.69,-276.16zm-587.48 355.37c150.35,-150.34 358.05,-243.34 587.48,-243.34 229.43,0 437.14,92.99 587.48,243.34 150.35,150.35 243.34,358.05 243.34,587.48 0,229.43 -92.99,437.14 -243.34,587.48 -150.34,150.35 -358.05,243.34 -587.48,243.34 -229.43,0 -437.14,-92.99 -587.48,-243.34 -150.35,-150.35 -243.34,-358.05 -243.34,-587.48 0,-229.43 93,-437.14 243.34,-587.48z" fill="url(#j)" fill-rule="nonzero"/><path d="M1361.86 5181.18c-112.13,0 -213.65,45.45 -287.13,118.94 -73.49,73.49 -118.94,175.01 -118.94,287.13 0,112.13 45.45,213.65 118.94,287.14 73.48,73.49 175.01,118.94 287.13,118.94 112.13,0 213.65,-45.45 287.14,-118.94 73.49,-73.49 118.94,-175.01 118.94,-287.14 0,-112.13 -45.45,-213.65 -118.94,-287.13 -73.49,-73.49 -175.01,-118.94 -287.14,-118.94zm-207.93 198.15c53.21,-53.21 126.72,-86.12 207.93,-86.12 81.2,0 154.72,32.91 207.93,86.12 53.21,53.21 86.12,126.72 86.12,207.93 0,81.2 -32.91,154.72 -86.12,207.93 -53.21,53.21 -126.72,86.12 -207.93,86.12 -81.2,0 -154.72,-32.91 -207.93,-86.12 -53.21,-53.21 -86.12,-126.72 -86.12,-207.93 0,-81.2 32.91,-154.72 86.12,-207.93z" fill="url(#k)" fill-rule="nonzero"/></g><g><g id="change1_16"><circle cx="1058.25" cy="7589.77" fill="#8c0303" r="1109.79"/></g><path d="M1058.25 6427.5c-320.95,0 -611.52,130.09 -821.85,340.42 -210.33,210.33 -340.42,500.9 -340.42,821.85 0,320.95 130.09,611.52 340.42,821.85 210.33,210.33 500.9,340.42 821.85,340.42 320.95,0 611.52,-130.09 821.85,-340.42 210.33,-210.33 340.42,-500.9 340.42,-821.85 0,-320.95 -130.09,-611.52 -340.42,-821.85 -210.33,-210.33 -500.9,-340.42 -821.85,-340.42zm-773.95 388.32c198.07,-198.07 471.7,-320.58 773.95,-320.58 302.25,0 575.88,122.51 773.95,320.58 198.07,198.07 320.58,471.7 320.58,773.95 0,302.25 -122.51,575.88 -320.58,773.95 -198.07,198.07 -471.7,320.58 -773.95,320.58 -302.25,0 -575.88,-122.51 -773.95,-320.58 -198.07,-198.07 -320.58,-471.7 -320.58,-773.95 0,-302.25 122.51,-575.88 320.58,-773.95z" fill="url(#l)" fill-rule="nonzero"/><path d="M1058.25 6718.04c-240.72,0 -458.65,97.57 -616.4,255.33 -157.75,157.75 -255.33,375.68 -255.33,616.4 0,240.72 97.57,458.65 255.33,616.4 157.75,157.75 375.68,255.32 616.4,255.32 240.72,0 458.65,-97.57 616.4,-255.32 157.75,-157.75 255.32,-375.69 255.32,-616.4 0,-240.72 -97.57,-458.65 -255.32,-616.4 -157.75,-157.75 -375.68,-255.33 -616.4,-255.33zm-568.51 303.22c145.49,-145.49 346.49,-235.48 568.51,-235.48 222.02,0 423.02,89.99 568.51,235.48 145.49,145.49 235.48,346.49 235.48,568.51 0,222.02 -89.99,423.02 -235.48,568.51 -145.49,145.49 -346.49,235.48 -568.51,235.48 -222.02,0 -423.02,-89.99 -568.51,-235.48 -145.49,-145.49 -235.48,-346.49 -235.48,-568.51 0,-222.02 89.99,-423.02 235.48,-568.51z" fill="url(#m)" fill-rule="nonzero"/><path d="M1058.25 7019.65c-157.43,0 -299.96,63.82 -403.13,166.99 -103.17,103.17 -166.98,245.7 -166.98,403.13 0,157.43 63.81,299.96 166.98,403.13 103.17,103.17 245.7,166.99 403.13,166.99 157.43,0 299.96,-63.81 403.13,-166.99 103.17,-103.17 166.99,-245.7 166.99,-403.13 0,-157.43 -63.81,-299.96 -166.99,-403.13 -103.17,-103.17 -245.7,-166.99 -403.13,-166.99zm-355.24 214.88c90.91,-90.91 216.51,-147.14 355.24,-147.14 138.73,0 264.33,56.23 355.24,147.14 90.91,90.91 147.14,216.51 147.14,355.24 0,138.73 -56.23,264.33 -147.14,355.24 -90.91,90.91 -216.51,147.14 -355.24,147.14 -138.73,0 -264.33,-56.23 -355.24,-147.14 -90.91,-90.91 -147.14,-216.51 -147.14,-355.24 0,-138.73 56.23,-264.33 147.14,-355.24z" fill="url(#n)" fill-rule="nonzero"/><path d="M1058.25 7344.23c-67.8,0 -129.19,27.49 -173.62,71.92 -44.44,44.44 -71.92,105.82 -71.92,173.62 0,67.8 27.48,129.19 71.92,173.62 44.43,44.43 105.82,71.92 173.62,71.92 67.8,0 129.19,-27.48 173.62,-71.92 44.44,-44.43 71.92,-105.82 71.92,-173.62 0,-67.8 -27.49,-129.19 -71.92,-173.62 -44.43,-44.44 -105.82,-71.92 -173.62,-71.92zm-125.73 119.82c32.17,-32.17 76.63,-52.08 125.73,-52.08 49.1,0 93.55,19.9 125.73,52.08 32.17,32.17 52.08,76.63 52.08,125.73 0,49.1 -19.9,93.55 -52.08,125.73 -32.17,32.17 -76.63,52.08 -125.73,52.08 -49.1,0 -93.55,-19.9 -125.73,-52.08 -32.17,-32.17 -52.08,-76.63 -52.08,-125.73 0,-49.1 19.9,-93.55 52.08,-125.73z" fill="url(#o)" fill-rule="nonzero"/></g><g><g id="change1_13"><circle cx="-424.44" cy="6194.1" fill="#8c0303" r="1472.57"/></g><path d="M-424.44 4651.9c-425.86,0 -811.41,172.62 -1090.5,451.7 -279.08,279.08 -451.7,664.63 -451.7,1090.5 0,425.86 172.62,811.41 451.7,1090.5 279.08,279.08 664.63,451.7 1090.5,451.7 425.86,0 811.41,-172.62 1090.5,-451.7 279.08,-279.08 451.7,-664.63 451.7,-1090.5 0,-425.86 -172.62,-811.41 -451.7,-1090.5 -279.08,-279.08 -664.63,-451.7 -1090.5,-451.7zm-1026.95 515.25c262.81,-262.81 625.9,-425.37 1026.95,-425.37 401.05,0 764.13,162.56 1026.94,425.37 262.82,262.81 425.37,625.9 425.37,1026.95 0,401.05 -162.56,764.13 -425.37,1026.94 -262.81,262.82 -625.9,425.37 -1026.94,425.37 -401.05,0 -764.13,-162.56 -1026.95,-425.37 -262.81,-262.81 -425.37,-625.89 -425.37,-1026.94 0,-401.05 162.56,-764.13 425.37,-1026.95z" fill="url(#p)" fill-rule="nonzero"/><path d="M-424.44 5037.42c-319.4,0 -608.58,129.47 -817.89,338.79 -209.32,209.32 -338.79,498.49 -338.79,817.89 0,319.4 129.47,608.57 338.79,817.89 209.32,209.32 498.49,338.79 817.89,338.79 319.4,0 608.58,-129.47 817.89,-338.79 209.32,-209.32 338.79,-498.49 338.79,-817.89 0,-319.4 -129.47,-608.58 -338.79,-817.89 -209.32,-209.32 -498.49,-338.79 -817.89,-338.79zm-754.34 402.34c193.05,-193.05 459.75,-312.46 754.34,-312.46 294.59,0 561.29,119.4 754.34,312.46 193.05,193.05 312.45,459.75 312.45,754.34 0,294.59 -119.41,561.29 -312.45,754.34 -193.05,193.05 -459.75,312.45 -754.34,312.45 -294.59,0 -561.29,-119.4 -754.34,-312.45 -193.05,-193.05 -312.46,-459.75 -312.46,-754.34 0,-294.59 119.41,-561.29 312.46,-754.34z" fill="url(#q)" fill-rule="nonzero"/><path d="M-424.44 5437.62c-208.89,0 -398.01,84.68 -534.91,221.57 -136.89,136.9 -221.57,326.02 -221.57,534.91 0,208.89 84.67,398.01 221.57,534.91 136.9,136.9 326.02,221.57 534.91,221.57 208.89,0 398.01,-84.67 534.91,-221.57 136.9,-136.89 221.57,-326.02 221.57,-534.91 0,-208.89 -84.67,-398.01 -221.57,-534.91 -136.9,-136.9 -326.02,-221.57 -534.91,-221.57zm-471.36 285.12c120.63,-120.63 287.28,-195.24 471.36,-195.24 184.08,0 350.73,74.61 471.36,195.24 120.63,120.63 195.24,287.28 195.24,471.36 0,184.08 -74.61,350.73 -195.24,471.36 -120.63,120.63 -287.28,195.24 -471.36,195.24 -184.08,0 -350.73,-74.61 -471.36,-195.24 -120.63,-120.63 -195.24,-287.28 -195.24,-471.36 0,-184.08 74.61,-350.73 195.24,-471.36z" fill="url(#r)" fill-rule="nonzero"/><path d="M-424.44 5868.3c-89.96,0 -171.42,36.47 -230.38,95.43 -58.96,58.96 -95.43,140.41 -95.43,230.38 0,89.96 36.47,171.42 95.43,230.38 58.96,58.96 140.41,95.43 230.38,95.43 89.96,0 171.42,-36.47 230.38,-95.43 58.96,-58.96 95.43,-140.41 95.43,-230.38 0,-89.96 -36.47,-171.42 -95.43,-230.38 -58.96,-58.96 -140.41,-95.43 -230.38,-95.43zm-166.83 158.98c42.69,-42.69 101.67,-69.1 166.83,-69.1 65.15,0 124.13,26.41 166.82,69.1 42.69,42.69 69.1,101.67 69.1,166.83 0,65.15 -26.41,124.13 -69.1,166.82 -42.69,42.69 -101.67,69.1 -166.82,69.1 -65.15,0 -124.14,-26.41 -166.83,-69.1 -42.69,-42.69 -69.1,-101.67 -69.1,-166.82 0,-65.15 26.41,-124.14 69.1,-166.83z" fill="url(#s)" fill-rule="nonzero"/></g><g><g id="change1_4"><circle cx="1928.88" cy="11059" fill="#8c0303" r="2381.19"/></g><path d="M1928.88 8565.21c-688.63,0 -1312.08,279.13 -1763.37,730.42 -451.29,451.29 -730.42,1074.74 -730.42,1763.37 0,688.63 279.13,1312.08 730.42,1763.37 451.29,451.29 1074.74,730.42 1763.37,730.42 688.63,0 1312.08,-279.13 1763.37,-730.42 451.29,-451.29 730.42,-1074.74 730.42,-1763.37 0,-688.63 -279.13,-1312.08 -730.42,-1763.37 -451.29,-451.29 -1074.74,-730.42 -1763.37,-730.42zm-1660.6 833.18c424.98,-424.98 1012.09,-687.84 1660.6,-687.84 648.51,0 1235.63,262.86 1660.6,687.84 424.98,424.98 687.84,1012.09 687.84,1660.6 0,648.51 -262.86,1235.63 -687.84,1660.6 -424.98,424.98 -1012.09,687.84 -1660.6,687.84 -648.51,0 -1235.63,-262.86 -1660.6,-687.84 -424.98,-424.98 -687.84,-1012.09 -687.84,-1660.6 0,-648.51 262.86,-1235.63 687.84,-1660.6z" fill="url(#t)" fill-rule="nonzero"/><path d="M1928.88 9188.61c-516.49,0 -984.09,209.36 -1322.56,547.83 -338.47,338.47 -547.83,806.07 -547.83,1322.56 0,516.49 209.35,984.08 547.83,1322.56 338.47,338.47 806.07,547.83 1322.56,547.83 516.49,0 984.09,-209.35 1322.56,-547.83 338.47,-338.48 547.83,-806.08 547.83,-1322.56 0,-516.49 -209.36,-984.09 -547.83,-1322.56 -338.48,-338.48 -806.08,-547.83 -1322.56,-547.83zm-1219.8 650.6c312.16,-312.17 743.43,-505.25 1219.8,-505.25 476.36,0 907.63,193.08 1219.8,505.25 312.17,312.17 505.25,743.43 505.25,1219.79 0,476.36 -193.08,907.63 -505.25,1219.8 -312.17,312.16 -743.43,505.25 -1219.8,505.25 -476.36,0 -907.63,-193.08 -1219.8,-505.25 -312.17,-312.17 -505.25,-743.43 -505.25,-1219.8 0,-476.36 193.08,-907.63 505.25,-1219.79z" fill="url(#u)" fill-rule="nonzero"/><path d="M1928.88 9835.75c-337.78,0 -643.6,136.92 -864.96,358.29 -221.36,221.37 -358.29,527.18 -358.29,864.96 0,337.78 136.92,643.6 358.29,864.96 221.37,221.37 527.18,358.29 864.96,358.29 337.78,0 643.6,-136.92 864.96,-358.29 221.37,-221.36 358.29,-527.18 358.29,-864.96 0,-337.78 -136.92,-643.59 -358.29,-864.96 -221.36,-221.37 -527.18,-358.29 -864.96,-358.29zm-762.2 461.05c195.06,-195.06 464.54,-315.71 762.2,-315.71 297.66,0 567.14,120.65 762.2,315.71 195.06,195.06 315.71,464.54 315.71,762.2 0,297.66 -120.65,567.14 -315.71,762.2 -195.06,195.06 -464.54,315.71 -762.2,315.71 -297.66,0 -567.14,-120.65 -762.2,-315.71 -195.06,-195.06 -315.71,-464.54 -315.71,-762.2 0,-297.66 120.65,-567.14 315.71,-762.2z" fill="url(#v)" fill-rule="nonzero"/><path d="M1928.88 10532.16c-145.47,0 -277.19,58.97 -372.53,154.31 -95.34,95.34 -154.31,227.05 -154.31,372.53 0,145.48 58.97,277.19 154.31,372.53 95.34,95.34 227.05,154.31 372.53,154.31 145.48,0 277.19,-58.97 372.53,-154.31 95.34,-95.34 154.31,-227.05 154.31,-372.53 0,-145.47 -58.97,-277.19 -154.31,-372.53 -95.34,-95.34 -227.05,-154.31 -372.53,-154.31zm-269.76 257.08c69.03,-69.03 164.41,-111.73 269.76,-111.73 105.35,0 200.73,42.7 269.76,111.73 69.03,69.03 111.73,164.41 111.73,269.76 0,105.35 -42.7,200.73 -111.73,269.76 -69.03,69.03 -164.41,111.73 -269.76,111.73 -105.35,0 -200.73,-42.7 -269.76,-111.73 -69.03,-69.03 -111.73,-164.41 -111.73,-269.76 0,-105.35 42.7,-200.73 111.73,-269.76z" fill="url(#w)" fill-rule="nonzero"/></g><g><g id="change1_3"><circle cx="4276.47" cy="9840.92" fill="#8c0303" r="1619.76"/></g><path d="M4276.47 8144.56c-468.43,0 -892.52,189.87 -1199.5,496.85 -306.98,306.98 -496.85,731.07 -496.85,1199.5 0,468.43 189.87,892.52 496.85,1199.5 306.98,306.98 731.07,496.85 1199.5,496.85 468.43,0 892.52,-189.87 1199.5,-496.85 306.98,-306.98 496.85,-731.07 496.85,-1199.5 0,-468.43 -189.87,-892.52 -496.85,-1199.5 -306.98,-306.98 -731.07,-496.85 -1199.5,-496.85zm-1129.6 566.76c289.08,-289.08 688.46,-467.89 1129.6,-467.89 441.14,0 840.51,178.81 1129.6,467.89 289.08,289.08 467.89,688.46 467.89,1129.6 0,441.14 -178.81,840.51 -467.89,1129.6 -289.08,289.09 -688.46,467.89 -1129.6,467.89 -441.14,0 -840.51,-178.81 -1129.6,-467.89 -289.09,-289.08 -467.89,-688.46 -467.89,-1129.6 0,-441.14 178.81,-840.51 467.89,-1129.6z" fill="url(#x)" fill-rule="nonzero"/><path d="M4276.47 8568.62c-351.33,0 -669.41,142.41 -899.65,372.65 -230.24,230.24 -372.65,548.32 -372.65,899.65 0,351.33 142.41,669.41 372.65,899.65 230.24,230.24 548.32,372.65 899.65,372.65 351.33,0 669.41,-142.41 899.65,-372.65 230.24,-230.24 372.65,-548.32 372.65,-899.65 0,-351.33 -142.41,-669.41 -372.65,-899.65 -230.24,-230.24 -548.32,-372.65 -899.65,-372.65zm-829.75 442.56c212.34,-212.35 505.71,-343.69 829.75,-343.69 324.04,0 617.4,131.34 829.75,343.69 212.35,212.35 343.69,505.71 343.69,829.75 0,324.04 -131.34,617.4 -343.69,829.75 -212.35,212.35 -505.71,343.69 -829.75,343.69 -324.04,0 -617.4,-131.34 -829.75,-343.69 -212.35,-212.35 -343.69,-505.71 -343.69,-829.75 0,-324.04 131.34,-617.4 343.69,-829.75z" fill="url(#y)" fill-rule="nonzero"/><path d="M4276.47 9008.82c-229.77,0 -437.8,93.14 -588.38,243.72 -150.58,150.58 -243.72,358.6 -243.72,588.38 0,229.77 93.14,437.8 243.72,588.38 150.58,150.58 358.6,243.72 588.38,243.72 229.77,0 437.8,-93.14 588.38,-243.72 150.58,-150.58 243.72,-358.6 243.72,-588.38 0,-229.77 -93.14,-437.79 -243.72,-588.38 -150.58,-150.58 -358.6,-243.72 -588.38,-243.72zm-518.47 313.62c132.68,-132.68 315.99,-214.75 518.47,-214.75 202.48,0 385.79,82.07 518.47,214.75 132.69,132.69 214.75,315.99 214.75,518.47 0,202.48 -82.07,385.79 -214.75,518.47 -132.68,132.69 -315.99,214.75 -518.47,214.75 -202.48,0 -385.79,-82.07 -518.47,-214.75 -132.69,-132.68 -214.75,-315.99 -214.75,-518.47 0,-202.48 82.07,-385.79 214.75,-518.47z" fill="url(#z)" fill-rule="nonzero"/><path d="M4276.47 9482.54c-98.96,0 -188.55,40.11 -253.41,104.97 -64.85,64.85 -104.97,154.45 -104.97,253.41 0,98.96 40.11,188.55 104.97,253.41 64.85,64.85 154.45,104.97 253.41,104.97 98.96,0 188.55,-40.11 253.4,-104.97 64.86,-64.85 104.97,-154.45 104.97,-253.41 0,-98.96 -40.12,-188.55 -104.97,-253.41 -64.85,-64.85 -154.45,-104.97 -253.4,-104.97zm-183.5 174.87c46.96,-46.96 111.84,-76 183.5,-76 71.66,0 136.54,29.05 183.5,76 46.96,46.96 76,111.84 76,183.5 0,71.67 -29.05,136.54 -76,183.5 -46.96,46.96 -111.84,76 -183.5,76 -71.66,0 -136.54,-29.05 -183.5,-76 -46.96,-46.96 -76,-111.84 -76,-183.5 0,-71.66 29.05,-136.54 76,-183.5z" fill="url(#A)" fill-rule="nonzero"/></g><g><g id="change1_15"><circle cx="-606.33" cy="8403.98" fill="#8c0303" r="1109.79"/></g><path d="M-606.33 7241.71c-320.95,0 -611.52,130.09 -821.85,340.42 -210.33,210.33 -340.42,500.9 -340.42,821.85 0,320.95 130.09,611.52 340.42,821.85 210.33,210.33 500.9,340.42 821.85,340.42 320.95,0 611.52,-130.09 821.85,-340.42 210.33,-210.33 340.42,-500.9 340.42,-821.85 0,-320.95 -130.09,-611.52 -340.42,-821.85 -210.33,-210.33 -500.9,-340.42 -821.85,-340.42zm-773.95 388.32c198.07,-198.07 471.7,-320.58 773.95,-320.58 302.25,0 575.89,122.51 773.95,320.58 198.07,198.07 320.58,471.7 320.58,773.95 0,302.25 -122.51,575.88 -320.58,773.95 -198.07,198.07 -471.7,320.58 -773.95,320.58 -302.25,0 -575.88,-122.51 -773.95,-320.58 -198.07,-198.07 -320.58,-471.7 -320.58,-773.95 0,-302.25 122.51,-575.88 320.58,-773.95z" fill="url(#B)" fill-rule="nonzero"/><path d="M-606.33 7532.25c-240.72,0 -458.65,97.57 -616.4,255.33 -157.75,157.75 -255.33,375.68 -255.33,616.4 0,240.72 97.57,458.65 255.33,616.4 157.75,157.75 375.68,255.32 616.4,255.32 240.72,0 458.65,-97.57 616.4,-255.32 157.75,-157.75 255.32,-375.68 255.32,-616.4 0,-240.72 -97.57,-458.65 -255.32,-616.4 -157.75,-157.75 -375.69,-255.33 -616.4,-255.33zm-568.51 303.22c145.49,-145.49 346.49,-235.48 568.51,-235.48 222.02,0 423.02,89.99 568.51,235.48 145.49,145.49 235.48,346.49 235.48,568.51 0,222.02 -89.99,423.02 -235.48,568.51 -145.49,145.49 -346.49,235.48 -568.51,235.48 -222.02,0 -423.02,-89.99 -568.51,-235.48 -145.49,-145.49 -235.48,-346.49 -235.48,-568.51 0,-222.02 89.99,-423.02 235.48,-568.51z" fill="url(#C)" fill-rule="nonzero"/><path d="M-606.33 7833.86c-157.43,0 -299.96,63.81 -403.13,166.98 -103.17,103.17 -166.99,245.7 -166.99,403.13 0,157.43 63.81,299.96 166.99,403.13 103.17,103.17 245.7,166.98 403.13,166.98 157.43,0 299.96,-63.81 403.13,-166.98 103.17,-103.17 166.99,-245.7 166.99,-403.13 0,-157.43 -63.81,-299.96 -166.99,-403.13 -103.17,-103.17 -245.7,-166.98 -403.13,-166.98zm-355.24 214.88c90.91,-90.91 216.51,-147.14 355.24,-147.14 138.73,0 264.33,56.23 355.24,147.14 90.91,90.91 147.14,216.51 147.14,355.24 0,138.73 -56.23,264.33 -147.14,355.24 -90.91,90.91 -216.51,147.14 -355.24,147.14 -138.73,0 -264.32,-56.23 -355.24,-147.14 -90.91,-90.91 -147.14,-216.51 -147.14,-355.24 0,-138.73 56.23,-264.33 147.14,-355.24z" fill="url(#D)" fill-rule="nonzero"/><path d="M-606.33 8158.44c-67.8,0 -129.19,27.49 -173.62,71.92 -44.43,44.43 -71.92,105.82 -71.92,173.62 0,67.8 27.48,129.19 71.92,173.62 44.44,44.44 105.82,71.92 173.62,71.92 67.8,0 129.19,-27.48 173.62,-71.92 44.44,-44.43 71.92,-105.82 71.92,-173.62 0,-67.8 -27.49,-129.19 -71.92,-173.62 -44.44,-44.44 -105.82,-71.92 -173.62,-71.92zm-125.73 119.82c32.17,-32.17 76.63,-52.08 125.73,-52.08 49.1,0 93.55,19.9 125.73,52.08 32.17,32.17 52.07,76.63 52.07,125.73 0,49.1 -19.9,93.55 -52.07,125.73 -32.17,32.17 -76.63,52.08 -125.73,52.08 -49.1,0 -93.55,-19.9 -125.73,-52.08 -32.17,-32.17 -52.07,-76.62 -52.07,-125.73 0,-49.1 19.9,-93.55 52.07,-125.73z" fill="url(#E)" fill-rule="nonzero"/></g><g><g id="change1_14"><circle cx="986.03" cy="9236.55" fill="#8c0303" r="1109.79"/></g><path d="M986.03 8074.27c-320.95,0 -611.52,130.09 -821.85,340.42 -210.33,210.33 -340.42,500.9 -340.42,821.85 0,320.95 130.09,611.52 340.42,821.85 210.33,210.33 500.9,340.42 821.85,340.42 320.95,0 611.52,-130.09 821.85,-340.42 210.33,-210.33 340.42,-500.9 340.42,-821.85 0,-320.95 -130.09,-611.52 -340.42,-821.85 -210.33,-210.33 -500.9,-340.42 -821.85,-340.42zm-773.95 388.32c198.07,-198.07 471.7,-320.58 773.95,-320.58 302.25,0 575.88,122.51 773.95,320.58 198.07,198.07 320.58,471.7 320.58,773.95 0,302.25 -122.51,575.88 -320.58,773.95 -198.07,198.07 -471.7,320.58 -773.95,320.58 -302.25,0 -575.88,-122.51 -773.95,-320.58 -198.07,-198.07 -320.58,-471.7 -320.58,-773.95 0,-302.25 122.51,-575.88 320.58,-773.95z" fill="url(#F)" fill-rule="nonzero"/><path d="M986.03 8364.82c-240.72,0 -458.65,97.57 -616.4,255.33 -157.75,157.75 -255.33,375.68 -255.33,616.4 0,240.72 97.57,458.65 255.33,616.4 157.75,157.75 375.68,255.33 616.4,255.33 240.72,0 458.65,-97.57 616.4,-255.33 157.75,-157.75 255.32,-375.68 255.32,-616.4 0,-240.72 -97.57,-458.65 -255.32,-616.4 -157.75,-157.75 -375.68,-255.33 -616.4,-255.33zm-568.51 303.22c145.49,-145.49 346.49,-235.48 568.51,-235.48 222.02,0 423.02,89.99 568.51,235.48 145.49,145.49 235.48,346.49 235.48,568.51 0,222.02 -89.99,423.02 -235.48,568.51 -145.49,145.49 -346.49,235.48 -568.51,235.48 -222.02,0 -423.02,-89.99 -568.51,-235.48 -145.49,-145.49 -235.48,-346.49 -235.48,-568.51 0,-222.02 89.99,-423.02 235.48,-568.51z" fill="url(#G)" fill-rule="nonzero"/><path d="M986.03 8666.43c-157.43,0 -299.96,63.81 -403.13,166.99 -103.17,103.17 -166.98,245.7 -166.98,403.13 0,157.43 63.81,299.96 166.98,403.13 103.17,103.17 245.7,166.99 403.13,166.99 157.43,0 299.96,-63.81 403.13,-166.99 103.17,-103.17 166.99,-245.7 166.99,-403.13 0,-157.43 -63.81,-299.96 -166.99,-403.13 -103.17,-103.17 -245.7,-166.99 -403.13,-166.99zm-355.24 214.88c90.91,-90.91 216.51,-147.14 355.24,-147.14 138.73,0 264.33,56.23 355.24,147.14 90.91,90.91 147.14,216.51 147.14,355.24 0,138.73 -56.23,264.33 -147.14,355.24 -90.91,90.91 -216.51,147.14 -355.24,147.14 -138.73,0 -264.33,-56.23 -355.24,-147.14 -90.91,-90.91 -147.14,-216.51 -147.14,-355.24 0,-138.73 56.23,-264.33 147.14,-355.24z" fill="url(#H)" fill-rule="nonzero"/><path d="M986.03 8991c-67.8,0 -129.19,27.49 -173.62,71.92 -44.44,44.43 -71.92,105.82 -71.92,173.62 0,67.8 27.48,129.19 71.92,173.62 44.43,44.43 105.82,71.92 173.62,71.92 67.8,0 129.19,-27.48 173.62,-71.92 44.44,-44.44 71.92,-105.82 71.92,-173.62 0,-67.8 -27.49,-129.19 -71.92,-173.62 -44.43,-44.44 -105.82,-71.92 -173.62,-71.92zm-125.73 119.81c32.17,-32.17 76.63,-52.08 125.73,-52.08 49.1,0 93.55,19.9 125.73,52.08 32.17,32.17 52.08,76.63 52.08,125.73 0,49.1 -19.9,93.55 -52.08,125.73 -32.17,32.17 -76.63,52.08 -125.73,52.08 -49.1,0 -93.55,-19.9 -125.73,-52.08 -32.17,-32.17 -52.08,-76.62 -52.08,-125.73 0,-49.1 19.9,-93.55 52.08,-125.73z" fill="url(#I)" fill-rule="nonzero"/></g><g><g id="change1_8"><circle cx="6845.74" cy="10515" fill="#8c0303" r="1970.24"/></g><path d="M6845.74 8451.6c-569.79,0 -1085.64,230.96 -1459.04,604.36 -373.4,373.4 -604.36,889.26 -604.36,1459.04 0,569.79 230.96,1085.64 604.36,1459.04 373.4,373.4 889.26,604.36 1459.04,604.36 569.79,0 1085.64,-230.96 1459.04,-604.36 373.4,-373.4 604.36,-889.26 604.36,-1459.04 0,-569.79 -230.96,-1085.64 -604.36,-1459.04 -373.4,-373.4 -889.26,-604.36 -1459.04,-604.36zm-1374.01 689.39c351.63,-351.64 837.43,-569.13 1374.01,-569.13 536.59,0 1022.38,217.49 1374.01,569.13 351.64,351.63 569.13,837.43 569.13,1374.01 0,536.59 -217.49,1022.38 -569.13,1374.01 -351.63,351.64 -837.43,569.13 -1374.01,569.13 -536.59,0 -1022.38,-217.49 -1374.01,-569.13 -351.64,-351.63 -569.13,-837.43 -569.13,-1374.01 0,-536.59 217.49,-1022.38 569.13,-1374.01z" fill="url(#J)" fill-rule="nonzero"/><path d="M6845.74 8967.41c-427.35,0 -814.25,173.23 -1094.31,453.29 -280.06,280.06 -453.29,666.96 -453.29,1094.31 0,427.35 173.22,814.25 453.29,1094.31 280.06,280.06 666.96,453.28 1094.31,453.28 427.35,0 814.25,-173.23 1094.31,-453.28 280.06,-280.06 453.28,-666.96 453.28,-1094.31 0,-427.35 -173.22,-814.25 -453.28,-1094.31 -280.06,-280.06 -666.96,-453.29 -1094.31,-453.29zm-1009.28 538.31c258.29,-258.29 615.13,-418.05 1009.28,-418.05 394.15,0 750.99,159.76 1009.28,418.05 258.29,258.29 418.05,615.13 418.05,1009.28 0,394.15 -159.76,750.99 -418.05,1009.28 -258.29,258.29 -615.13,418.05 -1009.28,418.05 -394.15,0 -750.99,-159.76 -1009.28,-418.05 -258.29,-258.29 -418.05,-615.13 -418.05,-1009.28 0,-394.15 159.76,-750.99 418.05,-1009.28z" fill="url(#K)" fill-rule="nonzero"/><path d="M6845.74 9502.86c-279.49,0 -532.52,113.29 -715.69,296.45 -183.16,183.16 -296.45,436.2 -296.45,715.69 0,279.49 113.29,532.52 296.45,715.69 183.16,183.16 436.2,296.45 715.69,296.45 279.49,0 532.53,-113.29 715.69,-296.45 183.16,-183.16 296.45,-436.2 296.45,-715.69 0,-279.49 -113.29,-532.52 -296.45,-715.69 -183.16,-183.16 -436.2,-296.45 -715.69,-296.45zm-630.66 381.48c161.39,-161.39 384.37,-261.22 630.66,-261.22 246.29,0 469.26,99.83 630.66,261.22 161.4,161.4 261.22,384.37 261.22,630.66 0,246.29 -99.83,469.26 -261.22,630.66 -161.39,161.39 -384.37,261.22 -630.66,261.22 -246.29,0 -469.26,-99.83 -630.66,-261.22 -161.39,-161.39 -261.22,-384.37 -261.22,-630.66 0,-246.29 99.83,-469.26 261.22,-630.66z" fill="url(#L)" fill-rule="nonzero"/><path d="M6845.74 10079.09c-120.37,0 -229.35,48.8 -308.24,127.68 -78.89,78.89 -127.68,187.87 -127.68,308.24 0,120.37 48.79,229.35 127.68,308.24 78.89,78.89 187.87,127.68 308.24,127.68 120.37,0 229.35,-48.79 308.24,-127.68 78.89,-78.89 127.68,-187.87 127.68,-308.24 0,-120.37 -48.8,-229.35 -127.68,-308.24 -78.89,-78.89 -187.87,-127.68 -308.24,-127.68zm-223.21 212.71c57.12,-57.12 136.04,-92.45 223.21,-92.45 87.17,0 166.09,35.33 223.21,92.45 57.12,57.12 92.45,136.04 92.45,223.21 0,87.17 -35.33,166.09 -92.45,223.21 -57.12,57.12 -136.03,92.45 -223.21,92.45 -87.17,0 -166.09,-35.33 -223.21,-92.45 -57.12,-57.12 -92.45,-136.03 -92.45,-223.21 0,-87.17 35.33,-166.09 92.45,-223.21z" fill="url(#M)" fill-rule="nonzero"/></g><g><g id="change1_6"><circle cx="-1110.24" cy="11042.73" fill="#8c0303" r="1970.24"/></g><path d="M-1110.24 8979.33c-569.79,0 -1085.64,230.96 -1459.04,604.36 -373.4,373.4 -604.36,889.26 -604.36,1459.04 0,569.79 230.96,1085.64 604.36,1459.04 373.4,373.4 889.26,604.36 1459.04,604.36 569.79,0 1085.64,-230.96 1459.04,-604.36 373.4,-373.4 604.36,-889.26 604.36,-1459.04 0,-569.79 -230.96,-1085.64 -604.36,-1459.04 -373.4,-373.4 -889.26,-604.36 -1459.04,-604.36zm-1374.01 689.39c351.63,-351.64 837.43,-569.13 1374.01,-569.13 536.59,0 1022.38,217.49 1374.01,569.13 351.64,351.63 569.13,837.43 569.13,1374.01 0,536.59 -217.49,1022.38 -569.13,1374.01 -351.63,351.64 -837.43,569.13 -1374.01,569.13 -536.59,0 -1022.38,-217.49 -1374.01,-569.13 -351.64,-351.63 -569.13,-837.43 -569.13,-1374.01 0,-536.59 217.49,-1022.38 569.13,-1374.01z" fill="url(#N)" fill-rule="nonzero"/><path d="M-1110.24 9495.14c-427.35,0 -814.25,173.23 -1094.31,453.29 -280.06,280.06 -453.29,666.96 -453.29,1094.31 0,427.35 173.22,814.25 453.29,1094.31 280.06,280.06 666.96,453.28 1094.31,453.28 427.35,0 814.25,-173.23 1094.31,-453.28 280.06,-280.06 453.28,-666.96 453.28,-1094.31 0,-427.35 -173.23,-814.25 -453.28,-1094.31 -280.06,-280.06 -666.96,-453.29 -1094.31,-453.29zm-1009.28 538.31c258.29,-258.29 615.13,-418.05 1009.28,-418.05 394.15,0 750.99,159.76 1009.28,418.05 258.29,258.29 418.05,615.13 418.05,1009.28 0,394.15 -159.76,750.99 -418.05,1009.28 -258.29,258.29 -615.13,418.05 -1009.28,418.05 -394.15,0 -750.99,-159.76 -1009.28,-418.05 -258.29,-258.29 -418.05,-615.13 -418.05,-1009.28 0,-394.15 159.76,-750.99 418.05,-1009.28z" fill="url(#a)" fill-rule="nonzero"/><path d="M-1110.24 10030.6c-279.49,0 -532.52,113.29 -715.69,296.45 -183.16,183.16 -296.45,436.2 -296.45,715.69 0,279.49 113.29,532.52 296.45,715.69 183.16,183.16 436.2,296.45 715.69,296.45 279.49,0 532.53,-113.29 715.69,-296.45 183.16,-183.16 296.45,-436.2 296.45,-715.69 0,-279.49 -113.29,-532.52 -296.45,-715.69 -183.16,-183.16 -436.2,-296.45 -715.69,-296.45zm-630.66 381.48c161.39,-161.39 384.37,-261.22 630.66,-261.22 246.29,0 469.26,99.83 630.66,261.22 161.4,161.4 261.22,384.37 261.22,630.66 0,246.29 -99.83,469.27 -261.22,630.66 -161.39,161.39 -384.37,261.22 -630.66,261.22 -246.29,0 -469.26,-99.83 -630.66,-261.22 -161.39,-161.39 -261.22,-384.37 -261.22,-630.66 0,-246.29 99.83,-469.26 261.22,-630.66z" fill="url(#O)" fill-rule="nonzero"/><path d="M-1110.24 10606.82c-120.37,0 -229.35,48.8 -308.24,127.68 -78.89,78.89 -127.68,187.87 -127.68,308.24 0,120.37 48.79,229.35 127.68,308.24 78.89,78.89 187.87,127.68 308.24,127.68 120.37,0 229.35,-48.79 308.24,-127.68 78.89,-78.89 127.68,-187.87 127.68,-308.24 0,-120.37 -48.8,-229.35 -127.68,-308.24 -78.89,-78.89 -187.87,-127.68 -308.24,-127.68zm-223.21 212.71c57.12,-57.12 136.04,-92.45 223.21,-92.45 87.17,0 166.09,35.33 223.21,92.45 57.12,57.12 92.45,136.04 92.45,223.21 0,87.17 -35.33,166.09 -92.45,223.21 -57.12,57.12 -136.03,92.45 -223.21,92.45 -87.17,0 -166.09,-35.33 -223.21,-92.45 -57.12,-57.12 -92.45,-136.03 -92.45,-223.21 0,-87.17 35.33,-166.09 92.45,-223.21z" fill="url(#P)" fill-rule="nonzero"/></g><g><g id="change1_11"><circle cx="4634.54" cy="11570.6" fill="#8c0303" r="1619.76"/></g><path d="M4634.54 9874.25c-468.43,0 -892.52,189.87 -1199.5,496.85 -306.98,306.98 -496.85,731.07 -496.85,1199.5 0,468.43 189.87,892.52 496.85,1199.5 306.98,306.98 731.07,496.85 1199.5,496.85 468.43,0 892.52,-189.87 1199.5,-496.85 306.98,-306.98 496.86,-731.07 496.86,-1199.5 0,-468.43 -189.87,-892.52 -496.86,-1199.5 -306.98,-306.98 -731.07,-496.85 -1199.5,-496.85zm-1129.6 566.76c289.08,-289.09 688.46,-467.89 1129.6,-467.89 441.14,0 840.51,178.81 1129.6,467.89 289.09,289.08 467.89,688.46 467.89,1129.6 0,441.14 -178.81,840.51 -467.89,1129.6 -289.08,289.08 -688.46,467.89 -1129.6,467.89 -441.14,0 -840.51,-178.81 -1129.6,-467.89 -289.09,-289.08 -467.89,-688.46 -467.89,-1129.6 0,-441.14 178.81,-840.51 467.89,-1129.6z" fill="url(#Q)" fill-rule="nonzero"/><path d="M4634.54 10298.3c-351.33,0 -669.41,142.41 -899.65,372.65 -230.24,230.24 -372.65,548.32 -372.65,899.65 0,351.33 142.41,669.41 372.65,899.65 230.24,230.24 548.32,372.65 899.65,372.65 351.33,0 669.41,-142.41 899.65,-372.65 230.24,-230.24 372.65,-548.32 372.65,-899.65 0,-351.33 -142.41,-669.41 -372.65,-899.65 -230.24,-230.24 -548.32,-372.65 -899.65,-372.65zm-829.75 442.56c212.34,-212.35 505.71,-343.69 829.75,-343.69 324.04,0 617.4,131.34 829.75,343.69 212.35,212.35 343.69,505.71 343.69,829.75 0,324.04 -131.34,617.4 -343.69,829.75 -212.35,212.34 -505.71,343.69 -829.75,343.69 -324.04,0 -617.4,-131.34 -829.75,-343.69 -212.35,-212.35 -343.69,-505.71 -343.69,-829.75 0,-324.04 131.34,-617.4 343.69,-829.75z" fill="url(#R)" fill-rule="nonzero"/><path d="M4634.54 10738.51c-229.77,0 -437.8,93.14 -588.38,243.72 -150.58,150.58 -243.72,358.6 -243.72,588.38 0,229.77 93.14,437.8 243.72,588.38 150.58,150.58 358.6,243.72 588.38,243.72 229.77,0 437.8,-93.14 588.38,-243.72 150.58,-150.58 243.72,-358.6 243.72,-588.38 0,-229.77 -93.14,-437.79 -243.72,-588.38 -150.58,-150.58 -358.6,-243.72 -588.38,-243.72zm-518.47 313.62c132.69,-132.68 315.99,-214.75 518.47,-214.75 202.48,0 385.79,82.07 518.47,214.75 132.69,132.69 214.75,315.99 214.75,518.47 0,202.48 -82.07,385.79 -214.75,518.47 -132.68,132.68 -315.99,214.75 -518.47,214.75 -202.48,0 -385.79,-82.07 -518.47,-214.75 -132.68,-132.68 -214.75,-315.99 -214.75,-518.47 0,-202.48 82.07,-385.79 214.75,-518.47z" fill="url(#S)" fill-rule="nonzero"/><path d="M4634.54 11212.23c-98.96,0 -188.55,40.12 -253.41,104.97 -64.85,64.85 -104.97,154.45 -104.97,253.41 0,98.96 40.11,188.55 104.97,253.41 64.85,64.85 154.45,104.97 253.41,104.97 98.96,0 188.55,-40.11 253.4,-104.97 64.86,-64.85 104.97,-154.45 104.97,-253.41 0,-98.96 -40.12,-188.55 -104.97,-253.41 -64.85,-64.85 -154.45,-104.97 -253.4,-104.97zm-183.5 174.87c46.96,-46.96 111.84,-76 183.5,-76 71.66,0 136.54,29.05 183.5,76 46.96,46.96 76,111.84 76,183.5 0,71.66 -29.05,136.54 -76,183.5 -46.96,46.96 -111.84,76.01 -183.5,76.01 -71.66,0 -136.54,-29.05 -183.5,-76.01 -46.96,-46.96 -76,-111.84 -76,-183.5 0,-71.66 29.05,-136.54 76,-183.5z" fill="url(#T)" fill-rule="nonzero"/></g><g><g id="change1_5"><circle cx="36.25" cy="4284.87" fill="#8c0303" r="912.38"/></g><path d="M36.25 3329.35c-263.86,0 -502.74,106.95 -675.65,279.87 -172.92,172.91 -279.87,411.8 -279.87,675.65 0,263.86 106.95,502.74 279.87,675.65 172.91,172.92 411.8,279.87 675.65,279.87 263.86,0 502.74,-106.95 675.65,-279.87 172.92,-172.92 279.87,-411.8 279.87,-675.65 0,-263.86 -106.95,-502.74 -279.87,-675.65 -172.92,-172.92 -411.8,-279.87 -675.65,-279.87zm-636.28 319.24c162.83,-162.84 387.79,-263.55 636.28,-263.55 248.48,0 473.44,100.72 636.28,263.55 162.84,162.83 263.55,387.79 263.55,636.28 0,248.48 -100.72,473.44 -263.55,636.28 -162.83,162.84 -387.79,263.55 -636.28,263.55 -248.48,0 -473.44,-100.72 -636.28,-263.55 -162.84,-162.83 -263.55,-387.79 -263.55,-636.28 0,-248.48 100.72,-473.44 263.55,-636.28z" fill="url(#U)" fill-rule="nonzero"/><path d="M36.25 3568.21c-197.9,0 -377.06,80.22 -506.75,209.91 -129.69,129.69 -209.91,308.86 -209.91,506.75 0,197.9 80.22,377.06 209.91,506.75 129.69,129.69 308.86,209.91 506.75,209.91 197.9,0 377.06,-80.22 506.75,-209.91 129.69,-129.69 209.91,-308.86 209.91,-506.75 0,-197.9 -80.22,-377.06 -209.91,-506.75 -129.69,-129.69 -308.86,-209.91 -506.75,-209.91zm-467.38 249.28c119.61,-119.61 284.85,-193.59 467.38,-193.59 182.52,0 347.77,73.98 467.38,193.59 119.61,119.61 193.59,284.85 193.59,467.38 0,182.52 -73.98,347.77 -193.59,467.38 -119.61,119.61 -284.86,193.59 -467.38,193.59 -182.52,0 -347.77,-73.98 -467.38,-193.59 -119.61,-119.61 -193.59,-284.86 -193.59,-467.38 0,-182.52 73.98,-347.77 193.59,-467.38z" fill="url(#V)" fill-rule="nonzero"/><path d="M36.25 3816.17c-129.42,0 -246.6,52.46 -331.42,137.28 -84.82,84.82 -137.28,201.99 -137.28,331.42 0,129.42 52.46,246.6 137.28,331.42 84.82,84.82 201.99,137.28 331.42,137.28 129.42,0 246.6,-52.46 331.42,-137.28 84.82,-84.82 137.28,-201.99 137.28,-331.42 0,-129.42 -52.46,-246.6 -137.28,-331.42 -84.82,-84.82 -201.99,-137.28 -331.42,-137.28zm-292.04 176.66c74.74,-74.74 177.99,-120.97 292.04,-120.97 114.05,0 217.31,46.23 292.04,120.97 74.74,74.74 120.97,177.99 120.97,292.04 0,114.05 -46.23,217.31 -120.97,292.04 -74.74,74.74 -177.99,120.97 -292.04,120.97 -114.05,0 -217.31,-46.23 -292.04,-120.97 -74.74,-74.74 -120.97,-177.99 -120.97,-292.04 0,-114.05 46.23,-217.31 120.97,-292.04z" fill="url(#W)" fill-rule="nonzero"/><path d="M36.25 4083.01c-55.74,0 -106.21,22.6 -142.74,59.13 -36.53,36.53 -59.13,87 -59.13,142.74 0,55.74 22.59,106.21 59.13,142.74 36.53,36.53 87,59.13 142.74,59.13 55.74,0 106.21,-22.59 142.74,-59.13 36.53,-36.53 59.13,-87 59.13,-142.74 0,-55.74 -22.6,-106.21 -59.13,-142.74 -36.53,-36.53 -87,-59.13 -142.74,-59.13zm-103.36 98.5c26.45,-26.45 63,-42.81 103.36,-42.81 40.37,0 76.91,16.36 103.36,42.81 26.45,26.45 42.81,63 42.81,103.36 0,40.37 -16.36,76.91 -42.81,103.36 -26.45,26.45 -62.99,42.81 -103.36,42.81 -40.37,0 -76.91,-16.36 -103.36,-42.81 -26.45,-26.45 -42.81,-62.99 -42.81,-103.36 0,-40.37 16.36,-76.91 42.81,-103.36z" fill="url(#X)" fill-rule="nonzero"/></g><g><g id="change1_10"><circle cx="-161.45" cy="2606.73" fill="#8c0303" r="912.38"/></g><path d="M-161.45 1651.21c-263.86,0 -502.74,106.95 -675.65,279.87 -172.92,172.91 -279.87,411.8 -279.87,675.65 0,263.86 106.95,502.74 279.87,675.65 172.91,172.92 411.8,279.87 675.65,279.87 263.86,0 502.74,-106.95 675.65,-279.87 172.92,-172.91 279.87,-411.8 279.87,-675.65 0,-263.86 -106.95,-502.74 -279.87,-675.65 -172.92,-172.92 -411.8,-279.87 -675.65,-279.87zm-636.28 319.24c162.83,-162.83 387.79,-263.55 636.28,-263.55 248.48,0 473.44,100.72 636.28,263.55 162.83,162.83 263.55,387.79 263.55,636.28 0,248.48 -100.72,473.44 -263.55,636.28 -162.83,162.83 -387.79,263.55 -636.28,263.55 -248.48,0 -473.44,-100.72 -636.28,-263.55 -162.83,-162.83 -263.55,-387.79 -263.55,-636.28 0,-248.48 100.72,-473.44 263.55,-636.28z" fill="url(#Y)" fill-rule="nonzero"/><path d="M-161.45 1890.07c-197.9,0 -377.06,80.22 -506.75,209.91 -129.69,129.69 -209.91,308.86 -209.91,506.75 0,197.9 80.22,377.06 209.91,506.75 129.69,129.69 308.85,209.91 506.75,209.91 197.9,0 377.06,-80.22 506.75,-209.91 129.69,-129.69 209.91,-308.86 209.91,-506.75 0,-197.9 -80.22,-377.06 -209.91,-506.75 -129.69,-129.69 -308.86,-209.91 -506.75,-209.91zm-467.38 249.28c119.61,-119.61 284.85,-193.59 467.38,-193.59 182.52,0 347.77,73.98 467.38,193.59 119.61,119.61 193.59,284.85 193.59,467.38 0,182.52 -73.98,347.77 -193.59,467.38 -119.61,119.61 -284.86,193.59 -467.38,193.59 -182.52,0 -347.77,-73.98 -467.38,-193.59 -119.61,-119.61 -193.59,-284.86 -193.59,-467.38 0,-182.52 73.98,-347.77 193.59,-467.38z" fill="url(#Z)" fill-rule="nonzero"/><path d="M-161.45 2138.03c-129.42,0 -246.6,52.46 -331.42,137.28 -84.82,84.82 -137.28,201.99 -137.28,331.42 0,129.43 52.46,246.6 137.28,331.42 84.82,84.82 201.99,137.28 331.42,137.28 129.43,0 246.6,-52.46 331.42,-137.28 84.82,-84.82 137.28,-201.99 137.28,-331.42 0,-129.42 -52.46,-246.6 -137.28,-331.42 -84.82,-84.82 -201.99,-137.28 -331.42,-137.28zm-292.04 176.66c74.74,-74.74 177.99,-120.97 292.04,-120.97 114.05,0 217.31,46.23 292.04,120.97 74.74,74.74 120.97,177.99 120.97,292.04 0,114.05 -46.23,217.31 -120.97,292.04 -74.74,74.74 -177.99,120.97 -292.04,120.97 -114.05,0 -217.3,-46.23 -292.04,-120.97 -74.74,-74.74 -120.97,-177.99 -120.97,-292.04 0,-114.05 46.23,-217.31 120.97,-292.04z" fill="url(#aa)" fill-rule="nonzero"/><path d="M-161.45 2404.87c-55.74,0 -106.21,22.6 -142.74,59.13 -36.53,36.53 -59.13,87 -59.13,142.74 0,55.74 22.6,106.21 59.13,142.74 36.53,36.53 87,59.13 142.74,59.13 55.74,0 106.21,-22.6 142.74,-59.13 36.53,-36.53 59.13,-87 59.13,-142.74 0,-55.74 -22.6,-106.21 -59.13,-142.74 -36.53,-36.53 -87,-59.13 -142.74,-59.13zm-103.36 98.5c26.45,-26.45 63,-42.81 103.36,-42.81 40.37,0 76.91,16.36 103.36,42.81 26.45,26.45 42.81,63 42.81,103.36 0,40.37 -16.36,76.91 -42.81,103.36 -26.45,26.45 -62.99,42.81 -103.36,42.81 -40.37,0 -76.91,-16.36 -103.36,-42.81 -26.45,-26.45 -42.81,-63 -42.81,-103.36 0,-40.37 16.36,-76.91 42.81,-103.36z" fill="url(#ab)" fill-rule="nonzero"/></g><g><g id="change1_12"><circle cx="429.53" cy="3264.52" fill="#8c0303" r="912.38"/></g><path d="M429.53 2309c-263.86,0 -502.74,106.95 -675.65,279.87 -172.92,172.92 -279.87,411.8 -279.87,675.65 0,263.86 106.95,502.74 279.87,675.65 172.92,172.92 411.8,279.87 675.65,279.87 263.86,0 502.74,-106.95 675.65,-279.87 172.92,-172.91 279.87,-411.8 279.87,-675.65 0,-263.86 -106.95,-502.74 -279.87,-675.65 -172.91,-172.92 -411.8,-279.87 -675.65,-279.87zm-636.28 319.24c162.83,-162.84 387.79,-263.55 636.28,-263.55 248.48,0 473.44,100.72 636.28,263.55 162.84,162.83 263.55,387.79 263.55,636.28 0,248.48 -100.72,473.44 -263.55,636.28 -162.83,162.84 -387.79,263.55 -636.28,263.55 -248.48,0 -473.44,-100.72 -636.28,-263.55 -162.84,-162.83 -263.55,-387.79 -263.55,-636.28 0,-248.48 100.72,-473.44 263.55,-636.28z" fill="url(#ac)" fill-rule="nonzero"/><path d="M429.53 2547.86c-197.9,0 -377.06,80.22 -506.75,209.91 -129.69,129.69 -209.91,308.86 -209.91,506.75 0,197.9 80.22,377.06 209.91,506.75 129.69,129.69 308.85,209.91 506.75,209.91 197.9,0 377.06,-80.22 506.75,-209.91 129.69,-129.69 209.91,-308.86 209.91,-506.75 0,-197.9 -80.22,-377.06 -209.91,-506.75 -129.69,-129.69 -308.86,-209.91 -506.75,-209.91zm-467.38 249.28c119.61,-119.61 284.85,-193.59 467.38,-193.59 182.52,0 347.77,73.98 467.38,193.59 119.61,119.61 193.59,284.85 193.59,467.38 0,182.52 -73.98,347.77 -193.59,467.38 -119.61,119.61 -284.85,193.59 -467.38,193.59 -182.52,0 -347.77,-73.98 -467.38,-193.59 -119.61,-119.61 -193.59,-284.85 -193.59,-467.38 0,-182.52 73.98,-347.77 193.59,-467.38z" fill="url(#ad)" fill-rule="nonzero"/><path d="M429.53 2795.82c-129.42,0 -246.6,52.46 -331.42,137.28 -84.82,84.82 -137.28,201.99 -137.28,331.42 0,129.42 52.46,246.6 137.28,331.42 84.82,84.82 201.99,137.28 331.42,137.28 129.42,0 246.6,-52.46 331.42,-137.28 84.82,-84.82 137.28,-201.99 137.28,-331.42 0,-129.42 -52.46,-246.6 -137.28,-331.42 -84.82,-84.82 -201.99,-137.28 -331.42,-137.28zm-292.04 176.66c74.74,-74.74 177.99,-120.97 292.04,-120.97 114.05,0 217.31,46.23 292.04,120.97 74.74,74.74 120.97,177.99 120.97,292.04 0,114.05 -46.23,217.31 -120.97,292.04 -74.74,74.74 -177.99,120.97 -292.04,120.97 -114.05,0 -217.31,-46.23 -292.04,-120.97 -74.74,-74.74 -120.97,-177.99 -120.97,-292.04 0,-114.05 46.23,-217.31 120.97,-292.04z" fill="url(#ae)" fill-rule="nonzero"/><path d="M429.53 3062.66c-55.74,0 -106.21,22.6 -142.74,59.13 -36.53,36.53 -59.13,87 -59.13,142.74 0,55.74 22.59,106.21 59.13,142.74 36.53,36.53 87,59.13 142.74,59.13 55.74,0 106.21,-22.6 142.74,-59.13 36.53,-36.53 59.13,-87 59.13,-142.74 0,-55.74 -22.6,-106.21 -59.13,-142.74 -36.53,-36.53 -87,-59.13 -142.74,-59.13zm-103.36 98.5c26.45,-26.45 63,-42.81 103.36,-42.81 40.37,0 76.91,16.36 103.36,42.81 26.45,26.45 42.81,63 42.81,103.36 0,40.37 -16.36,76.91 -42.81,103.36 -26.45,26.45 -63,42.81 -103.36,42.81 -40.37,0 -76.91,-16.36 -103.36,-42.81 -26.45,-26.45 -42.81,-63 -42.81,-103.36 0,-40.37 16.36,-76.91 42.81,-103.36z" fill="url(#af)" fill-rule="nonzero"/></g><g><g id="change1_9"><circle cx="2732.45" cy="11504.68" fill="#8c0303" r="912.38"/></g><path d="M2732.45 10549.16c-263.86,0 -502.74,106.95 -675.65,279.87 -172.92,172.91 -279.87,411.8 -279.87,675.65 0,263.86 106.95,502.74 279.87,675.65 172.91,172.92 411.8,279.87 675.65,279.87 263.86,0 502.74,-106.95 675.65,-279.87 172.92,-172.91 279.87,-411.8 279.87,-675.65 0,-263.86 -106.95,-502.74 -279.87,-675.65 -172.91,-172.92 -411.8,-279.87 -675.65,-279.87zm-636.28 319.24c162.83,-162.83 387.79,-263.55 636.28,-263.55 248.48,0 473.44,100.72 636.28,263.55 162.84,162.83 263.55,387.79 263.55,636.28 0,248.48 -100.72,473.44 -263.55,636.28 -162.83,162.83 -387.79,263.55 -636.28,263.55 -248.48,0 -473.44,-100.72 -636.28,-263.55 -162.84,-162.83 -263.55,-387.79 -263.55,-636.28 0,-248.48 100.72,-473.44 263.55,-636.28z" fill="url(#ag)" fill-rule="nonzero"/><path d="M2732.45 10788.02c-197.9,0 -377.06,80.22 -506.75,209.91 -129.69,129.69 -209.91,308.86 -209.91,506.75 0,197.9 80.22,377.06 209.91,506.75 129.69,129.69 308.85,209.91 506.75,209.91 197.9,0 377.06,-80.22 506.75,-209.91 129.69,-129.69 209.91,-308.86 209.91,-506.75 0,-197.9 -80.22,-377.06 -209.91,-506.75 -129.69,-129.69 -308.86,-209.91 -506.75,-209.91zm-467.38 249.28c119.61,-119.61 284.85,-193.59 467.38,-193.59 182.52,0 347.77,73.98 467.38,193.59 119.61,119.61 193.59,284.85 193.59,467.38 0,182.52 -73.98,347.77 -193.59,467.38 -119.61,119.61 -284.85,193.59 -467.38,193.59 -182.52,0 -347.77,-73.98 -467.38,-193.59 -119.61,-119.61 -193.59,-284.86 -193.59,-467.38 0,-182.52 73.98,-347.77 193.59,-467.38z" fill="url(#ah)" fill-rule="nonzero"/><path d="M2732.45 11035.98c-129.42,0 -246.6,52.46 -331.42,137.28 -84.82,84.82 -137.28,201.99 -137.28,331.42 0,129.42 52.46,246.6 137.28,331.42 84.82,84.82 201.99,137.28 331.42,137.28 129.42,0 246.6,-52.46 331.42,-137.28 84.82,-84.82 137.28,-201.99 137.28,-331.42 0,-129.43 -52.46,-246.6 -137.28,-331.42 -84.82,-84.82 -201.99,-137.28 -331.42,-137.28zm-292.04 176.66c74.74,-74.74 177.99,-120.97 292.04,-120.97 114.05,0 217.31,46.23 292.04,120.97 74.74,74.74 120.97,177.99 120.97,292.04 0,114.05 -46.23,217.31 -120.97,292.04 -74.74,74.74 -177.99,120.97 -292.04,120.97 -114.05,0 -217.31,-46.23 -292.04,-120.97 -74.74,-74.74 -120.97,-177.99 -120.97,-292.04 0,-114.05 46.23,-217.31 120.97,-292.04z" fill="url(#ai)" fill-rule="nonzero"/><path d="M2732.45 11302.82c-55.74,0 -106.21,22.6 -142.74,59.13 -36.53,36.53 -59.13,87 -59.13,142.74 0,55.74 22.59,106.21 59.13,142.74 36.53,36.53 87,59.13 142.74,59.13 55.74,0 106.21,-22.6 142.74,-59.13 36.53,-36.53 59.13,-87 59.13,-142.74 0,-55.74 -22.6,-106.21 -59.13,-142.74 -36.53,-36.53 -87,-59.13 -142.74,-59.13zm-103.36 98.5c26.45,-26.45 63,-42.81 103.36,-42.81 40.37,0 76.91,16.36 103.36,42.81 26.45,26.45 42.81,63 42.81,103.36 0,40.37 -16.36,76.91 -42.81,103.36 -26.45,26.45 -62.99,42.81 -103.36,42.81 -40.37,0 -76.91,-16.36 -103.36,-42.81 -26.45,-26.45 -42.81,-63 -42.81,-103.36 0,-40.37 16.36,-76.91 42.81,-103.36z" fill="url(#aj)" fill-rule="nonzero"/></g></g></g></g><path d="M0 0L11173.26 0 11173.26 11173.26 0 11173.26z" fill="none"/></g></svg>